/* XPM */
static char *_a5df329a64c4e91d7ba548aa2e2e63dbVEoVuReeBeBg2g4[] = {
/* columns rows colors chars-per-pixel */
"64 64 112 2 ",
"   c #322785",
".  c #352A86",
"X  c #392D87",
"o  c #332789",
"O  c #352A8A",
"+  c #392E8D",
"@  c #3C318D",
"#  c #362B92",
"$  c #3A2F92",
"%  c #3D3394",
"&  c #3F3499",
"*  c #413696",
"=  c #433996",
"-  c #41369B",
";  c #43399B",
":  c #493E9E",
">  c #453AA1",
",  c #493EA4",
"<  c #4C3FA8",
"1  c #4C419E",
"2  c #50469E",
"3  c #4D42A4",
"4  c #4E43A9",
"5  c #5146A6",
"6  c #5349A4",
"7  c #5146AB",
"8  c #544AAD",
"9  c #584DAD",
"0  c #5C52AE",
"q  c #5347B0",
"w  c #554AB2",
"e  c #594DB3",
"r  c #5D52B4",
"t  c #5E53B9",
"y  c #6053AD",
"u  c #6156B5",
"i  c #645BB5",
"p  c #6256B9",
"a  c #655ABC",
"s  c #695EBD",
"d  c #6961B7",
"f  c #6B62BD",
"g  c #7066BD",
"h  c #645AC0",
"j  c #6A5FC2",
"k  c #6D62C3",
"l  c #6E64C8",
"z  c #7166C5",
"x  c #7369C6",
"c  c #786EC7",
"v  c #7166CA",
"b  c #756ACB",
"n  c #796FCD",
"m  c #7C72CE",
"M  c #776CD0",
"N  c #796ED1",
"B  c #7E73D2",
"V  c #7D70D9",
"C  c #8076CE",
"Z  c #8279CD",
"A  c #8176D4",
"S  c #8479D5",
"D  c #897DD6",
"F  c #8176D9",
"G  c #847ADA",
"H  c #897EDD",
"J  c #8A7EE2",
"K  c #8A80D7",
"L  c #8D82DD",
"P  c #9086DF",
"I  c #958BDE",
"U  c #9B93DC",
"Y  c #9F98DE",
"T  c #8D82E2",
"R  c #9186E3",
"E  c #958BE4",
"W  c #998FE4",
"Q  c #968BEA",
"!  c #988EEC",
"~  c #9C93E4",
"^  c #9F98E6",
"/  c #9D93EB",
"(  c #968BF1",
")  c #9A8EF1",
"_  c #9E93F2",
"`  c #A196E6",
"'  c #A49BE3",
"]  c #A096ED",
"[  c #A49BED",
"{  c #A196F3",
"}  c #A59AF4",
"|  c #A99EF5",
" . c #A296FA",
".. c #A69BFA",
"X. c #A99EFC",
"o. c #A9A2ED",
"O. c #B3ADEB",
"+. c #ACA3F4",
"@. c #ADA2FD",
"#. c #B3ABF4",
"$. c #B1A6FD",
"%. c #B4ABFD",
"&. c #B7B0F4",
"*. c #BBB4F6",
"=. c #BCB5FD",
"-. c #BFB8FE",
";. c #C1B7FF",
":. c #C4BDFE",
">. c #C8BFFF",
",. c #C9C1FF",
"<. c #D2CBFF",
"1. c #DAD4FF",
/* pixels */
". X O . O O O O o O O O O O O O O O . . . . O . O O O . .   O o O O . O . O O O O O O . . . O + O . . O + . . O O O + + O O + O ",
"X . O % & % % % % & % % % % % % % $ % % @ = @ $ % % % % % % - % % $ % % @ % * % % ; $ @ @ % = % & % % % % % & ; % % $ % % O O . ",
"O X % ; ; ; > 4 7 8 8 8 7 7 4 7 w 7 w w 6 s l b a 7 6 7 B G 1 3 6 i x k b e 7 7 8 6 0 H E L r & = & & 1 ; = & 1 3 8 8 6 6 ; + O ",
"O * : = & > 4 e w w 8 8 9 w e e w w w w 7 l F G B w e 7 G  .s s n A A F a e w w 8 : F @.H 3 & & ; 1 & & = & = ; > 3 8 9 w 4 % O ",
"O * ; - ; < w w w w w w w 8 7 4 , 4 w w 8 l F N B k w 4 B @.} L C n A v q 7 5 6 i H  .X.t # > ; & ; ; 1 & & & ; & > 3 7 e 6 &   ",
"O % ; ; < w e q w w w q 7 , > ; & ; > , 4 l A M B V t 6 L } / / c A v 8 5 p i S _ } ..M ; ; & > > ; & ; & > & & & & & 3 8 8 % O ",
"O % ; 3 q w e e e w < > & & - ; ; & = & 1 x C C B B 0 8 L | +.[ P k q 9 Z ~ +.#./ ..! ; ; ; > & & > & ; 1 & 1 3 > > & & 3 4 % O ",
"O % , w w w q w w 4 > & & > > > ; = ; & 1 C B n z t 0 3 c %.,.^ | k 5 J | [ :.;.^ / 4 & ; ; & ; ; & ; ; & & & & > & ; & & > % O ",
"O % 7 w w w w w 4 > ; & ; > ; ; ; ; ; $ i A k 6 8 7 w 6 V +.^ _ ..k 7 Q o.,.1.#.E 1 % > ; & ; ; & ; ; ; ; & ; ; & & & & 1 = & + ",
"O % 7 8 w w w w < & > ; ; & > - ; ; ; 8 G u $ 3 w e 9 w _ _ ..! ) k 7 u W o.o.o.d @ & & ; = ; ; ; & ; & ; ; ; ; > & 1 & & & % O ",
"O % 8 8 w w w q & - ; & ; ; & ; ; & > B x & % > 7 w 7 v @._ k r A z q 6 6 W ~ +.k $ 3 & ; & & ; ; ; ; ; ; ; ; & & & 3 & & 1 & . ",
"O % 7 7 w w w , & > ; & ; & & ; ; ; M b & = > & 7 w t _ T e 4 8 t 9 8 7 % = T ..N & > & ; = ; = ; ; ; ; ; & = ; 1 & & & & & $ + ",
"O % 7 w w w 4 > ; ; - ; - - ; - ; b G 6 % & ; ; ; 4 Q ..h 7 8 e e j e 7 - + a @.( & & & 1 & & > & > & ; & = ; ; & ; > ; 1 = % + ",
"O % 7 w w w 3 & ; ; - = - = & = d H k % 1 ; & ; & B _ a 7 q w q r F j , = ; $ v k & ; & & = & > > & ; ; & 1 ; & 1 & & ; % & @ + ",
"O % 8 9 q w > - > ; - ; ; * % 9 S B e % & & & % n $.M 3 w e q w < N V < ; ; > > l 7 $ 1 ; ; & > - - ; ; ; & & ; & ; ; % ; r & . ",
"O % 7 e w e > > & & ; = % - 8 c B l % > ; 3 # k @.( 3 & > 4 e w w h a 5 - = - , @.M $ & = & > & - - ; & & & 1 ; & & ; 9 m b % O ",
"O $ 7 w w 9 > & - - * * 6 g A A A a - ; - * < _ @.l $ 1 & & 4 q w 8 8 8 % % & & T _ % = ; - > & - > - - ; ; & & & 7 c B B c % O ",
". - 4 w w 9 3 - - - : s C S C n A 7 = = * : D X.! 3 & = ; & & 3 w q w b k 8 3 @ h F 6 & > - & > > - > & ; ; & & t B B m B x % . ",
"O & 8 w 7 7 ; ; > < F A A n C C A 6 O : C / } } E & ; & = & & > 7 w q h K S n k 8 9 0 = % & > - - - - > ; % 6 i B B B m B x @ . ",
". @ f M n n B M 4 ; l B A A A b A 9 u ) } $.` | x + 1 ; ; 1 % & 4 e w 6 a c B A A m L L a 4 # ; - > > # r n B Z m m m m S k + @ ",
"X @ x A B f r = % % & & % 3 l B A W | { W >.>.[ f % ; & * - & > > q w 4 @ ; 3 M A M L +...Q x 6 3 + % 6 x S m m m m m m m k @ X ",
". @ H E L Z Z m G B B B G G T S C _ { } [ $.#.$.f + & ; - - ; & > 8 w , ; ; $ 3 M A C ! { } X.[ / C K L B c m B B m m S / L % . ",
"X @ I $.#.#.#.o.[ } @.@.E L d & 9 D s 6 g I [ ] T & ; - = ; & > , w e 4 ; ; ; 3 B n B M G L _ { ^ [ [ ^ ^ m m c n m B ! @.K @ . ",
"X O m %.,.<.1.o.~ | / n ; O % ; * k A : X 6 E | / 4 = - ; ; & ; 7 w q w > ; @ a A F B m N x x ^ #.*.<.o.[ / W L L T _ _  .L @ X ",
"O % 5 A [ +.-.[ } L 1 + > > > & * e F x ; % - n @.s + ; - - , 7 w 7 w w w 7 h B B M t w w w 6 ! -.<.<.,.-.o.o...X.X... .X.T @ . ",
"O ; 4 8 E / / } m 3 - ; & ; & > - , A F l , % + D } 6 @ * , 7 8 6 w q w w t h r b t w w w 1 x ..^ o.^ [ [ K T T T T T Q Q B % X ",
"o $ w 7 m +.} B 4 9 r 4 > > & & - * 7 A V G j 4 i @.P 2 p s r f M l w w w w 8 7 t 0 w 8 8 k / } / C i 0 9 & $ ; 4 7 7 7 w 4 $ O ",
"X * 7 5 x ..Q 7 w w w w w 7 7 & - * * - w h V G m ^ } E A m A A l k 6 8 q q 8 7 4 w w 8 r m B E M 4 8 4 4 w 4 w w w w w w w & # ",
"O % 7 w r ..M 4 w w w w w w w w < 5 5 3 , < e N m L { | _ L S r 1 3 9 p t t k G N w w 0 8 6 , j t w w 0 w w 0 w w 8 8 8 w 7 & O ",
". * 7 w t ..h 7 w w w w 7 w w w t q e e w e q r m m D T /  ./ H L G P } _  ...( G 8 4 4 6 4 w w w 8 q 8 w q w w 8 w w 8 9 8 $ O ",
". % 7 7 t l r w w w w w w w e w q q e e 8 e w 8 0 N m B b A { | } ^ #.o.^ ..N % & - > & ; & > 4 > 8 w w w w w w w w w q w 7 $ # ",
"O % - 7 w 8 w w w w w w w w w w q e q q w q e q 4 k B B B k 6 } ^ -.1.-.^ C $ ; > & > & ; > - - & & ; 4 4 q w w w e w w 8 8 & O ",
". & > & 4 w w w w w w w w w w w w w w w w w w e 7 e v A A y * 6 W -.1.=.I 2 % 1 ; - ; & > & ; - ; ; & & & & 4 4 3 q q w e 4 & o ",
". & ; - w w w w w w w w w w w w w w w w w w w w t < b A F 6 * * g +.+.o.E @ ; & = - ; > > & - ; & ; & 1 ; ; & > & - - > q q $ # ",
"O & ; ; w w w w w w w w w w w w w w w w w w w w 7 e v A F a * = 1 ! / +.K & & ; - ; & > & - ; ; & ; & ; ; & & & > & ; - % 1 & O ",
". % ; = 8 8 > , w w w w w w w w q w w w w w w w q < k A C A < * % B @._ f % = ; - & > & ; ; ; & 1 ; ; & ; ; ; 1 & ; > ; & % & O ",
"O = ; % 8 3 & & > 4 4 q w w w 8 w w w w w w w w 9 8 C A b A v : + S } } S % - - - ; ; > ; ; ; ; & > & & 1 & = & ; - - ; ; ; % . ",
"O % ; t l 4 ; ; > & & > , w w w w w w w e w w q 7 z A n A b F b * m | [ } 7 & = & ; > & - & ; - & & & 3 1 & = & = = ; & @ 3 % X ",
"O & @ d %.r & & & > > & - > 8 w w w w w w w q 9 q n C n C C C A m Q [ / ] R = - & > ; - - = - - > > & & & 1 & = ; & % - 0 k % . ",
"O & & B X.h $ - > & & > - & > > q w w w q 9 q q u N A C b C A b R | ] [ +.} L = > & > - - - ; ; & > & ; & & & = = 1 9 x S l % O ",
". @ = Q X.r % = ; ; > & > & ; & > < w q w w q w v A b A b A C C Q } U -.=.U +.T - & - - - = ; ; ; > ; & & = % 1 % t V G G b % . ",
"# @ 8 { } C @ ; ; & & ; ; > ; = & > < q e q w 7 A A A C b A A F } / ' <.*.U ~ | L 3 % = - ; - ; & > & ; 3 & & & ; & e t 8 7 & O ",
"O . d ..{ W = ; = ; ; & ; & ; ; & > > q 8 w 7 k N M A A A A j J } U :.1.1.#./ ^ } } B ; & % * % & > % & & & 3 & ; ; & $ & : % O ",
". = G } _ X.f O ; & ; > ; & ; & - & & q 8 7 k B A A A x s y 6 Q [ #.1.O.O.=.[ } _ _ @.) B a r 9 9 l x & 1 = ; & & > > ; 8 8 & O ",
". @ P ..] } Q 1 % ; = ; ; ; & ; ; ; % 8 w d V V n s t 7 8 3 s _ / $.%.^ o.W E B Q ) _  .X.X./ R K N 9 $ & % % & & & > 4 9 8 % O ",
". % L } ] ] X.S $ > ; & > ; = ; $ = 3 w n B N k t 7 7 e 3 a  . .@.} E L f 3 % & = - k T _ } } { _ L m r 8 8 9 8 3 4 w w 9 7 % O ",
". % H } ^ ! ^ ..x O = ; ; ; = : 0 0 B B B B t 7 8 q w 5 a  .X. .G l t 8 > & > ; = = % f A P Q { / @.+._ @.@.@._ r q w 8 7 9 % O ",
"O @ T ..^ %.[ ^ ..B 3 & $ a n M A B B B B a 7 8 8 9 e N  .} J k 3 6 8 r 4 > & - = = - ; 1 z A S 0 K o._ _ _ _ B 7 7 9 r k l $ O ",
"+ $ L +.U ,.-.U / $.V ; 1 k A B B m B B c 6 9 u p R { }  .V 4 7 w w w w 7 > & & ; ; = = $ 6 S m c 2 K +.` {  .e 9 s b A A z + + ",
"O $ N +.U ,.*.Y ^ _ _ B m B N B B m m c L D R ..] } ` } G 4 w e w w w w w 4 ; & & ; ; > ; 3 x m A m Z S ] } { N n A A A A b *   ",
"O X x o.U ,.,.U } } _ } S B A N c B m m P o.} W ` ` o.` 1 8 w q w w w w w w 4 > - & > & ; % e G n B m m G { { { G x k z s 6 *   ",
"+ + 0 +.U -.1.+.~ } } G z f n T _ / ~ / / / [ -.>.<.<.' 6 $ 4 q w w w q w w w w q w 7 w 6 4 k B G N B m x ! { { _ Q E Q D i *   ",
"+ O i @.W =.,.#.+._ n % : : 4 k ....../ +./ } =.;.;.<.;.d @ > > > 4 q w w w w w w w w w w w k V j h t q 7 z | ] ] { } } $.( + O ",
"+ @ L .._ o.~ Z i 3 & & = = 4 7 l k H _ T / | [ U U :.=.d % > & - - & > 4 7 q 7 7 8 w w t d M t 7 q q w 7 k } [ | | ..J J A *   ",
". + T @.Q i 2 @ & & ; ; > 7 w w 7 4 w B 9 : e n I +.` [ i % ; > - - - - ; & ; ; & ; > k V B a 7 e w w w 5 k X.P F i 8 * * * * o ",
"O % T V & % & = - - ; 8 r w w w e e ; N r % & % = I [ P % = ; - - - - & ; ; & ; = = ; b B k 8 9 w w w e 9 _ b = + * * - * ; *   ",
". % = & & ; - & ; 3 4 w w 9 w w w 7 ; N r $ ; > $ 6 X.b $ & ; ; ; ; ; ; ; ; ; & = * 9 B F r 7 8 w 7 v _ ..B + & ; ; = = - ; - O ",
"O % 4 > > , 3 4 7 w w w w w w w 9 4 & c k 1 ; & > $ Q m % : ; = ; ; ; - ; & = ; % : B B b 3 e 7 e 7 T @.R - ; ; > - - - = = * O ",
"O % 7 w w w w w w w w w w w w w w ; 8 B B x & 1 ; % ( n # ; ; = = & ; - - & ; ; - k A A n ; w w 7 t _ $.k $ ; > > > - - - = * o ",
"o % 6 w w w w w w w w w w w w w 8 & 9 B m m 1 & ; $ T T & > % ; ; ; ; & - ; ; % 7 A n A a ; e w 6 R _ / r % ; ; - ; - & = = * o ",
"+ - 5 e w w e w w w w w w w w w 7 $ r V B B x & % 4 _ @.( & > = = ; ; ; - > ; = z S A F s 7 w w B @. ._ = = - ; - ; - * ; ; * . ",
"O O - 5 7 6 7 7 q q q w q q 7 w 3 & d b z x k e % 0 R H T 7 & ; ; % ; > > - ; 3 g g g x b p 7 w T L R D ; = ; = ; ; ; - ; = +   ",
"X . O * % & % & % % $ & % % % % & % @ @ @ @ % % = @ @ @ $ % % % % % % & % % % = * * X * * + % $ + % $ % = % % % * * * * * + . X ",
"o X   X . . O O O O O O O . + O   + . . . + O . . .   . + . + O . + O O O O O O . .   . O o o O + O + O . O   X . . O   .   X X "
};
