/* XPM */
static char *_4d81a89630740eb8f18e2a41bb2151b81gCsyhByvXeAECk[] = {
/* columns rows colors chars-per-pixel */
"64 64 158 2 ",
"   c #B68617",
".  c #B88B16",
"X  c #B6861C",
"o  c #B9861A",
"O  c #B68A1A",
"+  c #BA8A1C",
"@  c #B88720",
"#  c #B78820",
"$  c #BA8921",
"%  c #DA8E26",
"&  c #DC8F2B",
"*  c #CC9E24",
"=  c #D69126",
"-  c #DB9226",
";  c #D09E25",
":  c #D6922D",
">  c #DC922B",
",  c #D09F28",
"<  c #DE8F32",
"1  c #D79131",
"2  c #DC9231",
"3  c #E09327",
"4  c #E1922D",
"5  c #CDA122",
"6  c #CFA129",
"7  c #D2A125",
"8  c #D2A129",
"9  c #EEA63E",
"0  c #E7A83F",
"q  c #ECAB3C",
"w  c #F0A43D",
"e  c #F0AB3E",
"r  c #E5B53D",
"t  c #EAB53D",
"y  c #E5B83D",
"u  c #EABB3D",
"i  c #F0BF3F",
"p  c #EEC13E",
"a  c #F1C33F",
"s  c #EEA640",
"d  c #E7AC47",
"f  c #EBAC43",
"g  c #E7AC48",
"h  c #ECAC48",
"j  c #F4A643",
"k  c #F2AA43",
"l  c #F8AA45",
"z  c #F6AC49",
"x  c #E4B543",
"c  c #E8B642",
"v  c #E5B943",
"b  c #ECBD43",
"n  c #E5B54A",
"m  c #E9B64D",
"M  c #E5B949",
"N  c #EAB84A",
"B  c #F4BE45",
"V  c #F9BD46",
"C  c #F6BE4A",
"Z  c #F9BD4A",
"A  c #F4BE52",
"S  c #F8BE50",
"D  c #EEC243",
"F  c #EDC34B",
"G  c #F2C246",
"H  c #F3C145",
"J  c #F4C144",
"K  c #F5C147",
"L  c #F4C046",
"P  c #F6C046",
"I  c #F7C147",
"U  c #F5C346",
"Y  c #F4C247",
"T  c #F6C346",
"R  c #F0C545",
"E  c #F2C544",
"W  c #F1C447",
"Q  c #F4C444",
"!  c #F6C544",
"~  c #F2C243",
"^  c #F8C246",
"/  c #FAC045",
"(  c #F5C946",
")  c #F1C049",
"_  c #F2C148",
"`  c #F3C148",
"'  c #F3C249",
"]  c #F5C149",
"[  c #F5C348",
"{  c #F4C249",
"}  c #F6C24A",
"|  c #F1C548",
" . c #F2C548",
".. c #F1C34C",
"X. c #F6C24C",
"o. c #F2C44C",
"O. c #F2C34A",
"+. c #F9C148",
"@. c #F8C14A",
"#. c #FCC149",
"$. c #F9C04C",
"%. c #FAC14D",
"&. c #FAC14B",
"*. c #F6C948",
"=. c #EEC350",
"-. c #EEC553",
";. c #EEC352",
":. c #F0C051",
">. c #F0C650",
",. c #F1C552",
"<. c #F9C254",
"1. c #F7C856",
"2. c #F4CB57",
"3. c #F4C854",
"4. c #FBCF56",
"5. c #FBCE57",
"6. c #FACC55",
"7. c #F5C758",
"8. c #FCC75F",
"9. c #FFC65F",
"0. c #FDC65C",
"q. c #F4CA5A",
"w. c #F5CC5A",
"e. c #F6CC5B",
"r. c #F8C859",
"t. c #FACA5C",
"y. c #FDC95C",
"u. c #FFC95C",
"i. c #FFC85F",
"p. c #F8CD5D",
"a. c #FACF5F",
"s. c #F8CC5F",
"d. c #F9CD5D",
"f. c #FCD055",
"g. c #F6D15F",
"h. c #FCC761",
"j. c #F7CA63",
"k. c #F5CC62",
"l. c #F1CC64",
"z. c #F6CD64",
"x. c #F7CE65",
"c. c #F4CD66",
"v. c #F7CC66",
"b. c #F5CE67",
"n. c #F5CD64",
"m. c #FDC860",
"M. c #F9CD60",
"N. c #FCCD63",
"B. c #FDC964",
"V. c #F9CC65",
"C. c #FECD64",
"Z. c #F9CD63",
"A. c #F5CD6A",
"S. c #F8CE6A",
"D. c #F7D165",
"F. c #FAD062",
"G. c #FBD063",
"H. c #F6D06A",
/* pixels */
": 2 > > 3 > % > > : & 3 & & 2 2 2 : - - 4 - & 4 & 3 > > > 4 & 4 & 3 > > > > : > & & < > > - - > : > > > > > : > > > 2 & 2 & 4 - ",
"> : > > 3 - > : > - > - > 4 2 < 2 : > > > - > > - - - > > : > > > > > : > > > > > > > 4 : - - - > > - > - - > - > > > 2 & & > 3 ",
"& & w l w e f q f q q q q q f d g g f f q f q q q q q q q q q q q q q q q q q q h f f q q q q q q q q q q q q q t q e s z 9 3 % ",
"> & l w e e Z Z } B B #.V %.y.8.B.B.m.0.C C C C I B / } C C C C Z C C C I C } } 0.h.S C C #.} C Z Z / #.Z C Z Z V Z q q j z & 3 ",
"4 4 w k q Z B I D I ! a i I 3.N.Z.A.j.a.A ....! G I I G B ~ ~ G I G ..I ~ V ~ G s.C.d.F D I B B B } I ~ I I b #.#.B B e 9 9 > & ",
"> & k k Z Z } G W D p a Q D ..a.Z.c.c.k.-.F D D G ~ ~ ~ ~ ~ ~ D G ~ ~ J ~ ~ ~ D F k.d.F F D G } ~ Q ~ p G ....D ~ ^ ^ B q f > > ",
"- - q Z Z X.C o.4.y y ~ ~ D W F k.l.c.c.q.F D W ~ ~ a a a a ~ ~ D ~ J a J ~ ~ D F w.F.w.| D ~ ~ ~ ~ p ( D F 4.r y D I B Z k > > ",
"- = q %.Z b F 1.x v y y p ~ D F k.c.H.D.k.F D D ~ ~ ~ B a a ~ a a D a J a a ~ D D F p.w.F ~ I a ~ a R p | 4.x x y y B V Z f > > ",
"> = q Z B D 4.y v O x r y ~ [ F -.l.c.S.s.a.D G ~ ~ a J V a ~ ~ ~ D a ~ V a J ~ ~ D e.D.d...~ ~ ~ a a ~ w.x M + x v r B V e > > ",
"> > f B I r y x x + n M t 5 B ..-.k.c.n.k.a.F D ~ J J J a ~ ~ ~ p ~ Q a a J a ~ p | F g.s.,.B a ~ i ! r y M n X x y y 7 Z q > & ",
"> - q #.B u r . # @ # X y 5 ~ W F p.c.c.k.k.F F G ~ ~ a ~ ~ ~ ~ p ~ ~ a ~ a ~ ~ D R F 2.Z.j.D W a ! a t c   X # O O v * V q > > ",
"> - q #.B y c x n @ m n y 7 p ~ D F a.Z.n.Z.p.F D ~ ~ ~ V ~ ~ ~ E a ~ Q ~ a ~ ~ R D D F Z.n.F D } G i t c n m # x v r 7 V q - > ",
"& 4 q B I ~ u r x + x x * D D D R F w.D.A.A.q.F D ~ a ~ ~ G ~ ~ D ~ E p E a ~ ~ D R D F a.k.g.F b G Q ~ y c d + M x 8 G V q - > ",
"4 4 q Z ! ~ D r c x x 8 | D W W D D -.k.A.A.D.g.F D D ~ ~ G ~ D E D a a a ~ G ~ D R D D F w.p.-.o.G ~ a B u v x v 5 G B V q > > ",
"> : q B D ~ D G ; , 7 D p ~ ~ ~ ~ R A n.A.A.H.D.R a a a G ~ ~ ~ W ~ a a ~ ~ ! G ~ a ! W F w.p.p.F D a a u ! , * * D ~ ~ #.q > : ",
"> > q Z ~ ~ ~ ~ } C W ( D p ~ ~ ~ D N A.A.A.l.l.F R a ~ ~ ~ ~ ~ ~ G a a ~ ~ G ~ a ~ I D G F D.k.F W ~ a a W F | | D ~ [ B q > > ",
"> : q C G ~ ~ ~ J ~ ~ ~ ~ a ~ a D ~ D F Z.l.A.c.g.D D W ~ I ~ D G ~ a ~ a J ~ J a ~ ~ W ....3.a.p.F F ~ a a G J Q J ~ B C q : 3 ",
"> - q C B ~ ~ ~ J J ~ ~ ~ D ~ ~ ~ D W o.d.Z.A.A.k.F D D ~ ~ B D G ~ B ~ J J a a ~ ~ ~ D G | >.w.p.;.D D ~ Q u Q J a a ~ ..q : 4 ",
"> - q C ~ ~ ~ a J a ~ ~ D ~ ~ ~ p D ~ D ,.M.l.l.D.w.F ~ Q J ~ ~ ~ ~ ~ J ~ ~ a J ~ ~ ~ ~ F ..| 1.D.e.F D R ~ ~ ~ Q a J B B q > 4 ",
"> > q Z B ~ ~ ~ a J ~ ~ ~ p ~ ~ ~ E ~ D F a.c.c.l.p...D a ~ ~ ~ ~ ~ ~ ~ ~ a ~ a Q a ~ G D G ..| p.g.D D ! u J ~ ~ ~ ~ a / q > & ",
"> > q C G ~ ~ a a J ~ ~ ~ a ~ ~ ~ ! a W N w.D.D.A.c.,.F ~ a J a ~ ~ ~ ~ ~ ~ ~ ~ ~ a ~ ~ D W D F w.F.p.D W ~ a ~ ~ a ~ ~ B q > > ",
"> : q C B D ~ ~ J J ~ a D D ~ ~ p ~ p W F >.e.l.A.Z.q.o.~ a Q Q a ~ ~ a ~ ~ V a ~ ~ ~ ~ ~ ~ D F -.w.w.F D D I ~ D ~ ~ i V q > > ",
"> - q C B ~ ~ a ~ a ~ ~ D a a ~ Q ~ ~ R D F w.D.c.c.k.,.D a a ~ ~ ~ ~ ~ ~ ~ ~ ~ ~ ~ ~ ~ ~ ~ ~ D ..e.M.e.D D [ G ~ D ~ V Z e > > ",
"> : q C ~ ~ ~ ~ J ~ a ~ D ~ ~ ~ J a D D R D -.l.A.A.D.q.D ~ a ~ a p ~ ~ G ~ G ~ ~ ~ Q a ~ ~ ~ I D F D.a.F R G J a D ~ B Z q > > ",
"> > q Z G ~ ~ ~ ~ ~ ~ ~ a ~ ~ ~ J a ~ ~ R D F g.l.H.n.M.o.D D ~ a ~ D a ~ ~ ~ W ~ ~ a ~ a ~ Q a D F p.M.w.| ~ ~ ~ p G G Z w > - ",
"> - q C B ~ ~ a ~ a ~ ~ D D ~ ~ a J ~ ~ ~ D F g.k.c.A.k.-.D J a E p ~ ~ W ~ ~ ~ ~ ~ J a a ~ a ~ D o.;.a.e.,.~ a p R G B Z q > > ",
": > q C ~ ~ ~ ~ J J B a a ~ ~ ~ a J ~ ~ ~ D D o.M.c.A.Z.p.F W ~ a a ~ ~ ~ G W ~ ~ a a J Q a ~ ~ G | F e.Z.j.D ~ R R ~ G Z q - > ",
"> > q C B ~ ~ a a a ~ ~ D ~ ~ a a J ~ a W W D D a.k.c.c.k.;.D ~ ~ ~ ~ ~ G ~ G ~ ~ ~ ~ a a ~ ~ ~ G b ..F Z.j.| D R D W G Z q > - ",
"> - q C G ~ ~ ~ J ~ ~ ~ ~ ~ ~ ~ J J ~ D ~ ~ ~ D F k.l.l.c.p.F ~ a ~ B a ~ ~ ~ ~ ~ ~ a ~ ~ ~ ~ ~ Q I D F k.j.f.| D G G ~ Z q - > ",
": > q } B ~ ~ a J a a ~ a D ~ ~ a ~ ~ D ~ G ~ ~ D p.l.A.A.Z.| D ~ a ~ ~ ~ G ~ ~ J ~ ~ a B ~ a ~ a ~ D | ;.p.w.F F G ~ ~ } q - > ",
"> > q Z G ~ ~ ~ J J a ~ ~ D a ~ ~ ~ ~ D ~ ~ a ~ ~ F l.H.A.l.F D ~ ~ ~ ~ G ~ ~ ~ ~ a ~ a a ~ ~ ~ ~ a [ o.F w.e.s...~ ~ ~ } q > - ",
"> - q C B ~ ~ a a J ~ ~ D ~ ~ ~ a ~ ~ W G ~ a ~ ~ D D.A.A.l.g.D ~ a ~ G ~ ~ J a ~ a ~ ~ ~ ~ ~ ~ a ~ ..D G F M.j.F ~ p D } q > > ",
"> - q C ~ ~ ~ ~ Q ~ a ~ D ~ ~ ~ ~ a ~ ~ D ~ D a D | e.S.A.l.D.F ~ ~ D G G B ~ a ~ ~ ~ D ~ a a ~ a J ~ W D R e.N.p.W D ! B q > > ",
"> : q C B ~ ~ a a ~ ~ ~ a ~ ~ a a ~ ~ ~ W D ~ ~ p G ,.Z.A.A.D.w.D a ~ G I ~ a ~ ~ ~ G D ~ ~ ~ a Q a ~ ~ ~ W >.d.a.F D B C q : 4 ",
"> : q C G ~ ~ ~ J Q ~ ~ D ~ ~ ~ ~ ~ ~ ~ G ~ ~ ~ ~ ~ N M.A.A.l.g.D D ~ G J J a J ~ ~ ~ D ~ ~ a Q ~ ~ ~ W W F o.1.a.e.....#.q > 3 ",
"> - q C B ~ ~ a J a ~ ~ a D ~ ~ ~ a ~ ~ ~ G ~ ~ ( D F e.Z.A.l.D.>.D W ~ a J a J ~ ~ D G ~ ~ ~ a Q ~ ~ ~ D D R o.e.a.D b } q 2 & ",
"> : q V B D ~ ~ ~ J a ~ ~ p ~ ~ ~ ~ a ~ ~ G ~ ~ a D | -.D.k.l.D.w.F W R a a J a ~ ~ B ~ ~ J ~ a a a ~ W G D D D w.N.a...C q : > ",
"> > q Z ~ ~ ~ a a J ~ ~ D ~ ~ ~ ~ ~ J a G ~ J ~ ~ ~ W F w.l.H.l.F.,.D ~ ~ a a J ~ ~ ~ ~ ~ ~ ~ ~ J ~ W D ~ D D D ..e.a.:.C 0 : 2 ",
"> > q } B ~ ~ ~ J a ~ ~ ~ D ~ ~ D ~ a ~ ~ B V ~ Q ~ ~ D >.D.l.c.k.e.| D ~ a Q a a ~ ~ G ~ G ~ a a Q ~ ~ D ~ D D o.e.Z.j...q > > ",
"> : q Z I a ~ a ~ J J a p ~ ~ ~ ~ ~ ~ a ~ ~ ~ ~ a ~ D D F a.c.A.n.M.F D ~ a J J ~ ~ ~ ~ G ~ ~ a J a J a ~ D E E D F Z.B.A k : > ",
"> - q C G ~ ~ a J a ~ ~ ~ ~ a ~ a ~ ~ a J a J J Q a ~ p F 2.c.l.A.k.,.D ~ D ~ ~ ~ ~ ~ ~ G G ~ B J a ~ ~ ~ ~ ~ ~ D D s.j.y.9 > : ",
"> : q } B ~ ~ ~ a J ~ ~ a D ~ ~ ~ ~ ~ a ~ J J ~ a J a ~ R >.F.l.S.A.e.F W D ! ~ a ~ a ~ ~ ~ ~ ~ J J a a G ~ G Q D | ,.m.h.h > - ",
"> : q Z B ~ ~ a a J ~ ~ D a ~ ~ ~ a ~ ~ ~ a ~ J B Q ~ p D F w.D.A.l.e.F D D ~ ~ a ~ ~ ~ ~ G ~ a ~ ~ a a ~ G ~ a ~ D F s.m.h : - ",
"> - q Z ~ ~ ~ ~ J J a ~ ~ D ~ ~ ~ ~ ~ ~ a a J ~ ~ ~ ( ~ D D -.D.A.A.k.e.F G G ~ ~ a ~ ~ ~ ~ ~ B ~ ~ a a G G ~ ~ ~ p F o.B.f > - ",
": > q C B ~ ~ a a J a ~ ~ p ~ ~ ~ J W ~ ~ E a ~ ~ ~ ~ p ~ W b q.l.H.c.M.F F ~ ~ ~ a ~ ~ ~ ~ ~ ~ ~ ~ ~ a ~ G J a E p W ..u.h - - ",
"> > q C G ~ ~ ~ J J ~ ~ D ~ ~ ~ a ~ ~ ~ ~ p ~ ~ G G B ~ ~ D o...l.D.l.M.-.o.b ~ a ~ ~ a a ~ ~ ~ ~ ~ ~ J ~ ~ J a p ~ ~ } S f : - ",
"> : q B B ~ ~ a Q a ~ a ~ D ~ ~ J Q W ~ a R a a ~ ! D ~ ~ ~ G F k.D.A.c.e.F D ~ Q a J ~ J ~ ~ ~ ~ ~ ~ ~ ~ ~ J a a a ~ G C q - 3 ",
"> > q I B ~ ~ ~ ~ ~ ~ E p ~ a ~ J a ~ ~ D a a E W ~ ~ ~ a ~ a ..g.l.A.k.S.A D G a J a Q ~ a ~ ~ ~ ~ G ~ ~ ~ J Q a p W B Z q > & ",
"> > q #.J Q ~ D W p Q a a ~ D ~ ~ a J J a J a ~ Q J a J a J a ~ F p.c.l.H.e.F D J a J a ~ G ~ ~ ~ ~ a D G G J a a a W G C q > > ",
"& > q / i a ~ D | ! a a a a D D ~ a a ~ a a ~ a a ~ a a ~ a J a | 6.c.A.A.D.F D a J a ~ D ~ ~ ~ J a ~ R ~ G ~ a a a | B S 0 = > ",
": > q V J ~ b ..1.x t J a ~ D R ~ D ~ ~ J D a ~ ~ D J ~ ~ ~ ~ ~ D o.l.D.A.A.;.D J a ~ ~ ~ D ~ ~ E p ( p | 6.r u ~ Q a G #.q - - ",
"> - q V J G ..6.b M r t I ~ G W D ~ D ~ ~ ~ ~ D ~ a D ~ D a D ~ D F l.A.H.l.e.F ~ ~ ~ ~ D ~ ~ a a R p R 6.v t x r ~ ~ B %.q - 3 ",
"& > q / V D p.M n o m t y #.G G G ~ G ~ ~ ~ G ~ ~ ~ G ~ G ~ G ~ ~ W w.l.A.A.c.-.D ~ W ~ J J J J ( p ~ f.y x X x r y I ..Z q 4 > ",
"> : e V V u x x n + d c r ; ~ ~ ~ ~ ~ G G G ~ J ~ W ~ ~ G ~ ~ a ~ W F D.n.n.n.7.D ~ W ~ a J a a a ~ y y M n $ g x y 6 C Z q > % ",
"> > q V B r y + X X . + t * G ~ ~ ~ a ~ ~ ~ ~ a ~ ~ ~ ~ ~ ~ ~ B ~ ~ b M.n.S.S.Z.F D ~ ~ J a a J G J r t o X @ @ X M * o.C h > > ",
"> > e V J y y x n . x x v 5 D ~ a ~ B ~ ~ ~ ~ ~ ~ ~ a ~ ~ ~ ~ a J ~ | ;.k.n.A.c.-.D ~ a a J a ~ I ~ t y x x X n x r 5 B C q 2 : ",
"2 > w Z I B y y x O x r 5 R D p ~ ~ a a J a a ~ ~ a a ~ a ~ ~ ~ a ~ p F p.c.l.S.M.F D a a a ~ ~ J a a y r x   M v 5 ~ ! V q > : ",
"< > e Z B C B y y v v 6 F D p E ~ a ~ ~ ~ ~ ~ ~ ~ ~ ~ ~ ~ a ~ ~ ~ ~ ~ W w.D.A.A.k.;.D p a ~ G G ~ ~ J a t y b x 5 W a #.B e > : ",
"> > e q B / } G 8 * 8 F G | W ~ G ~ ~ ~ ~ ~ ~ ~ ~ ~ G ~ ~ ~ G ~ D G D D -.e.Z.n.Z.e.D a ~ a D D ~ ~ p p G * * * G ~ i V w q > : ",
"& 2 e q f B B V } B } B C G G ! G G B I I G B G G I B G B G G B } ..~ ~ C e.Z.B.C.j.| ~ Q I X.o.G W ! I } } X.} B #.Z w e j 2 > ",
"> & z q q q Z Z Z #.Z V Z C #.X.Z Z Z C Z Z Z Z Z C Z Z Z Z Z Z } C C Z C <.s.h.m.m.%.B Z B C C C F B Z Z Z C Z Z V 9 j l j 4 & ",
"> > 9 z q k k 9 q q q q q q q q q q q q q q q q q q q q q q q q q q q e f 0 f d d g f q e q q q q q q q q q f f q e 9 l j j & > ",
"4 > & % 4 > > > > - > : : > = > > > > > > > > > > > > - > > > > : - & > - - : : 2 1 2 > - 3 - > > - > > 4 > > = = > > < 4 > - - ",
"- > & > > 2 > : > > - - > : > & 4 & 3 & 3 > & & 4 3 & > 4 3 > > > > 4 & 3 - > : 2 & < & 3 - : > - 4 % - > > > = - - > & > - - - "
};
