/* XPM */
static char *d46fa4ab88db4b4fa3d0198d458ab0875on0QH8mOyfdiKNM[] = {
/* columns rows colors chars-per-pixel */
"64 64 239 2 ",
"   c #7A133C",
".  c #751135",
"X  c #7A393D",
"o  c #771B49",
"O  c #6E134D",
"+  c #7C304A",
"@  c #5D317B",
"#  c #772867",
"$  c #6C2B74",
"%  c #672D79",
"&  c #712B74",
"*  c #633279",
"=  c #6F286A",
"-  c #5F1351",
";  c #7E547A",
":  c #980415",
">  c #901113",
",  c #A70306",
"<  c #B40001",
"1  c #BC0101",
"2  c #B6070C",
"3  c #BC120D",
"4  c #A70A1A",
"5  c #B60719",
"6  c #AB1A1B",
"7  c #A91819",
"8  c #BD1313",
"9  c #B41517",
"0  c #972A1D",
"q  c #B82705",
"w  c #A92A1C",
"e  c #B92318",
"r  c #A12B0F",
"t  c #9B0B25",
"y  c #951733",
"u  c #8F112E",
"i  c #A20B24",
"p  c #BD0E24",
"a  c #BB0E29",
"s  c #A7152A",
"d  c #B6142A",
"f  c #A51838",
"g  c #B51133",
"h  c #8F2D32",
"j  c #A92927",
"k  c #B72521",
"l  c #BA3A38",
"z  c #C30102",
"x  c #CB0102",
"c  c #CC0B0B",
"v  c #C60A0A",
"b  c #D40605",
"n  c #DC0303",
"m  c #D30A06",
"M  c #D5060A",
"N  c #DC0509",
"B  c #D30A0B",
"V  c #D90A0B",
"C  c #DC0805",
"Z  c #C6140D",
"A  c #D9110C",
"S  c #C60C15",
"D  c #D60713",
"F  c #C51615",
"G  c #D91312",
"H  c #E40102",
"J  c #E90101",
"K  c #E10509",
"L  c #E50A08",
"P  c #E90B0B",
"I  c #C42401",
"U  c #C20D24",
"Y  c #C01426",
"T  c #DD2D2C",
"R  c #D82D29",
"E  c #CB3D28",
"W  c #D4342B",
"Q  c #DD312D",
"!  c #D03529",
"~  c #DD2E31",
"^  c #D63336",
"/  c #CD3339",
"(  c #E32D2D",
")  c #EB2A2A",
"_  c #E92727",
"`  c #F12628",
"'  c #E2312D",
"]  c #E9302D",
"[  c #E32C31",
"{  c #E92C30",
"}  c #E23133",
"|  c #F3231F",
" . c #954D3B",
".. c #B4492E",
"X. c #F77318",
"o. c #EC7B0D",
"O. c #C34324",
"+. c #FE6B29",
"@. c #FB6B34",
"#. c #F27529",
"$. c #9B1B45",
"%. c #8C1A4D",
"&. c #8A2653",
"*. c #BA3A57",
"=. c #B53C49",
"-. c #873B7A",
";. c #923269",
":. c #A93869",
">. c #A11842",
",. c #C83544",
"<. c #925149",
"1. c #AE4A52",
"2. c #904D71",
"3. c #A74A6D",
"4. c #A76B6B",
"5. c #FF6449",
"6. c #D27C4B",
"7. c #BB953C",
"8. c #E78100",
"9. c #E4A138",
"0. c #FFCC1B",
"q. c #FFD317",
"w. c #FFC626",
"e. c #FBD423",
"r. c #FCCC38",
"t. c #FFE23D",
"y. c #BD9541",
"u. c #C19742",
"i. c #D6B16F",
"p. c #FFDD5B",
"a. c #F9CB55",
"s. c #FFE44D",
"d. c #FFDD64",
"f. c #342A85",
"g. c #34278A",
"h. c #352A8A",
"j. c #392B8C",
"k. c #352787",
"l. c #372B92",
"z. c #3F369A",
"x. c #3E399B",
"c. c #3F3696",
"v. c #3E39A0",
"b. c #4C348D",
"n. c #563387",
"m. c #423696",
"M. c #4B3694",
"N. c #443996",
"B. c #42369B",
"V. c #43399C",
"C. c #493A9C",
"Z. c #4A3898",
"A. c #543495",
"S. c #773D8A",
"D. c #6E3688",
"F. c #453AA1",
"G. c #493CA1",
"H. c #4337A0",
"J. c #69449A",
"K. c #72438F",
"L. c #5246AB",
"P. c #554AAD",
"I. c #5A4BAD",
"U. c #5848A6",
"Y. c #5447B1",
"T. c #554AB2",
"R. c #594CB3",
"E. c #5749B6",
"W. c #524AB0",
"Q. c #6646A2",
"!. c #796FCE",
"~. c #7D71CD",
"^. c #7A6FD3",
"/. c #7D72D3",
"(. c #7C71D5",
"). c #823980",
"_. c #B65C9A",
"`. c #B26594",
"'. c #9769B6",
"]. c #9C68A8",
"[. c #A765A8",
"{. c #A268B2",
"}. c #81418B",
"|. c #C7598C",
" X c #F47D9D",
".X c #876EC7",
"XX c #8472CC",
"oX c #8074D5",
"OX c #8175D9",
"+X c #936DC4",
"@X c #BB92B6",
"#X c #FE9693",
"$X c #FF8F90",
"%X c #E9A49F",
"&X c #DA85B8",
"*X c #DD83AA",
"=X c #C2B2B2",
"-X c #D2ACA7",
";X c #E29DA3",
":X c #B991DB",
">X c #BA90D1",
",X c #9F95ED",
"<X c #9E94F3",
"1X c #9F98F5",
"2X c #A196EE",
"3X c #A399ED",
"4X c #A697E8",
"5X c #A196F4",
"6X c #A399F4",
"7X c #A499F9",
"8X c #A496F9",
"9X c #B791E3",
"0X c #C988C9",
"qX c #C68BD1",
"wX c #D487C4",
"eX c #FFB6D4",
"rX c #FFC8C9",
"tX c #FFD2CF",
"yX c #FFDCDB",
"uX c #FFD2D4",
"iX c #FFCDD4",
"pX c #FFE2DE",
"aX c #FFEFDD",
"sX c #FFFADB",
"dX c #FFF7CA",
"fX c #D3CCFF",
"gX c #F5CEED",
"hX c #FFE4E4",
"jX c #FFECE5",
"kX c #FFEDEC",
"lX c #FFE6E9",
"zX c #FFF2ED",
"xX c #FFF9EC",
"cX c #FFFFE1",
"vX c #FFEDF1",
"bX c #FFF5F4",
"nX c #FFF9F4",
"mX c #FEFDFC",
"MX c #FFF6FA",
/* pixels */
"f.f.j.f.f.j.l.g.g.h.f.l.f.j.g.h.f.h.h.f.f.h.f.h.h.f.g.l.g.f.f.f.j.f.j.j.f.j.k.j.j.g.f.f.f.g.j.h.h.f.h.j.h.h.h.h.h.f.j.f.h.f.h.f.",
"f.f.f.V.V.B.V.V.V.x.V.x.V.V.V.V.x.N.N.B.C.V.B.V.c.V.N.V.V.B.N.V.B.G.x.x.N.C.Z.V.m.V.V.N.N.N.N.x.V.V.V.V.N.N.V.V.x.c.V.V.V.j.f.h.",
"f.f.N.m.V.x.V.F.P.R.P.P.I.P.P./.^.oXoX(.L.R.T.T.Y.P.7X5X8XY.T.W.P.W.W.W.I.E.R.T.R.P.P.R.1X,X1XP.I.P.P.P.P.P.P.P.P.T.P.P.P.V.l.h.",
"f.C.V.V.V.V.H.H.T.P.P.P.R.P.L.R.L./././.(.P.T.T.R.U.I.5X7X1XT.E.T.T.W.W.E.E.T.T.P.I.L.1X1X6XW.P.P.G.V.V.V.B.V.V.x.P.P.P.I.P.V.g.",
"j.m.V.V.V.G.H.L.L.T.T.T.T.T.T.P.R.L.oX/././.T.T.L.R.P.P.P.1XW.W.T.E.T.P.Y.E.Y.^.L.U.1X7X1Xx.B.B.B.z.z.V.F.V.V.V.H.H.G.P.P.P.N.f.",
"f.V.V.V.B.V.T.T.T.T.P.T.V.B.H.B.V.L.P./.~.!.P.Q.J.K.K.K.:X:X9XQ.Q.J.J.J.J.XX(.1X7X6X6X<Xx.V.F.V.F.V.V.V.V.V.V.V.V.B.z.H.V.P.V.j.",
"j.B.x.V.H.T.T.T.T.T.T.V.H.B.V.F.H.G.V.P./.XX+XS.).;.u t u     o O %.%.;.].'.5X<X<X<XB.G.B.B.F.V.B.V.V.V.V.x.B.V.H.H.x.F.V.P.V.j.",
"l.B.B.P.T.T.T.T.T.B.H.G.z.V.F.H.V.V.V.V.I.J.[.o %.u 4 4 u eXrX*X&X;.t t o &XqX9X3XB.B.V.B.C.V.B.H.H.V.V.V.V.H.V.V.H.V.V.V.P.B.g.",
"f.V.P.P.T.T.L.T.H.V.B.V.V.V.H.H.V.V.B.V.x.'.y 4 : : u *X&XfXiX=XqX`.> , 4 t u &Xn.N.x.N.C.m.V.V.V.V.V.V.V.x.V.V.V.V.V.x.V.P.V.h.",
"h.V.P.T.P.T.T.F.H.V.V.V.V.V.V.V.V.V.B.V.V.].i < , , . &X>X>X@X; ; `.> , 2 < 5 u @ V.V.c.V.B.V.F.V.V.V.V.V.V.V.B.V.V.V.V.V.P.V.h.",
"h.V.P.P.T.T.T.z.V.V.V.x.V.V.V.V.F.x.V.V.~.[.t z z 2 >  X X&X4.1.1.1., , z z 1 t * B.B.L.V.x.H.z.x.V.x.N.N.V.V.V.V.V.V.V.N.P.N.h.",
"h.B.T.P.T.P.G.B.V.V.V.V.V.H.V.x.x.F.x.x.~.{.i z z 1 2 t   - . 0 > 0 , < 1 x x i % V.B.z.V.v.V.F.V.V.V.V.N.V.B.B.x.V.H.V.V.P.V.h.",
"h.V.T.T.T.P.z.H.V.B.V.V.V.V.V.V.B.V.x.x.OX].i z z v 2 i 0X].4.<.<.<.> , z z z t * m.F.B.H.F.x.x.x.V.V.V.V.B.V.V.V.V.V.V.V.P.N.f.",
"j.F.L.T.T.T.F.B.V.V.V.V.B.B.V.V.V.B.V.V.^.{.i z z z x 4 ;.`.<. .<.&., , 1 z z s % V.F.V.H.B.F.B.H.V.V.V.V.V.V.V.V.V.V.V.V.P.B.j.",
"j.V.P.T.T.T.H.x.V.V.V.V.V.V.V.V.B.N.N.~.XX[.i x z x z 2 ,.=.........! ] z z x t % B.V.B.F.B.V.V.V.H.V.x.x.V.V.V.H.H.V.V.V.T.B.h.",
"g.B.R.T.T.R.z.G.V.x.x.V.x.V.V.B.V.N..X+X]._.4 z x z x z ' Q E O...O.W ] 1 z z 4 &X@ n.b.C.F.V.V.V.V.H.V.V.V.V.V.V.V.V.V.V.P.V.f.",
"h.B.W.W.R.T.F.V.V.V.x.x.F.V.B.V.N.M.'.[.:.,.2 z z x z z ( Q ! O.E ! Q T 1 1 z 2 ,.*.# D.A.H.B.V.V.V.V.V.V.V.V.z.V.B.V.c.T.P.N.f.",
"h.B.R.E.W.E.G.B.v.x.x.x.F.V.V.Z.M.'._.3./ ( [ { z z z z ( T R ! W W Q ' 1 1 ] ( [ ^ *.3.% b.C.V.B.B.V.N.B.V.x.G.B.V.B.G.P.P.N.j.",
"k.N.T.T.Y.E.H.G.V.x.z.B.V.B.B.b.'.`.*.,.Q Q ~ ( [ { 1 1 ' T Q ' ' ' ( T ' ( ( [ [ ~ / ,.3.% b.N.x.G.c.V.V.x.V.H.V.F.V.H.T.T.G.h.",
"k.V.T.R.L.E.B.Z.V.G.V.B.B.C.N..X[.&.=.^ Q Q ( ( [ ( ( ( T T ' R [ T ( ( T ' ( [ [ [ Q ^ *.o n.B.N.V.V.V.G.x.G.V.H.H.F.z.(.(.x.l.",
"h.V.P.T.Y.R.Z.Z.m.m.B.Z.m.M.OX'.|.f =.=.! ( ( [ [ ( } Q R ~ T ' ( } T T Q T T T ~ ~ T T ~ f :XB.V.B.V.V.H.V.x.H.V.B.V.P.(.^.B.g.",
"h.V.7X1X8X5X2X,X6X5X6X5X8X5X(.'.f s hXyX/ ( ( ( ( ' ( } ~ ~ ( ( T T } ~ ( ( _ ' [ [ ( ` ` d qX<XV.B.V.B.V.V.V.G.V.V.P.P.6X6XC.f.",
"h.N.6X,X,X,X4X4X2X2X6X5X2X5X(.].f s hXyXW _ ` ( Q R ( ~ ~ ~ [ [ ( ( [ { _ _ ` ` ) _ | | H p qX6X6X6XV.L.P.P.P.P.P.P.~.<X5X6Xm.f.",
"g.V.U.1X6X,XfXfX2X5X4X2X/.XX(.{.f tXyX0 Z V N ` _ ) ) ) ) ( ` ) ) ) { ` M V n N n N n n H p & 2X6X6X<X6X7X<X1X6X<X7X5X6X5X5XN.f.",
"f.V.XXXX<X2XfXfX3X,X,X~.N.V./.'.f iXtX3 C H J K N N n n C C n K N N n H H H K H H J H K J U 0XfXfX3X,X3X6X,X<X1X<X7X6X<XP.P.V.f.",
"f.V.XX~.6X,X4X,X3X1XI.N.B.m.V.].y v Z x H H H K N M N H H H J J J H J H b D M C J J J J H a 0X4X3X,X3XU.~.~./././.L.P.T.P.I.F.f.",
"h.V.~.~.<X6X,X2XP.T.R.W.T.V.Z.% y v B K H H B S 9 9 S c n J H H H J H V 8 7 7 8 C J J H H d 0X4X,X~.~.~.~./.(.(.(.T.T.P.R.T.B.j.",
"h.C.~.~.7X<X7XP.R.W.W.W.Y.I.U.S.s rXn H J N 3 uXyXhXyX7 c m m m b x c 8 yXhXhXyXx J J H H p wX.X~.~.!././.P.P.T.P.T.T.T.L.T.B.l.",
"h.Z./.P.,X<X8XE.R.W.W.W.W.W.Q.2.f rXC J J C 6 hXbXbXbXkX0 7 7 7 7 7 h lXkXxXnXjXZ H H J H U 2.J.U.I.T.P.T.T.T.E.Y.T.Y.T.T.P.C.g.",
"j.Z.P.P.1X<XR.T.R.R.W.W.W.R.Q.- s Z m C H c 6 lXbXmXmXnXhXyXyXhXhXhXvXMXbXnXmXzX3 L n K K 5 O K.U.P.R.R.T.T.T.Y.T.T.T.P.P.P.V.g.",
"g.V.I.P.W.P.R.R.T.P.R.W.R.I.J.- k G c B B 3 0 jXnXmXmXMX&.hXkXX kXvXMXMXmXmXmXbX9 B m m B d O J.U.T.W.P.R.T.T.T.T.T.T.T.P.R.B.f.",
"l.B.x.B.P.T.P.T.T.P.P.W.T.P.J.-.s c G G G F j hXbXmXnXbXaXh lXkXjX+ MXmXmXmXmXvXe A A A m d # n.Z.x.F.x.H.B.T.T.T.T.T.T.P.P.B.j.",
"f.N.B.x.V.T.T.T.I.P.P.T.T.T.U.}.s v n H n c 6 #X-X=X<.<./ E $Xl #X<.-X=X=X=X=X%XS H n H n a & Z.B.V.V.V.V.V.B.x.V.V.H.H.L.L.N.g.",
"j.V.x.H.z.F.T.W.L.I.I.T.T.T.E.K.f rXn J J m 9 hXkXbXkXhXe F 8 e e j zXnXnXmXMXhXZ J J H J a $ V.B.V.B.N.V.V.V.N.V.V.H.V.L.L.V.g.",
"g.G.z.H.v.G.T.W.T.P.W.E.T.E.W.S.d n H H J C 6 hXbXmXMXkXj I I 5.F j xXmXmXmXmXkX3 J J J H p $ H.V.V.V.V.V.V.H.x.V.V.V.x.B.C.V.f.",
"l.H.H.G.H.v.H.x.V.B.E.W.W.E.R.K.d n K H J m s hXbXmXmXkXj 5.I @.Z k zXmXmXmXmXzXS H J J J p $ H.V.V.B.V.B.V.V.V.V.F.H.F.B.B.V.g.",
"g.Z.B.B.H.H.G.V.N.V.F.T.W.W.P.K.y rXm J H B 6 hXbXMXMXkXw I +.+.I w jXnXmXnXmXzX8 J J H J p $ V.V.V.V.V.V.V.V.V.B.F.H.F.V.V.V.f.",
"k.C.N.5X1XH.V.V.B.V.v.v.W.P.T.K.&.tXm H J B 6 hXbXmXzXh e I X.X.@.q h kXbXMXmXkX8 J J J J U $ V.V.H.V.V.V.V.V.V.B.F.B.V.V.V.V.f.",
"f.N.M.6X1XF.x.V.V.V.F.v.x.x.c.K.h tXB J H M 6 lXbXnXaXw 3 X.o.w.X.q e j kXbXmXvX8 J J J H p $ V.V.B.V.H.V.H.V.V.H.H.B.B.V.V.V.f.",
"h.N.N.,X1Xx.v.V.V.V.H.H.F.c.N.* h tXM J H M 6 hXbXnX0 q @.o.w.0.8.X.I w h bXmXvXS J J J H p = B.V.H.V.V.V.x.V.V.H.V.V.V.B.V.B.j.",
"f.V.Z.6X5Xm.V.B.N.B.x.v.F.V.@ = y iXn H H B 7 hXbXxX0 q X.8.0.q.w.8.X.@.0 jXnXkX8 H H H H S # n.Z.V.V.B.V.V.V.V.F.B.H.H.V.V.V.f.",
"j.C.V.6X8XZ.N.B.Z.m.H.H.H.Z.@ O s S N H H B 7 hXbXzXw @.o.w.0.q.e.w.8.8.6.aXnXjX3 n J H H U O * M.V.V.V.V.B.x.V.B.F.B.V.V.T.B.h.",
"j.V.<X1X3X6XV.N.C.V.F.H.G.b.$ . i A b H H m 7 hXmXxXr #.w.q.e.t.s.r.e.a.6.dXxXjXZ H J n C 9 . $ b.Z.N.C.x.V.V.x.H.V.F.H.P.P.V.f.",
"g.x.1X,X2X6Xc.x.B.V.V.B.V.M.*   Y P C n n v 6 hXnXnX0 #.r.e.s.s.s.s.e.r.7.sXxXkX8 H H n V U   >Xb.V.V.V.V.V.V.V.z.H.B.T.P.T.V.h.",
"f.N.3X3X3X5XB.x.B.V.C.V.z.x.N.= Y n G A G F j hXkXbXjXdXa.s.p.d.d.p.r.a.dXxXxXjXe G A V N Y wX9X6X5XZ.m.B.B.V.V.F.H.P.T.T.P.V.h.",
"j.c.3X2X2X,X1Xx.z.G.m.B.V.x.V.* d B B B m Z 9 #X%X-X=X-Xi.y.u.y.u.u.7.i.-X-X%X#X8 c B V H U 0X8X8X5X6X6X<X7XB.B.P.P.T.T.P.P.V.f.",
"f.V.6X2X2X6X6X6XV.v.V.C.V.N.V.@ y uXc H H n b 3 uXjXnXnXxXxXsXsXcXcXsXsXaXyX9 v M H n n H p $ m.<X8X5X6X<X1XV.P.T.T.Y.T.T.P.F.j.",
"h.B.6X5X5X2X3X3X1XB.V.V.M.Z.B.@ &.iXB H J J H C 9 0 jXkXvXbXbXnXMXbXzXhXw 8 b J J H J H N d $ V.V.B.<X<X6X1X6XP.P.P.T.T.P.T.x.g.",
"f.N.6X3X5X2X,X5X<X6X6XV.Z.B.V.n.$.U D J J J J n m c S 9 7 yXhXhXlXyX9 Z c N H J J J H N D f {.M.B.G.m.6X3XfXfXU.P.P.T.E.R.P.B.f.",
"k.Z.N.6X,X5X6X5X<X6X8XN.B.V.c.D.:.a D J J J H H H H H C B v 7 6 6 8 b J H J J J J H J D a |.'.P.R.L.T.I.,X4X3X,XP.P.T.T.L.I.V.f.",
"f.N.N.V.6X6X6X6X6X<Xm.V.V.B.L.Q.).$.D J J J J J H J J H H n V b m b H J H J J J H J H D $.[.+X(.Y.E.Y.T.P.2X<X6X6XP.I.T.R.L.V.j.",
"g.C.~.oX<X<X<X6X5XB.B.B.V.P.R.U.9X&Xf S n H J J H H J J J J J J J J J J H n H K L n K U _.+XXX(.R.T.R.Y.P.P.5X<X6X<X5X<X6X8XV.g.",
"g.V.(.5X5X8X6XB.V.V.B.N.V.P.P.U.4X:XwX$.U V b V V K H J J J H H J J J J H K b B m c S f K.XXoX(./.L.I.P.R.P.I.5X5X5X<X6X8X<XB.l.",
"f.V.1X6X5X6XN.N.V.N.N.V.(.oX/././..X'.|., z z z z z K H H H n N K n K n n z 1 1 1 < t ;.S.I.^.(.~.~.P.I.P.P.6X6XL.P.L.I.P.I.H.l.",
"h.V.5X6XB.m.C./.~.~./././.~./.~.^..X'.|.5 x x x x x 1 1 1 1 1 < 1 1 < z 1 x x x x a &.Q.I.Y.T.~.oX~.~.~.~.5X5X/.OXL.R.I.P.P.V.f.",
"h.B.6XN.B.V.~.~.~./././.(./.(./.XX.X].# d c n N n V z z z z z 1 z z z z x M C N D g & A.R.Y.I.P./.~.~.oX3X5X5X~.(.(.(.(.P.I.B.f.",
"f.N.m.m.N.!.oX/.N.V.L.P.P.P.T.P.I..X{.# $.p N H H n C K n K n K n n K K H H H N D >.&.n.M.H.P./.(.R.P.5X2X5XP.I.E.Y.T.(././.m.f.",
"j.N.V.Z.!.oXB.B.P.T.T.T.T.P.T.P.P.XX'.[._.%.g U p a p a U p p p p U a a U U U g >.&.D.n.A.B./.(.P.E.7X<XI.I.P.P.Y.R.Y.I.(.oXb.f.",
"f.V././.oXB.V.R.R.T.T.T.T.T.T.T.T.N..X.X+X'.% % & & 0X0X0X$ & $ $ $ $ $ & & $ $ * n.b.C.l.(.(.^.R.L.5X7XL.P.T.Y.R.Y.E.E.P./.N.f.",
"f.N.(./.P.I.Y.T.T.T.T.T.E.T.T.T.T.B./.oX!.OXH.H.H.B.5X5X5XC.V.m.N.x.V.B.B.V.B.B.x.x.V.V.^.(.^.T.T.5X5X<XI.E.E.E.Y.R.Y.R.T.T.N.f.",
"f.V.OXI.P.P.R.T.T.T.T.T.T.T.T.T.P.V.N./././.V.V.V.V.6X6X8X5XZ.B.V.V.V.V.V.V.N.N.N.V.V././.N.V.U.6X5X5XP.P.L.T.T.P.R.P.T.Y.Y.G.g.",
"l.f.m.P.P.P.P.P.T.T.T.T.T.T.P.P.P.V.V.oX~./.N.x.c.N.<X,X5X6XB.B.H.H.B.V.V.V.c.N.B.V.N.~./.Z.I.5X6X5X<XU.I.R.E.T.R.P.R.P.T.F.j.g.",
"f.k.j.V.V.B.V.V.x.V.V.V.V.V.B.N.V.N.C.B.V.V.N.V.V.V.V.Z.Z.N.F.x.B.V.Z.V.V.C.V.N.B.B.V.x.V.B.N.M.N.N.N.N.B.B.V.B.m.N.B.V.B.f.k.f.",
"f.f.f.f.g.h.g.h.h.h.h.h.h.h.f.f.f.f.g.h.j.f.f.f.f.f.k.k.k.k.l.l.f.f.g.g.l.h.j.f.j.j.j.g.h.h.f.k.f.j.f.f.f.l.g.l.f.f.g.f.j.f.f.f."
};
