/* XPM */
static char *d7850720890d447fa5faf08c2be9ca24xuwJ6OfosRxTjhel[] = {
/* columns rows colors chars-per-pixel */
"64 64 239 2 ",
"   c #3B743D",
".  c #3C793D",
"X  c #586D28",
"o  c #4B6C3B",
"O  c #526D35",
"+  c #40743F",
"@  c #586A1D",
"#  c #332C7B",
"$  c #3D3E7D",
"%  c #3C3E77",
"&  c #2D2D76",
"*  c #413E7E",
"=  c #3E6D46",
"-  c #3D7442",
";  c #3B7449",
":  c #3E6C55",
">  c #3B7557",
",  c #3E417D",
"<  c #384571",
"1  c #3B486B",
"2  c #3D6B68",
"3  c #3A746A",
"4  c #3D6D79",
"5  c #3B7476",
"6  c #595F59",
"7  c #456E45",
"8  c #496D45",
"9  c #456E4A",
"0  c #496E4A",
"q  c #476646",
"w  c #427244",
"e  c #45714A",
"r  c #49714B",
"t  c #487346",
"y  c #436D54",
"u  c #4B6C52",
"i  c #4B655E",
"p  c #436C5A",
"a  c #49685C",
"s  c #556557",
"d  c #467055",
"f  c #506D46",
"g  c #41417D",
"h  c #5A5C6A",
"j  c #685967",
"k  c #625974",
"l  c #4B6663",
"z  c #436C63",
"x  c #4B6963",
"c  c #4C656A",
"v  c #466967",
"b  c #526665",
"n  c #427266",
"m  c #476975",
"M  c #4A6D74",
"N  c #6A7979",
"B  c #538C7B",
"V  c #6D8164",
"C  c #68837B",
"Z  c #728267",
"A  c #6DBC74",
"S  c #6EBC7B",
"D  c #73BB75",
"F  c #75B67B",
"G  c #7AB67D",
"H  c #74BB7B",
"J  c #79BA7C",
"K  c #75B676",
"L  c #6EBE6F",
"P  c #70855F",
"I  c #70C174",
"U  c #AAAE6A",
"Y  c #D3DA7B",
"T  c #CED87B",
"R  c #E4E67C",
"E  c #FBF67C",
"W  c #342A85",
"Q  c #35268A",
"!  c #352A8B",
"~  c #392B8B",
"^  c #382886",
"/  c #3E3E81",
"(  c #332A8D",
")  c #423E82",
"_  c #4C398C",
"`  c #3E4181",
"'  c #3F438A",
"]  c #3D6D83",
"[  c #3D6A8B",
"{  c #3E6783",
"}  c #3D6C8E",
"|  c #414182",
" . c #404388",
".. c #426C84",
"X. c #426B8D",
"o. c #466985",
"O. c #427085",
"+. c #5A7A8B",
"@. c #416C93",
"#. c #5B7D94",
"$. c #557C9C",
"%. c #5A7D9B",
"&. c #557B96",
"*. c #4E799B",
"=. c #677A8A",
"-. c #637B96",
";. c #707883",
":. c #557DA3",
">. c #5A7DA4",
",. c #6D5380",
"<. c #A87CA5",
"1. c #B17AAE",
"2. c #9F7FB0",
"3. c #5D838D",
"4. c #578687",
"5. c #558394",
"6. c #5C8294",
"7. c #55839C",
"8. c #5B839C",
"9. c #548A95",
"0. c #4D898D",
"q. c #638283",
"w. c #64818B",
"e. c #618396",
"r. c #79999B",
"t. c #7D9B8F",
"y. c #75BA82",
"u. c #78B786",
"i. c #6AA498",
"p. c #73B598",
"a. c #6EB88E",
"s. c #5683A3",
"d. c #5A82A2",
"f. c #5782A9",
"g. c #6C9CA9",
"h. c #729BAC",
"j. c #7699A7",
"k. c #6D99B5",
"l. c #7399B6",
"z. c #6083A1",
"x. c #74ABA7",
"c. c #7CA6C7",
"v. c #6E98C0",
"b. c #938C94",
"n. c #99AB99",
"m. c #84B094",
"M. c #A585A2",
"N. c #86ABA9",
"B. c #96A9AA",
"V. c #8DAABD",
"C. c #86A9B8",
"Z. c #95A9B4",
"A. c #93AABC",
"S. c #96A7B6",
"D. c #84B0B2",
"F. c #9A9CA6",
"G. c #8CDD8E",
"H. c #86DD8F",
"J. c #91DD8F",
"K. c #8DDD93",
"L. c #8DDC9A",
"P. c #8CD79A",
"I. c #92DC94",
"U. c #93DB9A",
"Y. c #94D79C",
"T. c #8DE093",
"R. c #8FE19C",
"E. c #92E196",
"W. c #8CD7A5",
"Q. c #93D9A6",
"!. c #92D5B4",
"~. c #95D7B1",
"^. c #8FD8B3",
"/. c #B6FFBB",
"(. c #BAFFBC",
"). c #B6FFB6",
"_. c #A7DEA0",
"`. c #CADA88",
"'. c #D3DA83",
"]. c #C6D997",
"[. c #FAF685",
"{. c #F5F59A",
"}. c #EEF292",
"|. c #ECF5AA",
" X c #F3F4A6",
".X c #E8F5BA",
"XX c #F9F9BA",
"oX c #C1D4B8",
"OX c #85ABC5",
"+X c #8BABC4",
"@X c #85ABCB",
"#X c #8AACCB",
"$X c #85A6C5",
"%X c #91ABC3",
"&X c #89B0CC",
"*X c #85ADD1",
"=X c #89ADD1",
"-X c #D294CE",
";X c #FEBEFD",
":X c #FEBDF7",
">X c #9DC7DA",
",X c #94D1C4",
"<X c #A6CBDC",
"1X c #AFD0DD",
"2X c #BBFFC2",
"3X c #B9FDCC",
"4X c #BDFCD6",
"5X c #ACCCE5",
"6X c #A5CDED",
"7X c #ACCDEA",
"8X c #A7CBE4",
"9X c #B1CCE5",
"0X c #B1CDEB",
"qX c #ACD1E8",
"wX c #B3D2EA",
"eX c #B3D4E6",
"rX c #A7CDF2",
"tX c #AFD2F2",
"yX c #BBF6EB",
"uX c #9EC9E8",
"iX c #D2F7CF",
"pX c #E6F5C7",
"aX c #E8F9D7",
"sX c #F6F8CD",
"dX c #C9DAE6",
"fX c #FFC1FA",
"gX c #D4EDFF",
"hX c #DCEEFD",
"jX c #DFEDF6",
"kX c #C3F1FF",
"lX c #D4F1FF",
"zX c #DCF1FE",
"xX c #DFF7FB",
"cX c #D0F3F0",
"vX c #E5EDF6",
"bX c #EBFAFF",
"nX c #E5F5FC",
"mX c #EBF7EC",
"MX c #CDDAD3",
/* pixels */
"^ ^ ^ W ! ! ! ! ! ~ ! ! ! W ! ! ( ! ~ ~ ^ ~ ~ ! ! ! ! ~ ~ Q ~ ~ ! Q ! ~ W ! W ! ! ( Q ~ ~ Q ~ ! Q ! W ~ ! ~ ^ ^ ! ( ( ( Q ^ W # ",
"# ^ & g * | $ / / / | | $ $ | / ` $ / | , $ g g $ | | $ g $ $ ) ) , g $ , g , , ` / | $ $ | | | ` $ ` , ) $ * ) _ _ ) /  .# # W ",
"~ # 1 m c l l c V.m c i x x i l l c l l a a x i l l l x v x l v l l x x a l a i a l v v l b l i l x v l l b h k 2.,.h c m 1 & W ",
"!  .m i 0 0 y p N.v y 9 7 r q 0 9 = w ; 7 7 r 8 8 7 - e w w ; e w w - - - w t w - r 9 e = 7 r 0 9 7 9 t 9 0 6 b.<.M.6 u u c ' W ",
"! / c u q 9 p N.V.l.y 9 7 9 r 0 9 r r r 9 9 9 e - - . H H S D I S H H K F J F .   w 7 7 t q 7 9 0 8 8 9 0 u j M.-X<.j s s c ) ! ",
"( ) l 9 9 p z C.uXOXz y 9 9 r q 9 q 0 t 0 w w - y.K D L A G.T.K.H.T.K.I.G.I.K H J G   t w + ; 7 7 0 q s s 6 <.-X:X-XM.j s h ) Q ",
"( / l 9 p z D.>XkX>Xx.v y d r t 8 8 0 9 w G H I A G.G.T.T.G.E.K.T.E.K.G.T.T.K.L.G.I H K J . - w 7 u b j <.1.-X;X:X:X-X<.M.,._ Q ",
"~ / c p N.x.>XkXkXkX>XD.N.: y 9 7 r 7 w G H K.G.T.G.E.G.G.T.).(.).)././.K.T.H.T.T.T.G.K.F K J . - 9 b.M.1.-X;X;X;X:X;X-X<.2._ Q ",
"Q $ N.N.+X=XkXyXkXyXkX<XC.N.j.y e w   H S K.R.G.I.U.(.2X2X(.(.(.).(.(.(.(./.2XU.K.I.K.T.K.A H H H + f s M.1.-X:X;X;X-X<.b.k * ^ ",
"~ * m 2 D.c.8XkXyXkX>XC.C.2 z = - - H K.R.K.I./.(./.Y.P.Q.Q.Y.W.Q.Q.Y.Q.W.R.U./.(./.).G.T.K.K.A I K w q s j <.-X;X-X<.j 6 b $ W ",
"^ ) l y p z N.>XkX>XC.z p : e ; H S L.H.K.R.)./.).R.Q.Q.!.!.p.p.p.p.p.p.Q.Q.P.G.K.(.(.2XK.I.T.T.L I F ; s 6 j <.-X1.j u 0 b * ^ ",
"Q | v e d y p D.<XC.2 q 9 t   J H L.L.R./././.K.P.W.W.i.i.i.i.i.0.4.0.4.0.B ~.Q.Y.P.U.(.(.).).K.G.R.A H - 0 6 b.1.<.s 9 0 l , ! ",
"~ * l 9 e y y N.C.D.p r t   J K U.U./.2X2XL.K.S a.p.x.g.g.<X1X<XqXqX&.7.8.5.9.0.,X~.L.G.I.).(.(.R.K.K.D A F w s M.j s 9 0 l / ! ",
"Q * x e 9 y u y x.2 y e w . D U.I.(.2X2XR.H.y.a.i.g.g.8X7XlXgXgX1X8X7XrX6XrXrXd.0.B Q.R.U.U.(.(.(.K.I.G.L I G 8 b.s u 7 u l ` W ",
"~ ) l = e 9 7 u N.z y e 7 G P.I.(.(.G.T.A a.a.i.h.k.6X7X9XgXgX9XqX5X7X5XqX7XrX6X6X9.0.0.!.W.R./.(.).J.G.T.A G 9 e 9 q 8 9 c ` ! ",
"^ | l e t q 0 u p z : y : ~.Q.3X3X2XP.R.y.p.g.g.8X0X7X9X0X5X9X5X8XwX7X5XqX8XqX6X6X6Xs.9.0.^.T.K./.iX).G.T.K.J   ; 7 + w t l | Q ",
"( ) l o 7 e 9 p m g.g.k.h.g.g.x.yX!.~.p.x.x.g.5XgXhXgX9X9X9X8X7X0X9X7X7X7X7X7X8XqX8X6X7.9.p.R.T.U.(.(.(.H.T.I K w r 8 7 0 l | ! ",
"Q ) i t d y p j.h.l.l.k.k.l.l.k.i.i.i.i.g.h.5XgXhXgX9X9X9X5X7X5X5X5X9X0X7X6X7X5X5X5X6XOX[ 5 W.R.L.P.(.(.R.H.A H - w 9 r 8 l $ ~ ",
"~ * i t 9 z h.l.h.eXqXeXtXwX0XwXeX1X1XeX7.6XqXgXgX9XqX5X5X7X5X9X5X5X7X7X7X7X5X9X9X7X8Xc.c.] 3 a.P.I.I.(./.H.R.A J - w 9 9 x g W ",
"Q ) x u : j.k.l.wX1XqXeXeXwXwX9X9XwX9XwXs.f.<XlXgX9X5X5X5X9X5X5X5X8X7X6X7X7X9X9X9X9XrXc.c.] 5 x.H G.I.(.2XK.K.D F . w e r a % W ",
"~ / v p 4 h.l.0XwXwXl.k.g.5.d.#XOX+X%X$Xf.d.8XlXgX1XeX5X0X0X7X5X7X7X7X7X7X5X5X<X5X0X7X$X$X$X{ 4 y.K.J.J.(.(.I.K.D K e = 9 x ` ~ ",
"! $ v p h.k.0X0XwXl.j.r.mXC 3.6.&X#X$X#X@X7.e.lXgXgX<X9X0X7X5X7X7X5X7X7X7X5X5X9X9X0X$Xc.c.$X} 4 ; H G.G.U.).G.T.L J ; 9 e l ) ! ",
"W , b p h.wX1XeX+Xr.aXXX|.|.pXN e.#X@X#X&Xf.f.rXgXgX8X5X0X7XtX8X9X7X8X7X7X9X5X5X0X0Xv.$Xc.c.c.{ > F D R.I.2X/.G.J.D e 9 7 v | Q ",
"W , l z j.qXeXV.OXC sX{.[.{..XC #.*X#XOX@X@Xd.f.7X0X5X8X7X7X5XqX5X0X5X7X9X5X5X8X0X0XrX$Xc.c.c.X.2 ; y.W.K.).).G.J.D - 9 7 x * ~ ",
"W ' m r.N.0X9X+X=X=.pX{.{.|.iXq.8.@X@X#X#X=X#X>.>.tX0X0XqX8X5X9X5X7X5X7X7X7X5X7XrXrXc.c.c.c.@.[ 2 2 p.^.L.G.).I.J.D J w w a , ! ",
"W ' m j.l.0X0X=X=X-.N .X.XP q.6.OX@X@X#X=X#X#X#X>.>.rXrX6X6X7X7XqX7X7X0X7X0X5X7Xc.c.c.c.c.} } X.O.4 5 3 !.~.3XY.K.D J - ; l ` W ",
"! $ m r.l.0X0XOX@XOXC C q.3.#.#.OXOX@Xk.v.f.f.*X=X>.>.>.>.rXrXrX6XrXrX7X7X8X7Xc.c.c.c.} } X.X.X.{ } X.] ] 5 3 !.L.K.F - 9 l | ! ",
"! / c l h.@X#X#X@XOXlXOX@X@XOX#X+XOXl.h.j.4.7.7.#X@X*Xf.f.f.f.f.f.f.>.0X7X$XC.$Xc.} } [ X.>.%.$.s.$.:.:.:.} 4 5 ^.y.u.e 7 l ` Q ",
"Q $ c z j.h.&X+XOX+XvXS.=X=X$XV.C.V.b.cXpXpXC 9.+X+XOX#X@X&X:.f.:.:.z.d.$.o.o.o.X.[ X.$.7.&.&.%.OX&.6.&.%.$.%.] ] 3 p.= r l * ~ ",
"! | l y 2 h.8XwXOX%XbXS.%X%X+X+XV.V.m.mX|.|.iX3.+X$X+X$X+X@Xe.8.z.$.:.:.:.>.%.:.:.>.#.#.&.@X#X#XOX6.+.#.%.%.$.$.f.4 n e 9 b * ! ",
"! $ x : n i.h.7X#XA.vXF.S.%X#X+X%XZ.r.iXpXiXw.d.OX#X#X#X@Xh.r.q.=.6.7.*X*X@X#X*Xf.d.q.q.7.f.*X$X#X+X$.$.$.:.:.:.7.] m 2 : l g ! ",
"! , x y p r.h.tX#XA.vXvXbXS.%X%XbXbXw.q.C C 8.7.OX%X+X%Xl.j.aXpXaXC 8.c.@X=X@X:.7.w.aXpXq.6.e.$X+X#X%.8.e.w.w.3.*.7.4 4 9 x g ! ",
"W , l 9 9 p 6.*X#X%XbXS.vXnXjXvXvXS.+X&.%.8.%.+XA.S.A.Z.r.mXXX{.|.iX6.=X@X@X*Xl.t.sX{.{..XP q.zXnXlXd.6.V iX.XV 6.f.@.m : x ` ! ",
"^ , l 9 9 y 5.7.@XA.bXS.S.S.Z.B.vXB.#X*X*X*X#X%XbXbXnXxXr.mX|. X|.N w.$.+X#Xl.j.aX|.[.[.{.pXq.+X%XV.h.C .X{.}..X4.f.@...: x g ! ",
"! | l 9 7 d 2 4.8.#XzXC.%X+X%XA.bXZ.%X=X#X+X$X+XnXZ.D.C.9.C pXpXC w.6.8.#X@Xk.j.sX{.[.[.|.V 6.&.#XA.q.sX{.E [.|.4.f.@...p x , ! ",
"~ | l r 7 e ; N.6.7.z.C.+X@X@X+XbXA.+X#XOX+X+XV.zXA.V.OXOX6.N C e.f.&.OXV.+X@X3.N .XXX|.pXC #.$.#X%Xq.pX}.}.}..X4.d.:.O.p a , ~ ",
"! ` c 9 r e = p 5.7.7.s.@X&X@X@XxXV.%X#X+XOX#X+XhXS.%X$XOX+XZ.xX+.7.c.OXB.N.V.6.=.q.=.w.w.#.%.%.$X#X6.q.pX.XpXC 7.f.:...p a , ! ",
"( ` l 9 w 9 r y x.9.s.c.@X7.7.s.7.+XA.V.V.%X%XA.bXS.%X=X#X+XZ.bX+X%XV.F.aXaXB.Z.zX-.e.7.$.$.%.%.#XOX#X+.C C q.6.f.:.>.] y x ` ! ",
"W | l 8 8 8 7 > x.9.7.c.*.] 9.0.5.e.zXgXzXjXhXhXvXS.%X@XOXOX+XbXnXjXsXsXsXXX'.pXmX+.dX=.&.%.OXOX#X+XA.hX=.+.+.#.&.>.:...p l ` ~ ",
"! $ l 8 r 7 r > 3 9.s.s.[ 5 p.p.3 w.q.=.Z.A.S.Z.bXS.+X#XOX+X+XV.S.n.sX XU  X{.'.n.Z.jXZ.+X+X+X$X+XA.B.bX-.-.-.#.%.%.} m p c ` Q ",
"^ , i 8 8 0 9 p 5 8.7.] n !.W.y.> : C 6.7.@XOXV.vXS.%X$X+X#X+XA.B.n.sX X X{.[.'.n.B.mXB.+X+XS.vXnXbXmXvX%X#X$.%.:.@.[ 4 d l g ! ",
"# g l 7 0 9 0 p 3.9.9.0.4XQ.R.T.y.; 2 2 9.7.7.&XhXS.%X#X@XOX&XV.B.aXpXU .XU }.|.oXB.vXB.A.V.S.bXS.F.F.vXA.&.%.%.@.[ 4 2 y x | ! ",
"! ) x e 7 8 8 y 4.4.B !.4X2XK.G.K.S ; p z 3.9.d.e.#X=Xc.=X@X#XC.B.cXaXn.n.n.pXpXMXS.vXmXvXvXzXbX%XA.;.dX=.&.>.$.[ ] n y 9 l g Q ",
"( ` v 9 9 0 0 0 p p a.Q.Q.2X/.R.H.L.y.w e : 2 #.6.8.9.7.%.d.OX+XB.C.N.C.C.V.n.n.B.F.MXN ;.;.=.-.%.#.-.dX#.%.....m 2 p r 8 i , W ",
"( ` v e 9 r 9 9 = ; u.F I.K.2X2XT.I.P.H   e p p p p z 2 4.5.6.7.8.&XOXOX@X7.7.X.4 #.dX;.e.-.7.%.>.:.>.o.X.{ 4 M p p 9 9 r i , W ",
"( ` z 9 q 9 u 9 w w   G D K.2X2X(.E.T.P.H H - w t 7 = y n z m 4.6.5.5.8.6.5.s.} [ &.dXh o...] ] ..O.{ { ] O.z z = e e 9 7 l , W ",
"! , l 7 7 9 9 9 w w t   J P.I.).(.(.K.K.K.K.I H .   w 9 y u y p p p p p p z z m { #.dXM M ] 5 M 3 3 ^.p.: y p 9 e 9 0 0 9 x | W ",
"^ * i t 7 r 9 9 o o 8 7 . J I.P.I.(.).K.K.K.T.I D F   - t 9 7 t w w w + r 7 e > 4 5.eXM M ,XyXyX!.W.y.J ; 9 e e t 7 0 9 9 x g ~ ",
"~ $ x 7 0 0 9 8 X ].+ w + J F U.U.K././.I.K.G.G.K.D A H H G w - w .   .   J F a.5 ] ] 5 4X4X3XQ.Q.u.- w = e - u.7 9 r 0 e x | ^ ",
"Q | a 7 9 r 9 + X `.O t + w w K U.K.K./.).).I.J.T.T.G.R.L D D J F F J D I.I.Y.Q.,X5 ] 5 3XY.L.H y.- - t 9 w . G - 7 7 8 9 l $ ^ ",
"^ g a 9 0 u r o T T `.O o 8 t . F I.K.I.(.(.(.).I.G.T.G.G.E.G.G.G.R.G.J.G.J.K.Y.^.3 5 yXQ.Y.y.H - 9 7 7 r - J K J + 8 9 : c g ~ ",
"^ $ x 9 r t o X T R T @ O 8 w w . K J U.I.I.I.(.).(.G.I.G.G.G.T.G.H.T.J.U.(.).2X4X> > ^.y.K K - e 7 r 7 + w K U.G   + e 9 l $ ! ",
"^ g z 8 8 O X '.R [.R Y X O 8 7 7 w - H S R.H.K.).).).(.(.2X/.(.2X/.2X2X2X/./.2XR.W.L.y.K . w 7 9 e - - . H Y.(.U.J . . 9 c ` ~ ",
"~ g x o O `.Y '.[.E [.R T ].O 8 8 7 w - y.S L.L.P.U.I.P.2X2X2X2X(.iX/.3XP.U.L.L.H.S H S w w 9 9 9 = ; U K L.2X2XiXY.K J - a g ! ",
"W , u ].`.Y R [.E E E [.R Y `.].8 8 7 - e - - H H S I L.I.K.I.I.I.J.K.K.K.I.K H y.J ; w 7 0 q t - m.K K L.(.2X2X).(.P.H u.m.% ~ ",
"W , s O X T '.R E E E R Y `.@ O o 9 9 r r e t - - y.H y.F H K D D D D D D D y.- - w 7 e 9 9 t 7 w   . D H K.2X2XiXY.J J   y , ~ ",
"Q ) s f f O O `.R [.R Y X O o 8 r 9 e e 7 9 7 t w w w - w 7 w w + + - - +   w 7 t 9 9 9 r 9 e e 9 9 w - + J U.(.L.F w w w z , ! ",
"~ ) l 7 0 0 8 O Y R T X f 0 0 9 y e 9 9 0 8 0 8 8 7 7 7 9 9 0 9 0 8 7 r t t w 7 7 9 9 9 9 9 = e u 9 r r +   F U.F - 0 0 7 x ` ( ",
"Q ) v 7 t = t O '.Y ].O 7 e 9 e = ; 9 0 0 8 0 8 8 7 7 t 7 t 8 0 9 9 9 9 8 8 8 8 0 9 9 9 e 9 = 9 0 9 9 r t ; D F J + 8 9 7 l ` ! ",
"( / v e w 7 0 o X `.O o 7 9 t 9 e e r 0 0 0 0 0 0 0 t 9 t 9 9 r u d 0 0 0 0 0 8 r e u 0 e r r r 0 0 9 9 9 w . m.w + 0 0 d c ) Q ",
"Q ) m p e 9 0 o O ].f q 8 r 7 q 8 8 7 t 7 7 7 9 9 7 9 7 9 9 e 7 9 9 9 t 0 0 0 9 7 7 9 7 7 8 q 0 0 9 u 9 9 e w u.- t 7 9 u c ) ^ ",
"~ # < c c l x i u s l c l a x l b l i x x x l x x x x x l x x x l x x x l c c l x z x x l b b b l l l l c a z a a x a l c 1 # Q ",
"^ W # ) ) ) /  ., , ` | , , g * * $ g * g , , ` / g / ` / $ ) ) ` , , , , , ` , , , , ` | ` , , g $ ` , $ g , | $ | , g ) & ^ ~ ",
"# # ^ Q ~ Q ~ ! W W ! ! ! W ^ ~ ! ! ! ~ ! ! ! ! ! ! ! ! ! ~ ! ^ ^ ! W W W ( ( ! W W ! ! ! ! W W W ^ ! ! ! ^ ! ! ! W ~ ! ! ! ! W "
};
