/* XPM */
static char *b4a7fa74237b4a3a84ff575b44ecab8eYq9eNcmd5ag86GpJ[] = {
/* columns rows colors chars-per-pixel */
"64 64 237 2 ",
"   c #3E3231",
".  c #42333D",
"X  c #413536",
"o  c #524430",
"O  c #695B27",
"+  c #3D3246",
"@  c #3C2E5B",
"#  c #3C325B",
"$  c #3D3254",
"%  c #3C2D63",
"&  c #3B2D6B",
"*  c #362B68",
"=  c #3C3163",
"-  c #3B316B",
";  c #3A2B73",
":  c #3A2C7D",
">  c #382A7C",
",  c #37307E",
"<  c #443448",
"1  c #45375B",
"2  c #4D394C",
"3  c #432C64",
"4  c #432B6B",
"5  c #462A67",
"6  c #4B3D65",
"7  c #463B6C",
"8  c #4C3D6B",
"9  c #443667",
"0  c #43247D",
"q  c #452779",
"w  c #463C74",
"e  c #4B3D73",
"r  c #4B3D7A",
"t  c #453B7C",
"y  c #513F73",
"u  c #4F414D",
"i  c #7E6F5A",
"p  c #7D725B",
"a  c #7F7053",
"s  c #7F714C",
"d  c #4C406B",
"f  c #4B4166",
"g  c #4B4076",
"h  c #51426F",
"j  c #7E7168",
"k  c #7D6E75",
"l  c #7E6F6D",
"z  c #8B781B",
"x  c #8B7623",
"c  c #8B7A25",
"v  c #86752D",
"b  c #8A762C",
"n  c #8B792B",
"m  c #847728",
"M  c #857535",
"N  c #8A7634",
"B  c #867934",
"V  c #8A7933",
"C  c #85753B",
"Z  c #89753B",
"A  c #85793B",
"S  c #89793B",
"D  c #927A27",
"F  c #857542",
"G  c #84734B",
"H  c #877942",
"J  c #837354",
"K  c #82725B",
"L  c #836E5A",
"P  c #827262",
"I  c #847369",
"U  c #817176",
"Y  c #BFAC5C",
"T  c #BFAD57",
"R  c #BEAC64",
"E  c #BDAD6A",
"W  c #BDAA7D",
"Q  c #BCAC70",
"!  c #BDB062",
"~  c #C4AD4C",
"^  c #C4AE54",
"/  c #C3AD5C",
"(  c #C8AE5B",
")  c #C4B153",
"_  c #C3B15C",
"`  c #C9B15A",
"'  c #C4B14B",
"]  c #C3AD62",
"[  c #C2AD6A",
"{  c #C8AE62",
"}  c #C3B162",
"|  c #C2B06C",
" . c #C1AE74",
".. c #C2B072",
"X. c #ECD57B",
"o. c #ECD777",
"O. c #F1D874",
"+. c #EDD56B",
"@. c #FEEC75",
"#. c #FEEC7B",
"$. c #FBE87B",
"%. c #FFF17A",
"&. c #2E2C89",
"*. c #342684",
"=. c #3D2684",
"-. c #352A85",
";. c #3B2A84",
":. c #352689",
">. c #3A278C",
",. c #342A8A",
"<. c #3A2A8B",
"1. c #372990",
"2. c #3E3891",
"3. c #432583",
"4. c #492383",
"5. c #422985",
"6. c #42268A",
"7. c #4B2589",
"8. c #412989",
"9. c #4A2C86",
"0. c #5B2D8A",
"q. c #43368D",
"w. c #463B86",
"e. c #5D318D",
"r. c #5A3282",
"t. c #443994",
"y. c #443A99",
"u. c #433793",
"i. c #5C3391",
"p. c #632E8C",
"a. c #6A2C8B",
"s. c #6B2A86",
"d. c #62328E",
"f. c #682D91",
"g. c #672F8F",
"h. c #481E84",
"j. c #7D4DAB",
"k. c #7C50A9",
"l. c #7E4EB2",
"z. c #7C52B3",
"x. c #7A6A8E",
"c. c #8D46AD",
"v. c #844CAE",
"b. c #8C49AE",
"n. c #8548AB",
"m. c #9149AE",
"M. c #9146AD",
"N. c #8251AC",
"B. c #8D46B2",
"V. c #854CB3",
"C. c #8C4AB3",
"Z. c #874BB7",
"A. c #9146B3",
"S. c #9149B4",
"D. c #9048B8",
"F. c #8351B5",
"G. c #8950B6",
"H. c #837083",
"J. c #A75EC7",
"K. c #9C66C9",
"L. c #A562C4",
"P. c #A863C8",
"I. c #B974D0",
"U. c #BCAA83",
"Y. c #BCAA8C",
"T. c #B9A788",
"R. c #BAA896",
"E. c #B9A5A4",
"W. c #B3A4B7",
"Q. c #C0A989",
"!. c #DED49C",
"~. c #DFD58E",
"^. c #EAD583",
"/. c #E5D58C",
"(. c #E8D789",
"). c #E3D594",
"_. c #E3D49C",
"`. c #E4D89C",
"'. c #E8D79A",
"]. c #E8D391",
"[. c #FDEB83",
"{. c #FDEB8B",
"}. c #FAE788",
"|. c #FFF085",
" X c #FCEB93",
".X c #F5EA9B",
"XX c #FCEB9B",
"oX c #F6E897",
"OX c #FFF19B",
"+X c #DED3A4",
"@X c #DED2AC",
"#X c #DECFBA",
"$X c #DDD3B8",
"%X c #E3D5A4",
"&X c #E2D4AA",
"*X c #E5D7A7",
"=X c #E1D1B5",
"-X c #E3CEB3",
";X c #F5E5A4",
":X c #F9E6A5",
">X c #F6E9A4",
",X c #FBEBA3",
"<X c #F6E6AB",
"1X c #F9E6AB",
"2X c #FBE9AA",
"3X c #F7E8AF",
"4X c #FFF5A4",
"5X c #FEF4AC",
"6X c #FFFAA9",
"7X c #F5E5B3",
"8X c #F9E9B3",
"9X c #F6E7BA",
"0X c #FEF4B4",
"qX c #FFF5B7",
"wX c #BC99EB",
"eX c #BE9BF1",
"rX c #C596E5",
"tX c #CC94E5",
"yX c #CC95EB",
"uX c #C59AEB",
"iX c #C699E9",
"pX c #D293EC",
"aX c #D195E8",
"sX c #C897F1",
"dX c #D192F0",
"fX c #D38EEA",
"gX c #DCCFC5",
"hX c #DDD2C6",
"jX c #D8CCD7",
"kX c #E3D4C5",
"lX c #E8D7CF",
"zX c #F7E8C7",
"xX c #FCF1C4",
"cX c #FCF2CC",
"vX c #F8EAD3",
"bX c #FBECED",
"nX c #E9DCF8",
/* pixels */
"-.,.-.*.-.-.,.,.,.<.:.,.,.-.,.-.-.-.-.-.,.-.> -.,.1.-.-.,.<.:.:.,.,.,.-.-.:.,.,.=.:.:.,.:.,.>.<.:.,.:.,.<.;.=.<.:.,.&.1.-.<.-.,.",
"-.> ; r w w e 8 8 8 8 6 8 8 6 6 d 6 6 6 8 8 f d d w w.t.t.y.y.y.y.y.y.w.g f 8 8 8 8 g w t g w e g w g g 8 e 8 e e e 8 7 e % > &.",
"-.q 2 E.R.a J 7X<X.X2X1X1X:X2X1X<X2X1X1X<X<X>X;X;XvX% <.,.<.-.,.<.:.,.% zX:X2X1X1X9XzXP kX#XK J T.Y.W T.Y.Y.T.J J zX<X3X9Xu - :.",
",.g E.Q.C V x {.#.@.#.#.#.#.#.[.#.[.#.@.[.#.#.[.,XzX4 8.=.5.<.<.6.8.5.5 lX:X;X.XoXx ].'.%X%XB R R / ` X.OXXX! ! N c [.$. XzX7 -.",
"-.g P H C M x {.%.@.@.#.[.{.{.}.{.}.[.|.$.#.#.XX  3 k.C.V.v.G.v.V.v.C.k.3 # $ . =X).*X_.`.A B ] } ^ O.+.O.O.T ! R b {.[.[.7X9 ;.",
"&.g K B N b {.[.$.|.$.|.{.z z D z x z {.[. XoXzX5 0 n.c.m.m.C.c.b.S.c.Z.7.5.;.4 jX#X%X*Xs A R ] / ( O.O.+.~ _ Y E b D {.[.<Xd -.",
"-.g a v {.[.[.[.{.c n m n T } / / { x c b 7X. 3 y p.a.s.s.a.p.a.b.b.B.B.V.C.Z.j.; < #XC v n ] ( ] { ^ ^ ^ T Y ] [ N N b {.7Xd -.",
",.7 G  X$.#.#.[.c m v ! OX(._ Y ] [ ] Z G l - 5.f.p.p.p.d.d.e.p.v.b.B.S.A.S.S.Z.6.% I Z B E ] / / ^ { / / ( Y ] ] N Z N m 9X8 <.",
"<.8 8X$.@.#.[. Xv B Y _ XX^.X.) / ] / W < * , ;.3.5.6.=.;.5.;.3.p.f.A.C.b.C.C.V.<.% K C C E ] OXo.' ^ _ / / ] { [ Z Z C M J e :.",
">.8 ;X%.@.@.{.x S S R X.OXX.O.) / / } Y.= ,.<.> > > 6.>.5.;.;.<.i.g.b.C.C.b.C.V.4.4 k K F [ XX^.O.T ) X.X. X/ ] N H C C C i y >.",
":.8 ,X@.@.$.c b B M } OXX.X.( ( / Y { Q.& ,.-.: eXsXsXsXsXwX5.;.*.5.e.f.m.m.b.b.C.v.4 < a Q 4XX.X.) ) X.+.o.( { Z Z C A C P w >.",
",.8 ;X@.%.[.b N C S E ] ^ ^ ( { / / ^ U.3 <.: : iXrXyXyXyXtXq ;.;.=.d.a.m.m.m.c.M.B.7.; U U./.XXXX_ ) o.+.+./ [ Z Z M v M K e ,.",
">.8 2X#.[.x S C C M [ ] ( ^ ( ^ / XXO.].@ <.wXrXrXaXtXaXyXyXuXeX;.=.d.a.M.m.c.C.B.C.b.k.& < W / ] { / ~ o.` ] b N b / ^ _ s 7 ,.",
">.6 ;X#.}.b N C C M [ ] ( X.X.^ / ^.].-X3 q tXtXrXiXuXuXyXtXtXuX3.5.i.p.m.M.B.C.C.S.b.v.=.9 Y.] [ { / ( ^ Y N N b ] o.O.) 9Xg ,.",
",.d ,X|.}.N M Z M Z Z { / ^.X.T ) '.X 3 rXiXtXaXtXuXq 0 eXuXiXrX0 -.5.q p.a.B.C.B.A.S.v.3.% p C N R { Y [ N Z N V / ` ~ ^ 9X7 ,.",
":.d ;X#.{.x N Z Z N Z N { ] Q Q W R.3 q uXaXtXaXaXrX, -.0 0 rXiXq ;.-.=.d.a.C.B.B.S.c.n.3.% K A C N N M Z Z Z Z [ ^.X.~ z 8Xe ,.",
",.8 3X$.{.c V B V V B C N G + # # % iXiXyXaXaXtXtXiX: ,.> 9.iXyXuXeX;.;.0.a.C.b.S.b.m.v.3.& P A C B Z C Z B Z C [ { / ) #.;X8 <.",
":.d 3X$.{.z / R ,X/.N C G U 4 =.=.; iXrXyXiXiXiXtXrXq ;.;.q q yXpXyX=.;.d.a.c.S.b.m.b.V.h.4 k G N N F C C B Z Z N ] ( [.#.,X1 -.",
",.8 ;X%.[.z ` X.OX^.R G < 5 rXuXrXiXrXtXyXtXaXyXtXyXsXsXwXq aXfXfXyX3.3.d.a.b.b.A.B.C.C.C.j.4 < ].o.] Z C C Z N M m [.#.@.2X8 1.",
",.h ;X#.[.z ) X.XXX./ Y.3 3.sXtXyXrXaXtXaXaXaXaXdXyXdXdXuXuXfXI.I.yX9.: 0.a.C.Z.Z.Z.B.B.C.V.;.# _.o.] B A Z N S v  X[.#.[.8Xe ,.",
"*.6 <X#.%.[._ ] _ } / Q.3 3.uXyXyXpXyXtXtXaXL.P.L.P.P.P.yXtXtXpXyXiX> =.i.a.C.D.h.7.C.C.B.Z.*.= W / E C A C n m 6XoX$.[./.=Xr ,.",
"-.6 9X{.{.{.V E E ..U.E.5 4.uXiXyXyXdXdXpXpXP.J.P.J.J.J.pXaXtXyXtXiX: =.e.a.A.C.7.4.j.V.Z.V.7.4 E.G C A M M .XXX6X.X XoX'.gXt :.",
"-.g #X_._._.%X&X%X@X< 3 wXiXrXtXL.P.P.L.L.P.J.P.L.P.J.P.P.L.yXtXyXuX0 5.i.a.B.B.Z.V.3.4.Z.C.Z.j.5 < J A ;X.XoX>X5XqX`.).!.zXg -.",
",.e kX!.&X&X@XxX+X$X% , uXrXuXuXK.L.K.K.K.K.K.K.K.K.P.L.J.L.yXtXrXuX4.4.p.f.C.B.S.C.5.8.j.G.Z.V.3.* bX~./.(.(./.`.+X+XqX!.$Xg -.",
"<.r $X!.xXxXxX+X`.$X= : uXrX0 ;.=.;.8.;.=.5.<.=.5.h.L.P.P.L.pXuX0 q p.a.C.C.Z.B.C.V.3.-.3.0 3.=.-.- bX+X~.(.X.~.%X%X%XxX+XkXe -.",
":.e 9X/.+XxX9X`./.zX= ;.eXrX3 = = = # - % * ;.<.<.0 K.K.K.K.sXsX5.0 a.a.c.C.B.C.V.z.;.; # 1 @ 1 $ + vXqX.X X{..X5X*X!.!.`.$Xe -.",
">.8 3X X_.*X*X).{.8X$ -.> 5 R.Y.Y.zXR.a L U ; >.i.i.5.5.8.=.5.4.i.d.Z.c.S.B.S.C.3.=.-.= kX2X,X1X,X>XqX6X|.|.[.}.oX4X{.|.[.7Xd ,.",
",.8 ,X{.'.!.~.oX[.XXX $ 1 . U.} / / ] N v F < % r.0.3.=.;.8.=.0 f.f.B.C.C.v.V.N.<.> - . ,X[.[.#.#.$..X4X[.@.#.|..X4X#.%.@.>X8 ,.",
":.d <X}.'._.(.{.|.$. X>X,X;X6XB c x c x D b >XzX3 3.i.e.0.0.e.d.b.C.C.Z.4.3.=.=.;.- E.G B c  X{.[. X.X5X[.%.#.}.6X5X{.$.#.>X7 ,.",
"&.7 8X{._.'.}.#.$.@.@.@.@.[.4X.X X{.{.{.}. X>XzX% =.d.a.s.s.a.a.V.Z.V.l.4.0 =.3.=.4 bXT. .N v c D  X5X5X}.@.@.[.qXqX{.#.@.;Xf <.",
",.w G XX0X).{.#.#.#.@.@.#.|.4X.X{.[.#.%.$.,X  # : 5.Z.C.C.C.b.b.0 =.6.7.v.v.F.V.Z.j.5 < W R B B v B s 6X{.#.#.}.qXqX{.#.@.<Xh *.",
",.g K S qX5X[.#.#.#.#.@.@.$.OX.X[.#.@.@.#.;X$ -.;.4.V.V.G.Z.V.F.4.=.6.4.V.S.C.C.B.B.7.5 E.W C A H B B s x {.[.{.0X0X{.|.#.1X6 ,.",
":.r p C H 2X[.@.#.#.#.@.@.|.6XoX[.@.@.@.@.;X$ <.z.l.3.6.;.5.=.4.V.V.V.V.A.A.A.S.C.C.C.v.3 + a A A H C C M B b c R ] Y z [.1X8 ,.",
",.e p H C 5X[.#.@.#.@.#.%.}.4X4X#.@.%.[.oXzX# 5.Z.C.7.:.<.-.=.4.Z.C.m.b.S.A.A.M.C.B.C.V.=.& K v A A H C C A C b / ^.} } z 7Xh ,.",
"-.w p C [ ] ^ [.$.%.#.#.%.{.0X5X{.#.[.>X. - : =.Z.S.n.F.;.8.z.Z.b.S.b.c.S.B.A.A.B.C.D.Z.5.% p s B N C C Z N [ ] ] / R / x 9X8 ,.",
"-.g P C R ] ( ) [.[.[.#.$.{.0X5X{.#.$.<X@ ,.=.7.v.S.b.b.3.0 V.C.C.b.m.m.C.c.M.c.c.B.B.B.4.4 l J C Z C A M S { / { ] ] _ z 7Xw ,.",
"-.w p A | ] XX^ ) ) ~ [.{. X.X5X{.$.%.<X1 >.F.v.Z.b.pXaXtXsXpXfXb.C.C.A.S.B.B.S.D.S.S.B.C.j.q + K Z Z C S N R } ] ] / / [.8X8 ,.",
",.e P _.B ! XX^.^.) ^ ~ ^ } .X5XOX X.XzX% 5.C.C.C.b.aXiXyXpXpXfXC.C.B.S.V.V.b.C.C.B.S.A.S.v.8.3 L Z Z C M N ] R ,XR } ^ [.;X8 &.",
":.r kX_.B R ^.o.^.^ ' o.OX] N B s H . - ; 3.v.S.C.N.3.5.v.b.S.c.S.c.A.b.4.7.V.B.C.S.A.A.S.Z.;.= Y.[ M A A M M R ] [ R m [.2X8 ,.",
":.e gX%XC V / ^ ( _ ' o.XXR S M s p % -.;.3.Z.A.C.N.=.=.V.B.B.S.A.A.A.C.3.> V.C.C.M.A.A.S.V.7.3 E.T.F C A M A C N N N n [.:X8 ,.",
"<.e P _._.Z M [ R ] / { ] [ N M c s % ;.<.6.V.C.B.v.5.;.V.C.v.C.B.A.A.C.=.> V.C.C.S.A.A.S.C.Z.j.4 < L Z B s F C C N v D [.1X8 :.",
"-.7 P %X_.H F C V N N N Z Z C C E cX# -.=.4.V.C.C.V.3.5.l.D.c.c.B.B.A.Z.4.5.l.C.C.A.A.M.C.B.C.Z.6.* L C N A F F H N b {.[.:X8 :.",
",.g j %X%X*XM C M N N Z M Z Z E ,XzX9 =.F.Z.B.B.A.Z.4.3.F.B.S.S.D.B.C.C.V.j.5.h.V.c.C.C.C.C.b.V.5.% J B B A M Z C N x }.#.2X6 ,.",
":.w I %X@X+X_.R [ [ ] | Z Z M  .xXjX* 5.V.B.D.B.c.v.0 0 V.b.A.B.B.C.B.B.C.V.=.5.V.C.b.b.c.C.C.Z.4.4 k J C E [ N N N }.#.#.;Xf -.",
":.r P %X&X%X`.E ^.X.4XR B B V W + & > 5.Z.B.S.B.pXaXyXsXdXdXm.B.S.B.C.C.S.V.6.=.V.b.M.M.S.D.S.B.V.k.3 + U.] ] / z }.|.%.@.:Xf -.",
"-.t P *XxX9X!.`.(. X^.! M S v Y.= -.,.=.G.B.C.b.tXtXsXsXyXyXc.S.A.S.b.c.S.V.7.6.V.v.m.M.S.B.A.A.Z.V.3.3 E.Q. .x {.#.@.@.@.2X6 ,.",
":.w R.%XxXxX%X`.)./.Y ] N C N R.= -.<.5.v.S.S.b.n.v.3.6.V.b.b.M.c.S.m.m.S.B.Z.V.3.7.v.C.C.c.B.A.B.b.Z.k.4 < &Xb [.#.@.%.@.2X8 1.",
",.w R.%X%X@X*X+X_._.[ N Z Z A Y.& <.-.5.Z.b.c.b.m.Z.6.8.V.b.m.A.C.b.C.B.S.A.A.Z.3.5.Z.C.C.C.S.c.A.S.c.G.3.% #XXX[.@.@.@.@.;Xe 1.",
",.w R._.&X-XxX@X@X+X%XH F F C K - ,.,.5.l.c.S.A.c.G.=.=.C.S.c.S.B.Z.C.B.A.A.C.V.5.>.Z.S.S.S.B.C.S.B.C.Z.=.% #XXX[.#.@.#.@.:Xd ,.",
",.g R.%X%XxXcXcXxX&X+X+X*XH C K = ,.,.=.V.C.B.A.C.l.=.=.z.b.C.C.C.D.B.C.C.S.c.F.5.6.V.B.B.c.C.B.c.C.V.k.4 < -X/.{.[.|.[.$.3X8 &.",
",.r p %X!.%XxXxXxX+X+X!.%XC A p = -.-.5.Z.S.S.Z.4.8.<.-.<.3.C.S.c.A.M.M.M.C.c.C.0 3.Z.S.c.C.B.B.B.V.7.& jX@X+X`./. X X X}.9Xg ,.",
"*.r I %X!.!.%X%X+X%X%X*XM A A cX+ - : 3.l.V.C.V.6.,.,.,.:.;.z.v.m.M.M.c.C.S.b.n.0 4.l.V.C.b.A.B.S.V.=.= zX'.xX+X!.)./.(.(.&Xe :.",
"=.r hX+X@X+X%X%X*X_.Z S N N 4XqXcXbX& <.=.3.v.G.=.<.,.<.,.<.8.9.C.b.m.m.B.B.C.Z.C.l.3.4.V.Z.A.A.A.Z.0 @ zX/.xXcX*X_.`.]./.-X8 >.",
";.r hX@X*X*X%X_.Z N N b z  X}.XX2XY.< * , -.z.j.=.,.,.,.&.,.-.;.z.V.Z.v.D.D.D.D.S.C.0 3.j.G.V.C.b.N.5 . 7X/.%X@X*X*X'.[ ^.&X8 >.",
"<.w hX+X+X%XA V b x }.[.[.$.[.[. X{ [ $X% <.;.5.<.;.-.&.,.&.-.;.<.;.=.7.l.B.D.Z.b.b.A.l.5.3.8.=.5.% zX;X,X!._.%X_.[ R _ ` %X9 ,.",
":.g $X~.B m n  X{.}.[.#.#.@.#.#.[.~ O./.X = : -.<.: ; - - - ;.-.-.,.-.<.z.F.l.V.F.v.C.n.3 $ # # $ X .X{./.`.%X_.Z [ ] Y ^ U.7 ,.",
":.d 3X}.}.[.$.%.[.#.#.#.#.#.@.#.%.' o.o.].-X= ;.<.; $ jXk < ; <.<.<.-.<.=.<.3.=.8.6.6.5 zX<X>X>X,X:XXX/.`.+XF F G Z R ] / Q.e :.",
"-.6 <X#.@.@.%.@.#.#.@.@.@.@.@.#.[.z ' o.O...+ % & # jXlXl k @ & # 3 3 3 = # # % & ;.; $ 3X$.#.@.$.{./.`.!.C C F C C Z N [ T.w ,.",
"-.f ;X#.%.@.#.%.#.#.#.@.#.#.#.#.{.x Y / / [ T.E.W.W.jXjXU k k l R.T.Y.R.R.Y.Y.R.H.x.x.k 7X X$.%.{.XX`.%X!.A B B C Z C F Z K 8 :.",
"-.d 7X[.|.@.@.@.#.#.@.@.@.@.@.#.{.c _ ! Z U.R.2 u 1 f 1 f 1 u l J J L K K J J L 2 u f u o >X{.{./.).%X%XC E E E M M H F F P e =.",
"-.y zX X}.#.%.@.@.@.@.@.#.#.@.@.[.{.c E Q.. 6 w t t t w.t t r 7 8 6 6 e 8 w 8 e t w., f o o ;X/.'.!.&X%XH 8X2X| B A s s G U g -.",
"<.& 2 zX8X:X;X.X,X,X,X1X:X:X:X,X2X<XF L W.6 w.t.2.2.t.2.u.q.u.q.q.q.q.2.2.2.q.q.t.2.t.w.nXlXgXkXkXgXgXgXP vXvXY.P a a p U 1 ; -.",
"&., 4 e 6 8 8 8 8 6 8 8 8 8 8 d 7 d 8 r w.w.t.t.y.y.t.t.y.u.y.y.u.y.y.y.y.2.u.u.y.t.y.t.w.g r e w e g w r r g g e e g g t ; -.,.",
"&.&.;.*.<.<.<.:.,.,.,.,.:.1.,.&.,.:.,.:.:.u.-.-.-.,.-.-.,.,.:.&.:.1.&.1.1.,.:.-.;.-.-.,.,.<.:.,.-.-.-.-.1.:.:.-.<.;.,.&.,.<.,.,."
};
