/* XPM */
static char *beef4ae9909c43d2c2adc5b5ce8d716bgF4QVkmiDgICjSPM[] = {
/* columns rows colors chars-per-pixel */
"64 64 234 2 ",
"   c #3D333B",
".  c #443638",
"X  c #544430",
"o  c #3D3145",
"O  c #3B2E5C",
"+  c #3C3259",
"@  c #3C3256",
"#  c #3F2F4C",
"$  c #3B2E64",
"%  c #3C2D6B",
"&  c #362D66",
"*  c #3C3164",
"=  c #3C316A",
"-  c #3B2D72",
";  c #362B7E",
":  c #3A297E",
">  c #3A2879",
",  c #3B3179",
"<  c #443547",
"1  c #422E5E",
"2  c #443558",
"3  c #4D3B52",
"4  c #432C64",
"5  c #432C6C",
"6  c #4B3D65",
"7  c #4B3D6B",
"8  c #443867",
"9  c #44247D",
"0  c #45287B",
"q  c #453C74",
"w  c #4A3D73",
"e  c #453C7A",
"r  c #4A3E7A",
"t  c #433775",
"y  c #523E6F",
"u  c #4F414E",
"i  c #7E6F5B",
"p  c #7E7259",
"a  c #7F714C",
"s  c #4C416B",
"d  c #4B4063",
"f  c #4C4074",
"g  c #52416D",
"h  c #7D7262",
"j  c #7E7168",
"k  c #7C6E76",
"l  c #7D7075",
"z  c #8C771B",
"x  c #90781E",
"c  c #8A7624",
"v  c #8B7925",
"b  c #8A762C",
"n  c #8A792B",
"m  c #867629",
"M  c #857534",
"N  c #8A7534",
"B  c #867935",
"V  c #8B7933",
"C  c #85753B",
"Z  c #89753A",
"A  c #85793B",
"S  c #8A793B",
"D  c #917D27",
"F  c #857542",
"G  c #867547",
"H  c #837454",
"J  c #82725C",
"K  c #857855",
"L  c #806E5A",
"P  c #817363",
"I  c #82706C",
"U  c #817073",
"Y  c #BEAD5D",
"T  c #BFAE57",
"R  c #BEAD64",
"E  c #BDAD6B",
"W  c #BFA666",
"Q  c #BDB064",
"!  c #BCAB77",
"~  c #C4AD4B",
"^  c #C4AD54",
"/  c #C3AD5C",
"(  c #C8AE5B",
")  c #C4B052",
"_  c #C3B15C",
"`  c #C9B158",
"'  c #C5B24D",
"]  c #C3AD63",
"[  c #C2AD69",
"{  c #C8AE65",
"}  c #C2B163",
"|  c #C3B16A",
" . c #C1AC77",
".. c #EBD674",
"X. c #EBD57B",
"o. c #EDD87B",
"O. c #F1D875",
"+. c #EED66C",
"@. c #FEEC75",
"#. c #FEEC7B",
"$. c #FEE77F",
"%. c #FFF17C",
"&. c #FFF076",
"*. c #3D2683",
"=. c #352A85",
"-. c #3B2A84",
";. c #36268B",
":. c #3C268A",
">. c #352A8B",
",. c #3A2A8A",
"<. c #332786",
"1. c #3C358A",
"2. c #342991",
"3. c #3B2A91",
"4. c #2F2A86",
"5. c #432584",
"6. c #4A2384",
"7. c #422985",
"8. c #442589",
"9. c #4A2589",
"0. c #412989",
"q. c #4D298B",
"w. c #5C2E8A",
"e. c #443A8D",
"r. c #463988",
"t. c #5E318C",
"y. c #58328A",
"u. c #413792",
"i. c #443993",
"p. c #463A9A",
"a. c #5C3292",
"s. c #632D8D",
"d. c #6B2B8C",
"f. c #642C85",
"g. c #62318D",
"h. c #623085",
"j. c #692C91",
"k. c #6C2E8E",
"l. c #7C4EA9",
"z. c #7D52A9",
"x. c #7E4EB3",
"c. c #7D51B5",
"v. c #7E51B8",
"b. c #756E98",
"n. c #8D46AE",
"m. c #844CAE",
"M. c #8C49AE",
"N. c #8447AF",
"B. c #9149AE",
"V. c #9245AD",
"C. c #8D46B2",
"Z. c #844CB3",
"A. c #8C4AB3",
"S. c #884BB7",
"D. c #9146B2",
"F. c #9149B3",
"G. c #8451B4",
"H. c #8650B7",
"J. c #8253AE",
"K. c #A263BC",
"L. c #A65EC9",
"P. c #9E65CB",
"I. c #9A66C6",
"U. c #A563C4",
"Y. c #A763C9",
"T. c #B975CC",
"R. c #BBA986",
"E. c #B8A797",
"W. c #B8A7A6",
"Q. c #B4A3B7",
"!. c #C1AB83",
"~. c #DED49A",
"^. c #E3D58B",
"/. c #E8D786",
"(. c #E3D494",
"). c #E3D59C",
"_. c #E9D49B",
"`. c #E4D99C",
"'. c #E6D893",
"]. c #FDEB83",
"[. c #FDEB8B",
"{. c #FCE687",
"}. c #FEF082",
"|. c #FDEB93",
" X c #F9E79B",
".X c #FCEC9B",
"XX c #F7E996",
"oX c #FFF49C",
"OX c #DED4A2",
"+X c #DED4AB",
"@X c #DDCFBD",
"#X c #DDD2BD",
"$X c #DBD1B6",
"%X c #DECFA6",
"&X c #E2D4A3",
"*X c #E3D9A4",
"=X c #E3D4AA",
"-X c #E8D5A3",
";X c #E3D4B4",
":X c #E3CFAF",
">X c #F6E5A5",
",X c #FAE7A4",
"<X c #FBEBA3",
"1X c #F6E6AA",
"2X c #F9E6AB",
"3X c #FAE9AA",
"4X c #F6E8A6",
"5X c #FEF4A8",
"6X c #F5E5B3",
"7X c #FAE9B2",
"8X c #F7E8B8",
"9X c #FEF4B4",
"0X c #FDF2BC",
"qX c #BC9AEB",
"wX c #BE9AF1",
"eX c #CC95E5",
"rX c #C496EA",
"tX c #CC95EA",
"yX c #C499EC",
"uX c #CA99EC",
"iX c #C795E5",
"pX c #D293EB",
"aX c #D097EA",
"sX c #C998F1",
"dX c #D291ED",
"fX c #DBCEC3",
"gX c #DCD2C5",
"hX c #D6CAD6",
"jX c #E6D6CD",
"kX c #F6E6C6",
"lX c #FDF1C5",
"zX c #F9F1CA",
"xX c #F6E9D1",
"cX c #F6E7E4",
/* pixels */
"=.=.,.<.=.<.=.=.>.>.;.,.=.<.>.=.,.>.=.>.,.=.0.5.:.>.;.2.4.=.=.>.,.=.>.2.;.:.>.2.>.<.;.3.;.>.,.,.<.>.>.>.-.-.*.,.:.=.4.>.=.-.<.>.",
"=.; % r q w 7 w 7 7 7 6 7 7 d d s s 8 7 7 7 6 y 6 7 s f e.p.p.p.i.i.p.p.p.e.q 7 s s r q e f q 7 f q w f w f w w w w w 8 f % =.4.",
"=.0 3 W.E.p K 6X2X4X3X2X,X2X2X2X1X2X3X4X4X4X2X2X2X2X1XkX* >.4.=.-.-.>.>.>.O kX1X1X6XkXp gX#Xp p R.R.R.R.R.R.R.H J kX1X7X8Xu = =.",
"=.r W.!.C V c ].#.@.@.#.#.#.].].#.#.#.@.&.@.@.]..X>X<XjX4 7.,.7.0.0.7.*.*.4 kX<XXXm ^.~.*X).B R W / ` X..X<XY Q m n ].#. XkXs =.",
"=.q P F A M c [.%.@.#.#.].].[.{.[.{.].}.@.@.@. X. @ + 5 m.Z.Z.Z.Z.S.Z.Z.H.l.1   6X_.-XOX(.a N ] } / +.+.O.O.T Q R n [.].].6X8 -.",
"<.f J C N b |.].$.%.$.].[.z c D c x v |.].[.XXkX4 0.0.9.M.D.D.F.V.C.n.C.n.m.9 4 hXfX$X-XB M E ] ] ^ O.O.+.~ ) Q [ N v [.].1Xs =.",
"=.f p m [.].#.].[.v n c n T } / / ] m m m 6X< $ z.Z.Z.Z.C.C.F.C.d.d.d.j.d.j.g.y.% @ #XC B B [ { { { ^ ^ ^ ^ Y } [ N N b [.6Xs =.",
">.s a |.$.#.#.].v m m Q oX/.} T ] } E N N H & 0.m.n.C.C.A.C.A.M.h.y.a.g.j.s.g.y.,.- k H F E [ { / ^ { / / / Y ] [ N Z N v 8X7 >.",
">.7 1X#.@.#.].[.m B Y _ .X/.O.` ( ( / ] M L $ 0.J.M.B.V.F.C.d.s.5.: 7.5.5.5.*.:.=.-.= < H [ ] .XO.~ ^ T / / / ] [ Z C Z M H w :.",
";.7 >X&.&.#.{.c B B R X..XX.O.^ / / ] E H U 5 5.M.B.V.V.B.M.g.t.-.-.-.7.0 7.0 -.,.=.=.= H [ .XX...T ) X.o.|./ { N Z C A C i w :.",
";.7 3X&.@.#.v V A M | oXX.X.( ( ( ] ] R.< 5 l.A.A.C.B.B.d.s.7.-.,.7.qXyXyXyXuXqX; =.>.* H Y oXo.o.) ^ o.+...( { Z C C C A P q ;.",
">.y >X@.#.].b N C A E _ ^ ^ ( { / E ! W.5 6.C.C.C.D.D.M.d.t.-.=.: 6.yXeXeXuXiXrX0 -.<.* J [ /.|..X_ ^ o.+.+./ [ Z Z N B M J w >.",
";.y <X#.[.c V C C C W / ( ~ ( / ^ 7X< $ c.S.N.F.A.A.F.M.d.g.*.5.yXrXuXeXtXtXuXtXyXwX-.O p M ] / ] { / ~ O.` R b N b ` ) _ a q <.",
";.7 2X#.{.b N C C C [ { ( X.X.^ ` %X* ,.Z.F.C.S.A.C.M.A.g.t.7.: yXeXeXrXyXuXuXeXeXuX9 * k K E ] [ { / ( / Y V N b } X...) 8Xf >.",
">.s 4X%.[.n M Z M Z N { / X...^ ^ &X1 5.A.C.S.C.C.n.d.s.6.:.=.-.yXrXyXwX0 9 rXeXaXeXuXqX- # H Z N W ] Y [ M Z N N / ^ ^ ) 6Xw >.",
">.d >X#.[.m N Z Z M Z Z { / ^ ^ / R.1 8.M.n.F.C.D.B.d.g.7.=.:.9 yXyX0 -.=.0 rXeXeXaXeXuX9 5 U P J H C b A C Z N { /.X.) z 7Xw =.",
";.7 4X#.[.v V M B B M N N N [ { E E.4 6.M.n.F.C.F.A.d.t.,.:.yXyXuXyX7.<.=.: sXaXeXeXeXeXuXyX% * = o H C M A C N [ / ) ) }.1Xs =.",
">.7 4X$.[.z / ] <X^.B S N S N F H U 5 6.A.n.M.C.F.Z.d.s.8.: eXpXtX9 9 *.-.0 rXaXaXeXeXeXeXrX9 *.-.% k H F C A C b { T ].#.1X7 =.",
">.7 1X#.].z ) /.oX^.R N M S S H < $ l.m.M.A.M.B.C.C.j.g.7.9 tXpXdXpX9 wXyXrXsXaXeXeXiXeXeXeXsXrXyXyX% # H S C F Z m ].#.@.,X7 ,.",
">.f 4X#.].z ' X.|./.Q E M A M p $ 5.Z.B.A.A.m.M.C.F.j.w.: 7.tXT.T.pXuXsXtXeXdXdXaXaXeXeXeXuXtXtXeXiX7.$ L Z C A M .X].#.].8X7 3.",
";.6 ,X@.#.]./ / } ] } E E A A p $ :.Z.C.A.Z.9.6.A.C.d.g.*.> wXtXtXeXtXtXY.Y.Y.L.U.U.uXeXtXiXtXtXtXrX0 + J N n m 5XXX#.}./.@Xr ;.",
",.8 7X].[.|.V W W { [ [ ).*Xp k 5 9.m.Z.Z.H.5.6.A.V.d.h.*.; wXiXtXeXtXpXL.L.L.Y.U.Y.dXpXaXtXpXtXuXuX0 $ j H <XXX9XXXXX[.).fXr ,.",
"=.f $X_.)._.).).).)._.-X_.:X< 5 J.A.N.Z.6.6.Z.S.F.V.d.h.0 : yXuXeXtXK.Y.Y.L.L.L.Y.Y.Y.Y.U.U.U.U.pXtXrXqX% o 6X.X9X9X~.'.~.xXq >.",
"=.w gXOX=X=X&X0X&X~.-X_.{ !.$ *.x.Z.x.x.*.5.Z.C.D.B.d.f.5.9 yXrXtXpXU.K.Y.L.P.P.P.P.P.Y.P.P.Y.I.sXrXeXsX*.* +X^.~.+XOX0X~.$Xf >.",
">.w #X).lXkXlXOX`.~.Q _ +._.2 *.0.0.0.*.; 5.G.n.C.C.M.B.j.a.9 0 rXdXK.U.Y.Y.6.:.5.*.7.5.*.-.,.*.,.0 uXrX,.* +X'.OXOX&XlX&XgXr >.",
":.f kX(.=XzX0X*X(..XT ) +./.. $ $ * $ % ; *.c.Z.A.C.F.C.j.j.9 5.wXsXI.I.I.P.5.-.,.- + @ @ @ + + @ 1 iXwX> + 8X X9X`._.(._.$Xw >.",
"=.7 6X|.`.*X`.^.XX[.) ~ O.X.! R.R.lXR.l $ :.0.9.A.M.F.F.A.A.g.t.0.0.*.5.*.6.a.a.*.$ kX2X>X>X3X>X3XkX+ : =.@ 2X]..X5X[.[.[.8Xw =.",
"=.s 2X].).~.(.XX%.#.].].~ ) Q Q / _ Q a < % ; :.c.Z.m.A.A.C.j.s.5.*.8.7.: 5.a.t.4 < 1X].].].#.#.#. X< + @ .  X].|.5X#.@.#.2X7 =.",
"2.7 2X].).).'.}.#.&.@.@.#.{.5Xn b c c N F j % =.,.*.8.6.A.C.C.M.g.t.w.t.s.t.6.4 W.! E n b c |.{.$.|.8XxX6XXX].].9X9X[.@.@.4X8 >.",
"2.7 7X[.(.`.[.#.@.&.@.@.#.[.5X4XXX[.[.|.6XxX$ ,.7.*.8.6.x.m.S.Z.d.d.d.d.d.s.7.% cXlX3XR { N b v z |.9X5XXX%.#.[.9X9X[.&.@.>Xs >.",
">.w H ,X0X~.[.@.@.@.@.%.@.#.oXXX].].#.,X. 4 m.Z.m.x.Z.x.6.0.*.9 m.M.A.A.C.H.8.: $   (...{ ] m N m N F 9X[.%.%.[.9X9X].#.@.3Xs >.",
"=.w H N lX9X].@.@.#.#.#.@.}.oXXX].]. XkX4 6.Z.C.A.M.C.A.6.0.: 6.G.Z.Z.Z.Z.Z.9.-.; 2 (...^ } A C A C C A m |.[.XX9X5X[.].#.2X7 >.",
">.q p B G 9X].@.@.@.#.#.#.}.5XXX].|.. 4 J.Z.A.n.A.C.C.F.Z.S.m.G.5.5.7.7.5.8.x.c.*.@ _...^ [ C A C C C C M Z N b ] / / z [.2X7 ;.",
">.s p A a 9X{.#.@.@.@.#.#.].5X5X].2X@ *.Z.M.C.F.C.F.C.F.D.C.C.G.9 *.=.-.*.9.m.m.0.$ E.E [ b A F C Z A C F C Z N / /./ { z 6Xf >.",
">.q p B | W / ].#.@.&.@.&.[.9X9X].>X+ ,.m.M.n.B.F.F.C.S.C.C.F.M.Z.v.0.:.H.m.F.G.:.-.= o H N M C C C C C A C | Q { / / T z 8X7 >.",
"3.r J S W { } ^ ].#.&.#.#.|.9XlX1XxX4 6.m.B.B.V.n.A.C.A.F.C.A.M.C.m.7.5.Z.M.M.Z.9.,.,.% J Z C S C A C A C S } R R ] ] ` z 6X7 >.",
"=.q L Z [ { .XT ) ' ~ ].[.[.XXzXo 4 J.N.C.F.D.D.C.A.A.A.C.C.M.M.dXdXyXrXtXtXM.C.N.H.;.% L Z Z C F Z C C Z Z Y _ / R ] ^ ].1X7 =.",
",.e P -XN ] .Xo.X.^ ) ^ ^ _ XXzX$ *.A.D.F.C.F.C.A.M.Z.Z.A.B.B.M.dXpXpXeXtXtXM.A.F.Z.0.- U H F S N Z Z C C N } Q <X/ [ / ].1X7 =.",
":.e gX=XM ] o...X.~ ~ o.oXE M H * 5.S.D.D.C.A.M.D.N.9.9.C.D.n.A.n.B.B.m.6.9 m.A.D.Z.0.> & < ! } / ] C C Z C N W ] } [ b #.3Xs =.",
";.e gXOXA V ) ^ ( ( ( /.<X! H k % 6.M.F.D.F.C.C.D.Z.5.0.Z.F.F.C.F.C.M.G.*.7.J.C.D.Z.5.: :.O =X|./ / C F C C Z Z N N Z n ].>X7 =.",
",.w h ).&XC N ] { [ [ [ [ R.  $ z.Z.M.C.D.D.C.C.C.S.5.9 A.D.F.C.A.C.M.c.*.0.A.V.D.Z.0.>.<.8 %XX./ [ Z F F F Z A C Z N n ].2X7 ;.",
"<.w J `.&XF C N N N N Z M p 8 5.G.C.A.F.D.F.C.S.A.x.6.9 S.F.C.C.C.C.M.x.0.5.N.D.D.Z.6.*.-.4 ! ^ / E Z A Z Z A Z F M b  X].1X7 =.",
",.w P `.~.-XM Z M Z N Z A J $ 5.x.M.F.F.F.F.C.H.6.5.G.m.Z.M.M.F.F.F.M.G.*.5.Z.C.C.Z.Z.G.*.O !.} [ b M C Z b B Z N N z ].].2X7 >.",
";.t P *XOXOX).E | W [  .H k 0 6.Z.M.F.n.S.S.S.Z.7.*.J.C.M.C.C.C.D.C.m.Z.9 6.Z.C.A.A.C.x.7.$ W.! C Z A C V R E M N n ].#.%.1X7 =.",
">.r.p ~.+X+XOXE X.X..XR.o 5 l.A.C.D.F.D.D.C.S.S.*.8.Z.D.F.F.F.C.C.A.pXsXtXuXdXsXM.M.C.Z.*., & o :XC C E R R E } c [.}.#.@.2Xs =.",
",.e h *XlXzXOX)./..X-XE.4 6.A.D.D.F.D.D.D.A.x.v.5.6.n.D.D.D.C.C.C.M.tXtXrXuXtXsXB.M.D.Z.0.=.4.* #X).OX`.R | R m [.].@.@.#.<X6 =.",
"=.e E.(.lXlX*X).(.-X< 4 z.m.A.C.F.C.C.C.C.N.q.5.x.A.D.D.D.D.A.M.M.F.F.m.6.9 m.n.A.C.F.A.0.*.>.= h &X&X&X-X).'.m ].#.#.%.#.3X7 =.",
",.w E._.OX+X=X&X_.#X* :.Z.M.n.A.D.D.S.C.D.Z.*.8.Z.S.D.D.C.F.C.A.B.D.D.Z.5.5.Z.A.F.M.F.Z.6.,.>.$ h F ).).=X&X(. X].#.#.#.@.>X7 =.",
">.q E.`.-X+XzX+XOXfX= :.m.M.M.C.F.C.F.C.F.Z.8.5.Z.C.C.C.F.M.C.A.F.C.F.Z.5.0.S.F.V.V.n.Z.8.>.>.& h A C &X=XlX(..X[.#.@.@.@.4X7 >.",
">.e E.&X=XzXzXzXlXfX+ 5 z.Z.C.F.C.F.C.D.n.m.0.9.H.S.A.Z.M.V.A.A.C.A.S.G.*.,.c.Z.F.n.F.Z.5.=.>.* p m N b `.OX).^.XX].}.#.%.2X7 >.",
":.w L _.&XOXzXzXlX+X#XhX5 6.S.n.n.n.F.C.F.S.*.0.Z.M.F.n.V.V.F.C.F.Z.8.:.>.>.-.5.Z.F.S.S.> ; =.O H b [.|.(.).).).'.|.|.[.{.6Xf =.",
":.y P -XOXOX=X=X=XOXOXgX& 0.m.F.B.B.M.A.Z.x.9.6.Z.V.B.n.V.V.D.C.A.c.,.4.=.=.=.7.Z.A.H.x.7.t $ < 6X[.#.$.XX).0X~.~.(.^.^./.=X7 =.",
",.w gXOXOX+X*XOX&X).C j % 8.Z.D.D.D.C.Z.5.9.x.A.F.B.C.C.F.B.B.A.6.*.,.-.-.; =.0 H.Z.8.;.=.* kX X[.$.#.].XX'.0XlX=X*X&X)./.%Xw >.",
">.r gX*X*XOXOX*XC M M G < 4 l.Z.A.N.H.l.6.5.S.D.F.D.C.S.M.Z.Z.Z.*.=.-.<.-.; ; -.x.x.,.-.=    X#.#.#.%.#.XX^.&X*X*X&X&XE /.=X7 ;.",
"2., gXOX~.~.A B m v [.[. XkX4 -.0.0.*.8.l.C.A.S.C.A.A.x.9.*.0.,.=.=.,.,.-.-.,.>.:.9.>.$ kXXX].#.@.@.&.].XX~.`.&X).E R ] / -X7 >.",
"2.e gX'.B n n XX|.].#.#.#.XX. @ O + @ 4 z.Z.Z.Z.Z.Z.S.v.,.=.=.=.4.-.- = % % ,.=.,.> - . XX&.@.#.@.@.].[.^.`.`.).B R ] / ^ !.w >.",
">.s 6X].].].].}.#.$.@.@.@.]. X1X8X! ~.@X4 6.7.:.5.0.7.*.,.=.<.,.-.= # W.E.o - >.=.- l G XX&.@.@.@.#.|.^.`.~.F A C A [ { / R.w ;.",
"=.6 4X@.@.@.%.@.@.@.@.@.@.@.#.#.[.z ` _.# - - = O O $ % * % * $ = 2 E.E.R.gX1 % % @ K N ].@.@.@.#.[.^.`.&XA C C C C N N { R.q >.",
",.6 3X@.#.#.@.@.#.@.@.@.#.#.&.%.[.c E R.Q.Q.Q.W.E.R.fXgXP h L P W.W.W.W.W.W.Q.Q.l j G N ].#.@.].[. X_.&X~.A C A M Z Z Z M p t >.",
"*.6 6X$.].@.@.@.@.@.@.@.@.@.@.@.].c R.X 3 3 d u E.J ;XgXfXp P P I < u u u 3 u 3 3 j H C ].#.].[./.'.).OXC E E | C Z Z Z G j f 4.",
">.r kXXX#.@.&.@.@.@.&.@.@.@.#.#.#.|.X u 8 q t t w 7 w t w f 7 8 t f f e e e t e , d X F [.].XX(._.).).).F 7X3X| C G Z C H l f >.",
">.- 3 8X6X4X>X<X<X2X1X2X>X3X3X2X>X8Xl b.e e.e.p.i.u.e.1.i.e.e.e.e.i.1.1.u.i.i.e.i.e s cX8X1X;X#XgXgXfX;XP xXxXE.I L J h l d - >.",
"=.; = s s s d d 7 w y 7 6 7 6 s 7 w r.e.i.p.p.p.p.u.p.u.p.u.p.i.u.p.p.p.1.p.i.i.i.e.r.r.f 6 s f e e r q r w r w w w w w e - =.=.",
";.=.,.=.>.4.4.>.2.2.;.>.,.=.=.=.>.3.;.>.:.>.;.=.>.,.<.>.>.<.>.=.,.=.2.2.2.>.>.=.=.>.2.2.>.>.>.4.>.4.>.>.>.:.=.:.>.>.=.=.>.>.>.=."
};
