/* XPM */
static char *result[] = {
/* columns rows colors chars-per-pixel */
"64 64 227 2 ",
"   c #080707",
".  c #06040C",
"X  c #141003",
"o  c #060412",
"O  c #09081A",
"+  c #180E1D",
"@  c #19161A",
"#  c #2C191A",
"$  c #2C250A",
"%  c #322C0C",
"&  c #2D2619",
"*  c #36271A",
"=  c #040224",
"-  c #0A0523",
";  c #000029",
":  c #0D0B29",
">  c #19012C",
",  c #1B1A24",
"<  c #191629",
"1  c #010132",
"2  c #0C0333",
"3  c #0C0937",
"4  c #01003C",
"5  c #1A0438",
"6  c #1B1736",
"7  c #221B28",
"8  c #2A1F3B",
"9  c #3D1734",
"0  c #232324",
"q  c #23232C",
"w  c #28272C",
"e  c #28282A",
"r  c #292537",
"t  c #322939",
"y  c #363537",
"u  c #353339",
"i  c #3C3C3C",
"p  c #4C360E",
"a  c #493610",
"s  c #45441A",
"d  c #564816",
"f  c #644B09",
"g  c #6D520C",
"h  c #6F5410",
"j  c #70641E",
"k  c #585825",
"l  c #746B24",
"z  c #7B762E",
"x  c #010045",
"c  c #0B0144",
"v  c #01014B",
"b  c #190447",
"n  c #171545",
"m  c #010053",
"M  c #01005B",
"N  c #0B0258",
"B  c #1C0858",
"V  c #19185B",
"C  c #280348",
"Z  c #300E51",
"A  c #2B2B47",
"S  c #372646",
"D  c #3E3D42",
"F  c #3D3847",
"G  c #392759",
"H  c #33335A",
"J  c #010064",
"K  c #0A0063",
"L  c #020069",
"P  c #0A006D",
"I  c #150068",
"U  c #131365",
"Y  c #0D0071",
"T  c #130076",
"R  c #1B0076",
"E  c #160078",
"W  c #1B007C",
"Q  c #240063",
"!  c #390463",
"~  c #24017B",
"^  c #29007B",
"/  c #370073",
"(  c #342F6B",
")  c #32306B",
"_  c #42374B",
"`  c #45265D",
"'  c #460E6D",
"]  c #451867",
"[  c #460878",
"{  c #431475",
"}  c #501E76",
"|  c #46397B",
" . c #424242",
".. c #45454B",
"X. c #4E4E4E",
"o. c #494955",
"O. c #545454",
"+. c #56565A",
"@. c #5A5A5B",
"#. c #5D5D67",
"$. c #47437D",
"%. c #646464",
"&. c #6A6A6A",
"*. c #6F6E70",
"=. c #747474",
"-. c #767679",
";. c #7C7C7C",
":. c #956E10",
">. c #8D7321",
",. c #A88724",
"<. c #D19B06",
"1. c #CCA419",
"2. c #E0A607",
"3. c #F9B908",
"4. c #C9A63D",
"5. c #CCB433",
"6. c #E2BD2C",
"7. c #DEC434",
"8. c #F9D02B",
"9. c #BEA852",
"0. c #C9B158",
"q. c #DCC75A",
"w. c #F4D951",
"e. c #D5C06A",
"r. c #FFEC6A",
"t. c #FFEB76",
"y. c #FFFC7B",
"u. c #240083",
"i. c #2A0086",
"p. c #2B0188",
"a. c #320085",
"s. c #31008E",
"d. c #38008B",
"f. c #251884",
"g. c #3B0095",
"h. c #3B0195",
"j. c #343385",
"k. c #383392",
"l. c #490686",
"z. c #4D018A",
"x. c #52038D",
"c. c #4C1584",
"v. c #44009B",
"b. c #470498",
"n. c #49009E",
"m. c #560498",
"M. c #511892",
"N. c #503992",
"B. c #4C00A1",
"V. c #4C09A1",
"C. c #5201A5",
"Z. c #5B00A3",
"A. c #5601A9",
"S. c #5C01AD",
"D. c #5E0EAA",
"F. c #4F17A4",
"G. c #5716A8",
"H. c #5F00B0",
"J. c #5F0BB1",
"K. c #6100AA",
"L. c #691CAA",
"P. c #6401B4",
"I. c #6801B7",
"U. c #640BB3",
"Y. c #680CB7",
"T. c #6812B7",
"R. c #6518B5",
"E. c #681BB7",
"W. c #5826AA",
"Q. c #5A33A3",
"!. c #5F33B0",
"~. c #6526AA",
"^. c #6631A9",
"/. c #6824B7",
"(. c #6429B4",
"). c #682CB7",
"_. c #6832B7",
"`. c #633BB2",
"'. c #683BB7",
"]. c #7F30BB",
"[. c #47429C",
"{. c #544C97",
"}. c #555596",
"|. c #7D7C81",
" X c #5C55A9",
".X c #5E4EB0",
"XX c #6347AF",
"oX c #6543B3",
"OX c #6843B7",
"+X c #654CB3",
"@X c #684CB7",
"#X c #6655B4",
"$X c #6854B7",
"%X c #665CB5",
"&X c #685CB7",
"*X c #6D64A9",
"=X c #6D6CA9",
"-X c #6665B4",
";X c #6865B7",
":X c #6868B7",
">X c #7F7FBB",
",X c #808080",
"<X c #8B8B8B",
"1X c #8F8F90",
"2X c #949494",
"3X c #979799",
"4X c #9B9B9C",
"5X c #A2A2A2",
"6X c #A8A7A9",
"7X c #ACACAC",
"8X c #B5B5B5",
"9X c #BBBBBB",
"0X c #E6DC90",
"qX c #FDE98C",
"wX c #FFF985",
"eX c #FFF796",
"rX c #FFF7A0",
"tX c #FEFEAB",
"yX c #F4EEB6",
"uX c #C4C4C4",
"iX c #CCCCCC",
"pX c #FFFFC5",
"aX c #FFFFD6",
"sX c #FFFFE3",
"dX c #FFFFEC",
"fX c #FFFFF3",
"gX c #FFFFFF",
/* pixels */
"iXiXiXiXiX,X,X,X,X,XiXiXiXiXiX,X,X,X,X,XiXiXiXiXiX;.,X,X|.,XiXiXiXiXiX,X,X,X,X,XiXiXiXiXiX,X,X,X,X,XuXiXiXiXiX,X,X,X,X,XuXiXiXiX",
"iXiXiXiXiX,X,X,X,X,XiXiXiXiXiX,X,X,X,X,XiXiXiXiXiX,X,X,X,X,XiXiXiXiXiX,X,X,X,X|.iXiXiXiXiX,X,X,X,X;.uXiXiXiXiX,X,X,X,X,XuXiXiXiX",
",X,X,X,X,XiXiXiXiXiX;.,X,X,X,XiXiXiXiXiX,X,X,X,X,XiXiXiXiXiX,X,X,X,X,XiXiXiXiXiX,X,X,X,X,XiXiXiXiXiX<X,X,X,X,XiXiXiXiXiX<X,X,X,X",
",X;.,X,X,XiXiXiXiXiX,X,X,X,X,XiXiXiXiXiX,X,X,X,X,XiXiXiXiXiX,X,X,X,X,XiXiXiXiXiX,X,X;.,X,XiXiXiXiXiX,X,X,X,X,XuXiXiXiXiX,X,X,X,X",
",X,X,X,X,XiXiXiXiXiX,X,X,X,X;.iXiXiXiXiX|.,X,X,X,XiXiXiXiXiX,X,X,X,X,XiXiXiXiXiX,X,X,X,X,XiXiXiXiXiX,X,X,X,X,XuXiXiXiXiX<X,X,X,X",
",X,X,X,X,XiXiXiXiXiX,X,X,X,X,XiXiXiXiXiX,X,X,X,X,XiXiXiXiXiX|.|.,X,X,XiXiXiXiXiX,X,X,X,X,XiXiXiXiXiX<X,X,X,X,XuXiXiXiXiX<X,X,X,X",
"iXiXiXiXiX,X;.,X,X,XiXiXiXiXiX,X,X,X,X,XiXiXiXiXiX-.O.X.X.X.9.|.;.,X|.O.X.*.,X,XiXiXiXiXiX,X,X|.,X,XuXiXiXiXiX<X,X,X,X,X9XiXiXiX",
"iXiXiXiXiX,X,X,X,X,XiXiXiXiXiX,X,X,X,X,XiXiX4X&.%._ Z G H H U ) H H H H Z F  .D 1XiXiXiXiX,X,X,X,X,XuXiXiXiXiX,X,X,X,X,XuXiXiXiX",
"iXiXiXiXiX,X,X,X,X,XiXiXiXiXiX,X,X,X,X;.=...` [ { $.oX;X:X:X:X:X:X:X:X-X+XN.( [ ] ..%.uXiX9.=X|.,X,XuXiXiXiXiX,X,X,X,X,X9XiXiXiX",
"iXiXiXiXiX,X,X,X,X,XiXiXiXiXiX,X,X-.e 7 ] z.m.E.$X:X:X:X:X:X:X:X:X:X:X:X:X:X@X/.Z.z.[ t  .=.|.-.,X,XiXiXiXiXiX,X,X,X,X,XuXiXiXiX",
",X,X,X,X,XiXiXiXiXiX;.,X,X,X,XiX5XS x.m.K.I.).&X;X;X:X:X:X:X:X:X:X:X:X:X:X:X:X%X_.I.K.m.z.8 4XuXiXiX,X,X,X,X,XiXiXiXiXiX<X,X,X,X",
",X,X,X,X;.iXiXiXiXiX,X,X,X|.;.<XS m.P.I.I._.&X:X:X:X:X:X:X:X:X:X:X:X:X:X:X:X:X:X;X'.I.I.P.m.Z ;.9XiX<X,X,X,X,XuXiXiXiXiX<X,X,X,X",
",X,X,X,X,XiXiXiXiXiX,X,X9.*...3 ~ K.I.I.T.OX:X:X:X:X:X:X:X:X:X:X:X:X:X:X:X:X:X:X:X@XT.I.I.I.i.n #.8X,X,X,X,X,XuXiXiXiXiX<X,X,X,X",
",X,X,X;.,XiXiXiXiXiX,X,X=XA ; E S.I.I.I.OX;X:X:X:X:X:X:X:X:X:X:X:X:X:X:X:X:X:X:X:X;X$XI.I.I.P.~ 1 @.,X,X,X,X,XuXiXiXiXiX,X,X,X,X",
"iXiXiXiXiX,X,X,X,X,XiXiX5Xo.4 W H.P.I.I.OX:X:X:X:X:X:X:X:X:X:X:X:X:X:X:X:X:X:X:X:X:X$XY.I.I.I.i.x r 3XiXiXiXiX<X,X,X,X,XuXiXiXiX",
"iXiXiXiXiX,X,X,X;.,XiXiX+.1 L W P.I.I.P.OX:X:X:X:X:X:X:X:X:X:X:X:X:X:X:X:X:X:X:X:X:X$XI.I.I.I.i.L 4 i uXiXiXiX,X,X,X,X,X9XiXiXiX",
"iXiXiXiXiX,X,X,X=X-.uXiX+.1 E B.P.I.I.I.OX:X:X:X:X:X:X:X:X:X:X:X:X:X:X:X:X:X:X:X:X:X$XY.I.I.I.B.W 4 D uXiXiXiX,X,X,X,X,XuXiXiXiX",
"iXiXiXiXiX,X,X,X9.;.uX#.n M u.I.I.I.I.I.OX:X:X:X:X:X:X:X:X:X:X:X:X:X:X:X:X:X:X:X:X:X$XI.I.I.I.P.s.M n +.iXiXiX,X,X,X,X,XuXiXiXiX",
",X,X,X,X,XiXiXiXiXiX;.e 4 L u.I.I.I.I.I.OX:X:X:X;X;X:X:X:X:X:X:X:X:X:X:X:X:X;X:X:X:X$XI.I.I.I.P.s.J v , ,X,X,XuXiXiXiXiX<X,X,X,X",
",X,X,X,X;.iXiXiXiXiX;.0 4 J u.P.I.I.I.I.Y.OX:X:X;X;X#XE.J.J.J.J.J.J.U.Y.@X;X;X;X:X@XY.I.I.I.I.P.s.L x 0 ,X,X|.iXiXiXiXiX<X,X,X,X",
";.,X,X,X,XiXiXiXiXiX;.e 4 L u.I.I.I.I.I.I._.$X'.Y.P.A.B.E P L P L P T C.A.U.P._.$X'.I.I.I.I.I.P.s.L v , 9.=X,XuXiXiXiXiX,X,X,X,X",
",X,X,X,X,XiXiXiXiXiX;.0 4 L u.I.I.I.I.I.I.I.I.I.P.b.P P m v v v v v m L P h.H.I.I.I.I.I.I.I.I.I.s.L x 0 |.|.,XiXiXiXiXiX<X,X,X,X",
"iXiXiXiXiX,X,X,X,X;.uXi 4 J u.I.I.I.I.I.P.P.A.v.s.L v 4 a k k k k k a x x J p.g.C.I.I.I.I.I.I.P.s.L v u uXiXiX,X,X,X,X,XuXiXiXiX",
"iXiXiXiXiX,X,X,X,X;.uXi 4 L u.P.I.I.)._.)._.F.u.M 3 f >.e.eXtXtXtXrXe.z h 7 M E F.)._.).).I.I.P.p.L x u iXiXiX|.;.,X,X|.uXiXiXiX",
"iXiXiXiXiX,X,X;.,X,XuXi 4 L Y h.U.'.;X:X:X:X$XW.a.3 g 6.wXsXgXgXgXsXeX8.h 7 ^ W.+X:X:X:X;XOXY.v.T J v y iXiXiX,X,X,X,X,XuXiXiXiX",
"iXiXiXiXiX,X,X,X,X,XuX5X..4 L W R.%X:X:X:X:X:X%X.X[.[ a a 4.t.eXt.4.d p ] N..X$X:X:X:X:X:X:XE.u.J v A 3XiXiXiX<X,X,X,X,XuXuXiXiX",
",X,X,X,X,XiXiXiXiXiX,X,Xy 1 L W H.E.;X;X:X:X:X:X:X;X$X{.U @ $ & % @ V }.#X;X;X;X:X:X:X:X&XE.Y.u.L 4 q -.,X,X,XuXiXiXiXiX<X,X,X,X",
",X,X,X,X,XiXiXiXiXiX,X,X;.D ; L W S.P.Y.+X-X:X:X;X:X:X:X-X~.K.K.K.R.%X-X:X:X;X:X:X:X$XY.P.I.u.J 1 +.;.,X,X,X,XuXiXiXiXiX<X,X,X,X",
",X,X,X;.,XiXiXiXiXiX,X,X,X .; L L L L L L L L u.G.%X;X:X:X:X).I.E.;X:X:X%X.XW.p.L L L L L L L L ; O.9.=X,X,X,XiXiXiXiXiX<X,X,X,X",
",X,X,X,X,XiXiXiXiXiX,X,X,XX.< M J J m v m m m m L P b.oX@X@X/.I.E.@X$X+XF.E L M v v m m m J L M n =.|.|.,X,X,XuXiXiXiXiX,X,X,X,X",
"iXiXiXiXiX,X,X,X,X,XiXiXiXiX,X- R M . * k k d * x v P h.P.I.I.I.I.I.P.v.T v v 0 d k k s   M E 3  .|.uXiXiXiXiX,X,X,X,X,XuXiXiXiX",
"iXiXiXiXiX,X,X,X,X,XiXiXiXiX,X> C.^ . 5.wXtXqX0.l f 3 L B.I.I.I.I.I.C.P 3 p j 9.qXtXeX5.& ^ A.b  .|.uXiXiXiXiX,X,X,X,X;.uXiXiXiX",
"iXiXiXiXiX,X,X,X,X,XiXiXiXiX<X> K.Z.c d e.aXgXdXeX6.@ m u.A.I.I.I.A.i.J O 4.eXaXgXsX0Xf b Z.P.C  .,XuXiXiXiXiX<X;.,X,X,XuXiXiXiX",
"iXiXiXiXiX,X,X,X,X,XiXiXiXiX,X: K.P.n.> ,.r.pXgXfXyX,.7 m b.I.I.I.B.J O :.0XfXgXaXr.1.+ l.P.P.C  .,XuXiXiXiXiX,X,X,X,X,X9XiXiXiX",
",X,X;.,X,XiXiXiXiXiX,X,X,X,XO.= ~ S.I.m.9 $ >.w.wXy.q.% m Y b.I.B.T M   7.y.wXw.,.% # x.P.I.p.2 &.iX<X;.,X,X,XuXiXiXiXiX<X,X,X,X",
",X,X,X,X,XiXiXiXiXiX,X,X,X,X;.<X: I K.oXW.~ 3 X d 3.2.$ m J k.;X[.L m   <.3.g X - ~ T.@XJ.Y = -.uXiX<X,X,X,X,XiXiXiXiXiX<X,X,X,X",
",X,X,X,X,XiXiXiXiXiX;.,X,X,X,X4X< m J n.oX-X_.h.N     o m J k.:X[.J M o o o m h.(.-X.XV.P M : ,XiXiX,X;.,X,X;.uXiXiXiXiX<X,X,X,X",
",X,X,X<X,XiXiXuXuXiX,X,X,X,X<XuX6Xy 0 v m a.W. X%X-X#X(.p.; ( #X| - R R.%X:X;X XQ.d.M v , 0 4XuXuXuX<X<X,X<X,XuXuXuXiXuX<X,X<X,X",
"iXiXiXiXiX,X,X,X,X,XiXiXiXiXiX,X|.|.9.A i n M W F.@X@XOXT.C Q n./ b D.OX@X+XG.u.M n i +.8X,X,X,X,X,XuXiXiXiXiX<X,X,X,X,XuXiXiXiX",
"iXiXiXiXiX,X,X,X,X,XiXiXiXiXiX,X|.|.|.|.uX<XA v T g.P.I.I.g.T L Y h.P.I.P.v.E m A ;.iXiXiX,X,X,X,X,XuXiXiXiXiX,X,X,X,X,X9XiXiXiX",
"iXiXiXiXiX,X,X,X;.,XiXiXiXiXiX;.|.,X|.|.iXiX5Xo.4 Y S.P.I.I.B.h.B.P.I.I.P.R x r 3XiXiXiXiX,X,X;.,X,XiXiXiXiXiX,X,X,X;.,XuXiXiXiX",
"uXuXuX9XuX<X<X<X<X<XuXuXuX9XuX<X<X<X<X<XuXuXuX6X%.1 ~ H.I.P./.+X(.P.P.P.a.c D -.uXuX9XuXuX<X<X<X<X<X9XuXuXuXuX1X<X<X<X<X9X9XuXuX",
",X,X;.,X;.iXiXiXiXiX;.,X,X,X,XiXiXiXiXiX,X,X|.,X#.o K V.p.W B 6 n E p.H.Y : <XiX,X,X,X,X,XiXiXiXiXiX,X,X,X,X,XuXiXiXiXiX|.|.;.,X",
",X,X,X,X,XiXiXiXiXiX,X,X,X,X,XiXiXiXiXiX,X,X,X,X;.3X< K P g.Q.}.Q.v.Y Y - |.uXiX,X,X,X,X,XiXiXiXiXiX,X,X;.,X;.iXiXiXiXiX<X=X9.,X",
",X,X,X,X,XiXiXiXiXiX,X,X,X,X,XiXiXiXiXiX,X,X,X,X|.8X< M B.P._.&XOXI.C.J O 2XiXiX,X,X,X;.,XiXiXiXiXiX,X,X,X,X,XuXiXiXiXiX<X|.|.,X",
"1X1X1X1X<X9X9X9X9X9X1X1X1X1X1X9X9X9X9X9X1X<X1X1X<X6Xr m v.P.I.I.I.P.n.m < 2X9X9X1X1X<X1X1X9X9X9X9X9X2X1X1X1X1X9XuX9X9X9X1X<X1X1X",
"iXiXiXiXiX,X,X,X,X,XiXiXiXiXiX,X,X,X,X,XiXiXiXiXuX=X*., 1 a.n.B.B.d.x   &.,X,X,XiXiXiXiXiX,X,X,X,X,XiXiXiXiXiX,X;.,X|.,XuXiXiXiX",
"iXiXiXiXiX,X,X,X,X,XiXiXiXiXiX,X,X,X,X,XiXiXiXiXuX9.*.@ 5 c 4 x 4 c 5   &.,X,X,XiXiXiXiXiX,X,X,X,X,XuXiXiXiXiX,X,X,X,X|.uXiXiXiX",
"iXiXiXiXiX|.,X,X,X,XiXiXiXiXiX,X,X,X,X,XiXiXiXiXiX;._ ' Z.Q b ! B B m.! _ &.,X;.iXiXiXiXiX,X,X,X,X,XuXiXiXiXiX,X,X,X,X,XuXiXiXiX",
"8X9X8X9X9X2X2X1X2X2X9X8X8X9X9X2X2X1X2X1X8X8X8X1Xo.t ' ~.T.u.h.I.n.u.J.`.[ t t %.8X8X9X8X9X1X2X1X1X2X8X9X9X9X9X2X2X2X2X2X8X8X9X9X",
",X,X,X,X|.iXiXiXiXiX,X,X,X,X,XiXiXiXuX9X..w w S l.l.XX&X$Xf.h.I.n.f.+X;X+XM.l.` e e u -.;.iXiXiXiXiX,X,X|.,X=XuXiXiXiXiX<X,X|.,X",
",X,X,X,X,XiXiXiXiXiX,X,X-.=.-.9X9X6Xi t ' N.{.}.$X$X:X:X:XW.S.I.P.G.;X:X:X&X$X X}.N.l.7 w 6X9X9X9X9X,X,X|.|.|.uXiXiXiXiX<X,X,X,X",
",X,X9.=X|.uXiXiXiXiX;.=.D , , q q 8 m.G.oX;X:X:X:X:X:X:X:X:X).I./.#X:X:X:X:X:X:X:X:X+XL.m.r q q q q u *.|.,X9.9XiXiXiXiX,X,X,X,X",
"3X3X2X3X3X7X8X8X8X8X;.t / oX-X:X-X;X:X;X;X:X:X;X&X$X&X$X;X:X_.P./.;X:X#X$X$X$X;X:X:X;X;X;X;X-X-X-XXXl.S -.2X2X8X8X8X8X8X4X3X2X3X",
"iXiXiXiXiX,X,X,X;.=.u c.oX:X:X:X;X@X@X;X:X:X$X_.I.I.I.I.'.&X!.B.W.%XOXI.I.I.I.).$X;X;X;X$X@X;X:X:X:X+Xc.  8XiX,X,X,X,X,XuXiXiXiX",
"iXiXiXiXiX|.,X,X|.O.G {.:X:X:X:X$XU.v.!.OXOX/.I.I.I.I.I.I.).f.P f._.I.I.I.I.I.I.E.OXOX!.V.H.@X;X:X:X:X}.Z |.9X<X,X,X,X;.uXiXiXiX",
"iXiXiXiXiX|.=X9.;.< z./.$X:X:X&X).A.Y C.I.I.I.I.I.I.I.I.I.v.E L Y h.P.I.I.I.I.I.I.I.I.A.W S./.$X:X:X$X).A.< 4X,X,X;.,X,XuXiXiXiX",
"7X8X7X8X7X3X1X4X2X7 Q A.T./.).G.i.u.L B.I./.OXOXOX'.I.I.I.B.W L T B.P.I.I._.'.OXOX).I.A.T u.p.F./.).E.A.~ @ <X4X4X4X4X4X7X7X7X8X",
",X,X,X,X|.iXiXiXuXw m n.P.P.x.b J L J C.I.'.;X;X:X;X@X@X@XE.A.B.C.T.OX@X@X;X:X:X:XOXI.A.P L J b [ I.P.B.M O %.iXiXiXiXiX<X,X,X,X",
"|.,X,X,X,XiXiXiXiX3X< N b.P.b.x ; v O b.P.T.'.:X:X:X:X:X:X$X).Y./.$X;X:X;X:X:X:XOXY.I.b.2 m ; 4 d.I.V.I O @.-.uXiXiXiXiX<X,X,X,X",
",X,X,X,X,XiXiXiXiX9X0 x h.I.n.N o @ . N B.I.).&X;X:X:X:X:X:X;X$X&X:X:X:X:X:X:X;X_.I.C.I o ,   v h.I.n.m   =.,XiXiXiXiXiX<X,X,X,X",
"5X5X5X4X5X6X6X6X6X4Xw x h.I.P.l.7 -.X m h.K.I./.$X$X;X:X:X:X;X:X:X:X:X-X;X$X$X).I.S.v.M + <Xe / P.I.n.m   1X5X7X6X7X7X7X4X5X5X4X",
"iXiXiXiXiX,X,X,X,X-.+.) ^.].].c.u &.e V ) !.].].].~.*X=X-X=X>X>X3X>X>X=X=X^.L.L.].!.j.) ..=.r } L.L.^.( D 9XiX,X;.,X;.,XuXiXiXiX",
"iXiXiXiXiX,X,X,X,X,XiXiXiXiXiX,X,X,X,X|.iXiXiXiXiX;.@.O.+.o.<X<X|.|.<XO.O.=.,X,XiXiXiXiXiX,X|.=X9.,XuXiXiXiXiX,X,X,X,X,XuXiXiXiX"
};
