/* XPM */
static char *Capture_d_____cran_du_2023_04_02_16_51_58_resized[] = {
/* columns rows colors chars-per-pixel */
"60 79 105 2 ",
"   c #010000",
".  c #0B0203",
"X  c #060608",
"o  c #0B0A0E",
"O  c #160306",
"+  c #180407",
"@  c #1F0409",
"#  c #0D0C10",
"$  c #1A0A10",
"%  c #151515",
"&  c #15131A",
"*  c #19161F",
"=  c #1C1C1C",
"-  c #24050A",
";  c #2B060C",
":  c #34060D",
">  c #38070F",
",  c #36080F",
"<  c #38080F",
"1  c #390710",
"2  c #370810",
"3  c #3B0911",
"4  c #3C0F1A",
"5  c #22131C",
"6  c #351117",
"7  c #3C121E",
"8  c #3C181E",
"9  c #1A1620",
"0  c #1E1B26",
"q  c #2A1621",
"w  c #201C27",
"e  c #201D28",
"r  c #3D1623",
"t  c #3C1926",
"y  c #351F2E",
"u  c #3D1B29",
"i  c #222222",
"p  c #2B2B2B",
"a  c #3D202F",
"s  c #262230",
"d  c #2B2535",
"f  c #2E293A",
"g  c #3E2233",
"h  c #3F2739",
"j  c #312B3D",
"k  c #3F293B",
"l  c #373737",
"z  c #440A14",
"x  c #4B0B16",
"c  c #4C0F1B",
"v  c #540D19",
"b  c #5C0E1B",
"n  c #40131F",
"m  c #49121F",
"M  c #54121F",
"N  c #640F1D",
"B  c #690F1E",
"V  c #65101E",
"C  c #6C101F",
"Z  c #421522",
"A  c #4B1523",
"S  c #431826",
"D  c #461C2C",
"F  c #491A29",
"G  c #571220",
"H  c #5B1321",
"J  c #551928",
"K  c #6E1120",
"L  c #731121",
"P  c #7C1324",
"I  c #412233",
"U  c #412739",
"Y  c #40293C",
"T  c #362F43",
"R  c #3F2D41",
"E  c #373044",
"W  c #3D354B",
"Q  c #402E43",
"!  c #403146",
"~  c #41354B",
"^  c #41384F",
"/  c #423A52",
"(  c #444444",
")  c #674349",
"_  c #6B474C",
"`  c #737373",
"'  c #7B7B7B",
"]  c #821426",
"[  c #871528",
"{  c #8C1629",
"}  c #92172B",
"|  c #96182C",
" . c #9B192F",
".. c #9E1A30",
"X. c #A11B31",
"o. c #969696",
"O. c #9F9F9F",
"+. c #A5A5A5",
"@. c #BABABA",
"#. c #C4C4C4",
"$. c #CDCDCD",
"%. c #E5E4E4",
"&. c #E8E8E8",
"*. c #F3F2F2",
"=. c #FEFDFD",
/* pixels */
"/ / / / / / / / / / / / / / / / / / / / / / / / / / / / / / / / / / / / / / / / / / / / / / / / / / / / / / / / / / / / ",
"/ / / / / / / / / / / / / / / / / / / / / / / / / / / / / / / / / / / / / / / / / / / / / / / / / / / / / / / / / / / / ",
"/ / / / / / / / / / / / / / / / / / / / / / / / / / / / / / / / / / / / / / / / / / / / / / / / / / / / / / / / / / / / ",
"/ / / / / / / / / / / / / / / / / / / / / / / / / / / / / / / / / / / / / / / / / / / / / / / / / / / / / / / / / / / / ",
"/ / / / / / / / / / / / / / / / / / / / / / / / / / / / / / / / / / / / / / / / / / / / / / / / / / / / / / / / / / / / ",
"/ / / / / / / / / / / / / / / / / / / / / / / / / / / / / / / / / / / / / / / / / / / / / / / / / / / / / / / / / / / / ",
"/ / / / / / / / / / / / / / / / / / / / / / / / / / / / / / / / / / / / / / / / / / / / / / / / / / / / / / / / / / / / ",
"/ / / / / / / / / / / / / / / / / / / / / / / / / / / / / / / / / / / / / / / / / / / / / / / / / / / / / / / / / / / / ",
"/ / / / / / / / / / / / / / / / / / / / / / / / / / / / / / / / / / / / / / / / / / / / / / / / / / / / / / / / / / / / ",
"/ / / / / / / / / / / / / / / / / / / / / / / ^ / / / / / / / / / / / / / / / / / / / / / / / / / / / / / / / / / / / / ",
"/ / / / / / / / / / / / / / / / / / / / ~ ! ! ! ~ ! ! ! ! ~ W ! ! ! ~ ^ / / / / / / / / / / / / / / / / / / / / / / / / ",
"/ / / / / / / / / / / / / / / / / / / ~ S 4 7 7 4 7 4 4 4 7 4 7 7 7 7 ! / / / / / / / / / / / / / / / / / / / / / / / / ",
"/ / / / / / / / / / / / / / / / / ^ ^ ! n 3 < z z z < z z 3 z z z < z R ^ ^ / / / / / / / / / / / / / / / / / / / / / / ",
"/ / / / / / / / / / / / / / / / / ~ r n C L [ { { { { { { { { { { } [ m 7 ! / / / / / / / / / / / / / / / / / / / / / / ",
"/ / / / / / / / / / / / / / / / / ! 4 3 L [  .X.X.X.X.X. .X.X. .X.X. .x 3 Y / ^ / / / / / / / / / / / / / / / / / / / / ",
"/ / / / / / / / / / / / / / / ! t n C C } | X.X.X.X.P v b v b b b v b P ] A t ! / / / / / / / / / / / / / / / / / / / / ",
"/ / / / / / / / / / / / / / / R 3 z P ] ..X.X.X.X.X.K , 3 2 3 2 < < < } X.v , h / / / / / / / / / / / / / / / / / / / / ",
"/ / / / / / / / / / / / / Q u F N B { } ..X.X.X.P N z O + O + O + O - M V K P J a Y / / / / / / / / / / / / / / / / / / ",
"/ / / / / / / / / / / / / Y 3 x P [ ..X.X.X.X.X.N , @                 : < [ X.V , a / / / / / / / / / / / / / / / / / / ",
"/ / / / / / / / / / / / / Y 3 x P [ ....X.X.P K 3 + O                 + - b L K C J g Y / / / / / / / / / / / / / / / / ",
"/ / / / / / / / / / / / / k 3 x P ]  .X.X...v , O                         ; , P X.L < t / / / / / / / / / / / / / / / / ",
"/ / / / / / / / / / / ~ k D v b ] [ ..X.X...v > O                         ; 3 L X.L < u / / / / / / / / / / / / / / / / ",
"/ / / / / / / / / / / g 3 v ] P ] ]  .X.X...v 1 O                         ; 3 P X.K < u / / / / / / / / / / / / / / / / ",
"/ / / / / / / / / / W g 2 v ] ] ] ] |  .....v 3 O   i ( p           X l ( 8 3 P X.K < t / / / / / / / / / / / / / / / / ",
"/ / / / / / / / / / / g 1 v ] ] [ ] P ]  ...v 3 O   ` *.O.          % #.*._ : P X.L < t / / / / / / / / / / / / / / / / ",
"/ / / / / / / / / / / g 1 v ] P L P ] ]  ...v 3 O   ' =.+.          % $.=._ : P X.C < S / / / / / / / / / / / / / / / / ",
"/ / / / / / / / / / / g 1 v ] K z z P ]  ...v > O   ' =.+.X         % $.=._ : L X.L , u / / / / / / / / / / / / / / / / ",
"/ / / / / / / / / / / g 1 v ] K > z P [  .X.v 3 O   ` &.o.          % @.%.) : P X.C > u / / / / / / / / / / / / / / / / ",
"/ / / / / / / / / / / g 1 v ] K 3 z P ]  . .v > O   % p =           X i p 6 > B [ V , u / / / / / / / / / / / / / / / / ",
"/ / / / / / / / / / / g 3 v ] K 3 z P ]  . .b 1 +                         ; 1 N [ b < u / / / / / / / / / / / / / / / / ",
"/ / / / / / / / / / / ~ R I x z < z P ] [ [ [ [ v ; O                     ; 3 B ] b < u / / / / / / / / / / / / / / / / ",
"/ / / / / / / / / / / / / k 4 3 3 z P ] ] ] | X.N , -                     ; , N [ b 3 S / / / / / / / / / / / / / / / / ",
"/ / / / / / / / / / / / ^ ~ Y Y k I v v L ] [ { L B x - +             - ; v B b v F h R / / / / / / / / / / / / / / / / ",
"/ / / / / / / / / / / / / / / / / R 4 1 L [ ] P ] ] b 2 -             : > K ] v 3 a / / / / / / / / / / / / / / / / / / ",
"/ / / / / / / / / / / / / / / / / ^ h I G b b b L ] K N x @ + + @ @ - v N b b F g Q / / / / / / / / / / / / / / / / / / ",
"/ / / / / / / / / / / / / / / / / / / ~ 7 1 1 2 N ] ] P K 3 2 2 3 , 3 L P x > U / / / / / / / / / / / / / / / / / / / / ",
"/ / / / / / / / / / / / / / / / / ^ h I v b v v K ] [ { P K K K N B B [ { N b F U Q / / / / / / / / / / / / / / / / / / ",
"/ / / / / / / / / / / / / / / / / ~ 4 1 L ] ] ] ] P } X.X.X.......X...X...{ ] v 1 y / / / / / / / / / / / / / / / / / / ",
"/ / / / / / / / / / / / / / / ^ k U x v ] { { [ [ [ | X...X.X.X.X.X.X.X...} [ N v F Y Q / / / / / / / / / / / / / / / / ",
"/ / / / / / / / / / / / / / / Q 3 z P [ | X.X.X.X.X.X.X.X.X.X.X.X.X.X.X.......{ P N 3 u / / / / / / / / / / / / / / / / ",
"/ / / / / / / / / / / / / / / Q 3 z P ] ......X.X.X.X...X.X.X.X.X.X.X.X.X.X.X.{ ] N 1 u / / / / / / / / / / / / / / / / ",
"/ / / / / / / / / / / / / / / Q 3 z P ] ....X.X.X.X.X.X.X.X.X.X.X.X.X.X.X.X.X.[ ] b , u / / / / / / / / / / / / / / / / ",
"/ / / / / / / / / / / / / / / Q 4 z P [ ..X.X.X.X.X.X.X.X.X.X.X.X.X.X.X.X.X.X.{ ] N > u / / / / / / / / / / / / / / / / ",
"/ / / / / / / / / / / / / / / Q 2 z | ......X.X.X.X.X.X.X.X.X.X.X.X.X.X.X.X.X... .C > u / / / / / / / / / / / / / / / / ",
"/ / / / / / / / / / / / ^ ^ ^ R 3 x | X.X...X.X.X.X.X.X.X.X.X.X.X.X.X.X.X.X.X.X.X.L > u ^ / / / / / / / / / / / / / / / ",
"/ / / / / / / / / / / / / k r A L P ..X.X.X.X.X.X.X.X.X.X.X.X.X.X.X.X.X.X.X.X.X.X.K > u / / / / / / / / / / / / / / / / ",
"/ / / / / / / / / / / / / Y 3 x P [ ....X.X.X.X.X.X.X.X.X.X.X.X.X.X.X.X.X.X.X...X.L , u ^ ^ / / / / / / / / / / / / / / ",
"/ / / / / / / / / / / / ^ Y 3 x P [ ..X.X.X.X.X.X.X.X.X.X.X. .{ { X.X.X.X.X.X.X.X.[ B H r I ^ / / / / / / / / / / / / / ",
"/ / / / / / / / / / / / / U 4 x ] ] ..X.X.X.X.X.X.X.X.X.X.X.| ] ] ..X.X.X.X.X.X.X.} ] B 1 r ~ / / / / / / / / / / / / / ",
"/ / / / / / / / / / / / / Y 1 x P [  .X.X.X.X.X.X.X.X.X.X.X.| ] ] ..X.X.X.X.X.X.X.} P B 1 S ~ / / / / / / / / / / / / / ",
"/ / / / / / / / / / / / / Y 1 x P ]  .X.X.X.X.X.X.X.X.X.X.X.| ] [ ..X.X.X.X.X.X.X.} ] B 1 S ^ ^ / / / / / / / / / / / / ",
"/ / / / / / / / / / / / / I 4 x ] [  .X.X.X.X.X.X.X.X.X. .| ] N B [ } ..X.X.X.| } [ ] B 1 r ^ / / / / / / / / / / / / / ",
"/ / / / / / / / / / / / / Y 3 x P [  .X.X.X.X.X.X.X...X.| ] C 1 z P P  .X.X.X.{ P ] ] B 1 S ^ / / / / / / / / / / / / / ",
"/ / / / / / / / / / / R U D v b P ] | |  .X.| | ..X. .| { ] K z z P ] } } ..X.{ ] ] P B 1 r ^ ^ / / / / / / / / / / / / ",
"/ / / / / / / / / / / g 3 v ] ] ] ] ] ]  .X.[ ] } X.} ] ] ] K 1 z P ] ] ]  .X.{ P ] ] B 1 r ^ / / / / / / / / / / / / / ",
"/ / / / / / / / / / / g 3 v P ] ] ] ] ] | | { [ }  .[ ] P C b ; , B K P P } ..[ ] ] ] B > Z ^ / / / / / / / / / / / / / ",
"/ / / / / / / / / / / g 2 v P ] [ ] ] ] ] ] | X.{ ] ] ] B 3 :   . , z L ] ] ] ] ] ] ] B 1 r ^ / / / / / / / / / / / / / ",
"/ / / / / / / / / / / g 1 v ] P L L P ] ] ] }  .[ P P P b : -   . , 1 L ] ] ] P L P ] B 1 r ^ / / / / / / / / / / / / / ",
"/ / / / / / / / / / / g 2 v ] L 3 x P ] ] P ] [ ] ] N 3 ;       . , 1 P ] ] P b 3 b ] B 1 r ^ / / / / / / / / / / / / / ",
"/ / / / / / / / / / / h 4 v P B 3 z P P P P P ] ] ] b 3 -       . ; 1 K P P P b 1 b P V 4 S ^ / / / / / / / / / / / / / ",
"/ / / / / / / / / / ^ ^ W I z z 3 z P P x z K ] ] ] b > -         . . 2 z L ] P P b z S ! ~ / / / / / / / / / / / / / / ",
"/ / / / / / / / / / / / ^ Y 4 3 3 z L P z 3 C P P ] N > - X   X       : 1 B ] P P b 3 u / / / / / / / / / / / / / / / / ",
"/ / / / / / / / / / / / ^ ^ Q h 3 3 x c U Q A x x x z > r f j T d X   : 1 z x x x F Q ! / / / / / / / / / / / / / / / / ",
"/ / / / / / / / / / / / / / / Q 3 3 3 4 Q / r > > > 3 1 u / / / E # . : 3 3 3 1 3 g / / / / / / / / / / / / / / / / / / ",
"/ / / / / / / / / / / / / / / ~ Q Y Y Q ^ ^ 5 O O O q Y Q / / / ^ j s $ + a ! Q Q Q / / / / / / / / / / / / / / / / / / ",
"/ / / / / / / / / / / / / / / / ^ / / ^ / ^ &       0 / / / / / / / W o   f / / ^ / / / / / / / / / / / / / / / / / / / ",
"/ / / / / / / / / / / / / / / / / / / / / / f e #   0 / / / / / / / W #   j ( / / / / / / / / / / / / / / / / / / / / / ",
"/ / / / / / / / / / / / / / / / / / / / / / / / 9   e / / / / / / / W o   f / / / / / / / / / / / / / / / / / / / / / / ",
"/ / / / / / / / / / / / / / / / / / / / / / / ^ *   0 / / / / / / / W #   j / / / / / / / / / / / / / / / / / / / / / / ",
"/ / / / / / / / / / / / / / / / / / / / / / / / *   e / / / / / / / W o   j / / / / / / / / / / / / / / / / / / / / / / ",
"/ / / / / / / / / / / / / / / / / / / / / / / / s & d / / / / / / / W w * T / / / / / / / / / / / / / / / / / / / / / / ",
"/ / / / / / / / / / / / / / / / / / / / / / / / ^ / / / / / / / / / / ^ ^ ^ / / / / / / / / / / / / / / / / / / / / / / ",
"/ / / / / / / / / / / / / / / / / / / / / / / / / / / / / / / / / / / / / / / / / / / / / / / / / / / / / / / / / / / / ",
"/ / / / / / / / / / / / / / / / / / / / / / / / / / / / / / / / / / / / / / / / / / / / / / / / / / / / / / / / / / / / ",
"/ / / / / / / / / / / / / / / / / / / / / / / / / / / / / / / / / / / / / / / / / / / / / / / / / / / / / / / / / / / / ",
"/ / / / / / / / / / / / / / / / / / / / / / / / / / / / / / / / / / / / / / / / / / / / / / / / / / / / / / / / / / / / ",
"/ / / / / / / / / / / / / / / / / / / / / / / / / / / / / / / / / / / / / / / / / / / / / / / / / / / / / / / / / / / / ",
"/ / / / / / / / / / / / / / / / / / / / / / / / / / / / / / / / / / / / / / / / / / / / / / / / / / / / / / / / / / / / ",
"/ / / / / / / / / / / / / / / / / / / / / ^ / / / ^ / ^ / ^ / / ^ / / / / / / / / / / / / / / / / / / / / / / / / / / / "
};
