/* XPM */
static char *_677336a587542cfe31ae40780ce060eA4cLR8gRtA102heA[] = {
/* columns rows colors chars-per-pixel */
"64 64 142 2 ",
"   c #322787",
".  c #352A86",
"X  c #382E86",
"o  c #332789",
"O  c #352A8A",
"+  c #382D8C",
"@  c #3D328E",
"#  c #3E3393",
"$  c #403595",
"%  c #403699",
"&  c #443999",
"*  c #4F44A5",
"=  c #5145A6",
"-  c #554AA7",
";  c #5247AB",
":  c #554AAD",
">  c #594DAE",
",  c #5C52AF",
"<  c #5447B1",
"1  c #564AB1",
"2  c #594EB2",
"3  c #5F53B7",
"4  c #5D52B5",
"5  c #5F54B4",
"6  c #5E54B5",
"7  c #5F55B5",
"8  c #5F55B6",
"9  c #5E54B7",
"0  c #5D52B4",
"q  c #5D52B8",
"w  c #5F55B8",
"e  c #5F54BA",
"r  c #5E53B8",
"t  c #6055B3",
"y  c #6055B5",
"u  c #6156B4",
"i  c #6054B6",
"p  c #6155B7",
"a  c #6056B6",
"s  c #6156B6",
"d  c #6157B7",
"f  c #6257B7",
"g  c #6156B6",
"h  c #6358B6",
"j  c #6259B6",
"k  c #6459B7",
"l  c #645BB6",
"z  c #675EB7",
"x  c #645AB6",
"c  c #685EB7",
"v  c #6054B8",
"b  c #6155B9",
"n  c #6157B8",
"m  c #6056B9",
"M  c #6357B9",
"N  c #6155BB",
"B  c #6157BA",
"V  c #6256B9",
"C  c #6258B8",
"Z  c #6358B8",
"A  c #6258B9",
"S  c #6359B9",
"D  c #6359BA",
"F  c #6258BB",
"G  c #6459B9",
"H  c #655AB8",
"J  c #645BB8",
"K  c #665BB9",
"L  c #6458BA",
"P  c #6559BB",
"I  c #645ABA",
"U  c #655ABA",
"Y  c #645ABB",
"T  c #655BBB",
"R  c #665BBB",
"E  c #655CB9",
"W  c #6359BC",
"Q  c #6358BE",
"!  c #6559BD",
"~  c #655BBC",
"^  c #645ABD",
"/  c #665ABC",
"(  c #675BBD",
")  c #655BBE",
"_  c #665ABE",
"`  c #665CBC",
"'  c #675CBC",
"]  c #665CBD",
"[  c #675DBD",
"{  c #675DBE",
"}  c #665CBF",
"|  c #655BBB",
" . c #685DBB",
".. c #685DBD",
"X. c #685FBC",
"o. c #6A5FBD",
"O. c #685CBE",
"+. c #685EBE",
"@. c #695EBE",
"#. c #685EBF",
"$. c #695FBF",
"%. c #695EBD",
"&. c #6961B7",
"*. c #6960BB",
"=. c #6960BD",
"-. c #6A61BC",
";. c #6B60BE",
":. c #6B62BF",
">. c #6C61BF",
",. c #6B61BD",
"<. c #7066BF",
"1. c #675DC0",
"2. c #675CC0",
"3. c #685CC0",
"4. c #695DC1",
"5. c #695FC0",
"6. c #685EC1",
"7. c #6A5EC0",
"8. c #6B5FC1",
"9. c #695FC2",
"0. c #6A5EC2",
"q. c #6B5FC3",
"w. c #695EC4",
"e. c #6A5EC1",
"r. c #6B60C0",
"t. c #6A60C1",
"y. c #6C61C1",
"u. c #6C60C2",
"i. c #6D61C3",
"p. c #6C62C2",
"a. c #6C62C3",
"s. c #6E63C3",
"d. c #6D64C1",
"f. c #6F66C1",
"g. c #6D61C5",
"h. c #6D63C4",
"j. c #6C62C5",
"k. c #6C62C2",
"l. c #7166C5",
"z. c #7369C6",
"x. c #7469C9",
"c. c #7469CB",
/* pixels */
". . . X O O O O + o O O O O O O O O O . + O O O O + O O + o O + O O O O O O +     O O O O O o o O + O O O + O O . .   . . O . X ",
"X . O $ # # # # # # # # # # % # # # # # # # # # # # # # # # # # # # # # $ # # # # # % # # # # # # # # # @ @ @ @ @ # @ # # . + O ",
". + & - : : ; ; < 1 < ; ; ; < < : * ; w 6 : : : ; : : ; ; ; ; < q W q : : : ; : - : ; ; 1 ; : : , , B j 7 7 *.w J R { ..5 & O . ",
"O # * 2 1 1 1 1 1 1 1 1 1 1 < < 1 1 2 t.w : < 1 1 1 1 1 q 1 : : q 1.q = : , 1 < 1 1 1 1 1 1 : : 1 : J X.=.*.w 2 0 : 1 2 g j $ . ",
"O % ; > ; 1 1 1 1 1 : 1 1 1 1 1 : : 2 a.t.q , = : : : 1 : : : : W q : : < : < : : 1 1 1 1 1 1 1 1 = 9 w w > ; : 1 1 1 1 : 2 # . ",
"o # ; 2 1 1 1 1 1 1 1 : 1 ; : 1 9 t.t.w 6 Q t.w M W W e , : 2 e t., ; : : : 1 : 1 1 : : : : : : 1 0 =.) , ; < 2 1 1 1 1 2 ; # O ",
"O $ = : : ; : 1 : : : : , 6 J ) t.q : : < < 1 q 1 2 2 q q e Q j.t.8 6 : : 2 : : 1 : 1 1 0 0 9 B X.t.t.1 : 1 2 1 1 2 1 : : ; % o ",
"o $ > t 4 4 4 4 J X.) J ) t.) J : : 1 : 1 1 1 1 1 1 < < < : 1 q w M t.) ) w e 1.} X.) } :.} :.d.X.J W ; : : : ; 1 ; : : : : # O ",
"X # 6 d.) t.t.X.X.) ) J d.d.J : : : : 1 : 1 1 1 1 1 : 1 : 1 1 - ; - 0 0.t.j.2.a.e 6 6 q , 9 ^ X.*.&.:.j g 4 g 4 v M 6 J =.w # O ",
". # w d.) w w ) X.) X.J X.=.J - 1 : 1 1 1 : 1 < 1 1 1 1 1 1 1 1 > ; - 0.W 2 2 ; 1 : : : ; : 1 > , j f.;.t...~ 0.0.t.t.;.F 0 # . ",
". # w w > 1 1 1 9 j X.X.a.t.6 = : : 1 2 1 1 1 1 1 1 < 1 < 1 1 1 ; 2 0.~ : : 1 1 1 < 1 : 1 : 1 : : 5 F j ..;.g Z 1 q 1 1 2 - # + ",
"O # : : : : ; : : 1 9 9 6 =.=.d.4 2 : > 1 1 1 1 1 1 : 1 < : 1 : v g.4 ; 1 : 1 1 1 1 1 1 1 1 1 1 1 = > : { { ; ; 1 < < 1 : ; # . ",
"+ # ; 1 1 1 1 1 : : : : ; , 6 t.l.o.R R R R O.O.1.W W M 8 0 g ..q.2 : 2 1 : < 1 1 1 1 1 1 1 1 1 1 1 1 : i 2 ; 2 2 1 1 1 1 : # O ",
"+ # ; 1 1 ; 1 : : : : : : ; = > l.l.o.i...O.G O.1.t.k.t...k.>...o.2 ; - 1 1 < 1 1 1 1 1 1 1 1 1 1 : 2 M l.R > = < : < ; : : # O ",
"  # 1 0 2 9 2 2 2 0 , , , , 6 =.R P Z i 2 > 2 2 2 2 2 : 0 F 0.;.o.o.g , - : 1 ; < ; < ; ; 1 1 1 4 M ~ 0.k.R ~ ~ 4 4 8 0 6 6 # O ",
"O # j { t.d.) =.=.=.W =.j.t.*.w 2 > ; > ; > : 1 2 ; : 2 1 = 0 G  .o. . ...~ 0 8 q q 9 9 q w } X...G 2 > : > M M G G { =.t.e # O ",
"O # g >.......>.R *.;.l  . .t - : : 1 1 1 : 1 1 1 1 1 1 1 1 : : t H  .R R R o.O.O.;. . .R c ,.c > : : : < : : < < < : : : : # O ",
"O # > 2 2 i G  .R J j R  .>.0 : 1 1 1 1 1 1 1 1 1 1 1 1 1 1 1 1 - - H R o.P O.P M P O.>.>.c x > - : 1 1 1 1 1 1 1 ; 1 1 : : # O ",
"+ # < : ; : : : : = : , ....; ; : : 1 : 1 : 1 : 1 ; > < 1 1 1 : < > o.P Z 3 2 < < < : , p i.O.> : ; 1 : : 1 1 2 1 1 1 1 : ; # + ",
"o # : 1 2 > : ; : = : : ..0.i v 2 : : : : 1 , , 2 > 2 > 1 1 1 1 0 P  .: < < < > 2 > < : : P l.R q , 0 1 1 2 1 1 1 1 1 : : ; # O ",
". $ > > : : > 0 w *.=.=.j.t.j.j.3.3.q.q.W W { g >.x R H x x R R >.l.Z > : : : : ; : - > - u o.l.d.=.=.t.t.=.t.W j R d.:.=., @ . ",
". @ 0 ..R O.O.o.j.t.w =.w 2 , , 2 2 2.3.W t.f.;.c c c  .o.o.o.o.<.<.G  .p p x t p p t p x o.R x d.J J w F w w W f.R *.R :.&.@ . ",
"O $ F g.3.3.Q 3 2 2 ; 2 : : ; : < 1 1 1 : 0 G ;.o.,.o.<.o.-.O. .&.l  .-.R R >. . .O. . .o.<.c x { 6 : : = : : 2 1 q F R t.w @ . ",
". @ M M 1 2 1 1 ; 1 1 : 1 2 1 1 1 1 1 ; 2 : = 0 R <.x > > > 2 2 : > g ..l. .R P  . .x  .R <.c -.6 : : 1 , 1 < : : : : 1 F J # O ",
"O # = : ; 1 1 1 1 < 1 1 < 1 1 1 1 1 1 < > : > > O.~ 2 ; 1 1 1 < : : 1 1 1 1 1 1 1 2 : 2 t o.l.> : : 1 1 1 : 1 1 < : : > > G # o ",
"O # = : 1 1 1 < 1 1 1 1 : 1 1 1 1 < < 2 : ; : 2 q.4 < 2 1 1 2 < 1 1 1 < 1 : 1 1 1 2 : : ; 0 G ; 1 1 : < : 1 1 < 1 1 1 = 0 G # O ",
"+ # : 1 1 1 1 2 1 < 1 1 < 1 1 < < < 1 < : 2 ~ t.O.Q < ; ; ; < : : : ; : 1 1 1 : ; = - > > p  .- : 1 1 , 1 1 : : : : : : Q M # o ",
"O # - 0 ; 1 < ; < : : 1 1 1 q 4 3 3 ! 3.G { 0.J P i.O.Z 8 q q 6 0 6 q q 6 q 2 6 4 8 4 7 p >.>.t , q F W W w F t.J 6 q F k.M $ o ",
"O # t x t x g Z 8 j G ..;.{ ..{ O.b r M 4 q 6 0 i p { f.g.t.*.*.=.J R =.W =.t.W =.d.t.-.:.:.:.t.t.;.t.t.t.{ t.l.l.l.>.<. ., $ . ",
". @ t .. .k.o.>.d.:.l R R ;. .t 2 < ; ; = ; : : > : 0 M F 8 w R =.J *.=.=.=.J w 6 F w w R 7 0 w 5 5 5 5 8 8 F R g o.o.x o.t X . ",
". $ t ;.....o.R G R l ;.;.j 0 ; ; 1 1 1 1 1 1 1 ; 1 ; < 1 1 : 6 8 =.d.F q , 1 , 1 1 : 1 : : < ; ; 1 : : : < : : > 0 2 t  .p $ X ",
"O # ; > > 2 ..O.R ....;.8 = - 1 2 1 1 1 1 < < 1 2 1 1 1 1 1 1 < : { e : : < : 1 1 < 1 1 1 1 1 1 1 1 1 < 1 1 1 1 : ; : : > > # . ",
"O # ; : < 1 : : : w 1.f.{ 1 : : < 1 1 1 < 2 < < 1 2 < 1 1 1 1 < = F R ; 2 < 2 1 1 1 < q 1 1 1 1 1 1 : 1 1 1 1 1 1 1 : : : = # + ",
"O # ; 2 1 1 1 : 1 ; q d.1.= : : 1 1 2 2 > < < < < < 1 : 1 : : 0 0 k...2 ; > < < 1 1 1 1 < 1 1 : 1 : 1 1 1 1 1 1 2 ; 1 , : = # o ",
"O # ; : : : ; : : = q { { 0 1 , : ; = : > , 0 , 2 i > 0 0 0 j R  .z.>. ., t 2 2 - : : - < : , : : 2 2 : 1 1 ; : 1 : : ; 0 1 # + ",
"O # : : : 2 q 6 w t.t.1.f.f.d.j.{ ..R l.<. . .c  .R c l.l.d.:.*. .:.<. . . .>...R G G R 1.w w =.w w w t.W ) 1.d.) =.t.w ;.w # O ",
"+ # w t.t.j.j.t.J =.{ 6 6 6 , w g F ..;.>.O.x  .x o.<.<. . .x R c x o.H c c <.<.l.x <.l.;.G 0.O.j.d.X.f.=.:.&.X.o. .q.R R , @ X ",
". @ =.c.t.e w 2 1 : : : : 1 : 1 : : = > > t H  .R l.l.o.2 > = 2 : - : : : t u R o.q.t > 0 : ; 1 , w -.z.:.&.:.&.p p  .3.f.F @ . ",
"O # w F 2 : : 1 1 : : 1 1 1 1 < 1 1 1 1 < : 2 i O.i.2 > 1 1 1 1 < 2 < 2 ; > > > l.q 1 1 ; < q < : 1 : w -.=.0 : - > ; 2 G 4 # O ",
"O # , > : 1 : 1 : 1 : 1 1 1 < 1 1 1 1 1 2 < < ; i q.< 2 1 1 1 1 < 1 < < 2 < 2 ; g.N ; 1 2 1 < < 1 2 1 - J w - : ; 2 1 1 2 ; $ O ",
"O # - 2 1 : 1 1 : 1 1 : 1 1 < < 1 1 : : 1 1 < 1 > l.2 ; > > 1 1 1 q < < 1 : : 0 t.R 8 : : 2 1 1 < : : : j R = = 2 2 2 2 < ; % O ",
"+ # = - : : : ; : : : 1 1 : 1 : < 1 1 1 < : , 2 R >. ., > ; 2 ; < < < 1 : > 5 *.R  ...g > > 1 1 2 , > F l.d.5 0 ; < < < 2 ; $ o ",
"O # 5 F 0 q 2 q : ; : : : ; : < 1 2 2 1 2 w W 1. .x  .c O.p p M R P P P j *.:.f.>.R  .*.>.R j G t.t.*.*.*.:.d.R O.Z Z b P t $ o ",
". @ 8 { F 1.t.t.t.t.t.t.^ 1.t.t.t.e w w W 1.1.{ >. .x l o.R R >...R O.o.*.*.=.:.x c G x G R { t.J *.J &.:.f.;.k.q.q.q.O.o.p $ o ",
"O @ w d.t.d.1.2.=.W =.=.G { 1.M q q 1 2 1 1 : > F  . . .R { d.=.i 4 8 8 1 : > : 2 > 1 , : : : M t.*.*.w 2 i 4 4 3 0 3 0 p 0 $ o ",
"  # 6 w q > 1 : : : 1 : : 2 1 = : < < 2 1 1 ; : - > , 5 R 0 , : : ; : 1 : 1 1 1 : : 1 < 1 1 : : w =.6 : 2 - : 1 < ; : - > : $ + ",
"+ # ; : : : 1 : : : : : 1 : < 1 < 1 < 1 < < < 2 : - > 0 ;.0 = : 1 1 1 1 < 1 1 1 1 1 1 1 1 = : , :.w = ; < ; < < : 1 < > < = $ o ",
"O # ; 1 < : 1 : : : : : 1 : ; : : : 2 < 2 2 q v k.F ;.d.;.5 > : - : : : 1 : 1 1 1 1 1 1 : q w ;.&.l , 6 2 3 3 3 0 3 0 t > = $ o ",
"O @ 5 g M 4 i t u t p 0 p 0 b P 0 6 J ) J t.d.J 8 4 4 F 1.d.J 5 0 > > t M / k O.P R  .O.R  .>.c w &.*.:.;.{ { ..........R t # . ",
"O # ~ l.q.O.o.x  . .O.7.i.8.O.O.:.X.=.J =.=.6 ; ; : : > , w { t.R R R i.;.O./ /  . .O.>.>.H , > > > 6 w ;.t...R  ...O.O.o.x # O ",
"O + : 4 2 4 G  .O.O.O.! Z t 2 2 > j :.j.=.: : 1 q < 1 ; < : , w ....H p > 0 t > > > P >.p > > < 1 = = > 1 t.q , 0 > 2 2 2 > # O ",
"O $ ; ; ; > > G O., > = < < < > : 1 1 ^ 6 : 1 < < < < 2 1 < : 2 ..> : > < < < : : = 0  ., < < 1 2 1 : : : t.1 ; : : 2 : ; ; $ O ",
"O $ : 2 2 ; ; t., > : 2 2 ; 1 : 1 > : } w ; 1 1 1 1 < < < < 2 w ..- - 1 : 1 < : : 0 H  .3 : < < : : : : 8 { w , ; : 1 : > ; $ o ",
"O # = : : : 2 k.R : = = ; > 2 : - : , X.} 6 : 1 < < : : 1 q W t.d.R R 8 3 L P M  . .c >.o. .! 3 e F w J t.{ t.d.Z ~ r 8 ! 2 $ + ",
"O @ : 8 4 ~ 1...t.G F 6 0 : : : , &.:.&.E X.E E 4 0 0 j *.J =.J &.l l :.>./ ,.&.&.c c c c x o.q.{ t.R d.w 7 5 w O.g...t.0.g $   ",
". # j t.g.g.{ G R ..t.W 0.{ G k.:.&.&.:.&.X.d.j.g.;.G R *.*.J *.l *.&.*.<.c ,.h t > > - > : 0 o.F F > : > : : - : : > g : - $   ",
"  # q Q 0 0 1 1 : > > 6 2 6 q t.J X.:.E 6 6 q 1 1 1 1 1 1 9 9 9 , t.J J t.t.8 - ; < < 2 < < < 7., : ; : : : : - : : ; : : * # O ",
"O # : 1 ; 1 : 1 : : : 1 1 : , w c.6 : : 1 : 1 1 1 1 1 1 1 1 < 1 : : : w t.{ : : 1 1 < 2 < > 2 O.2 1 , q q 2 2 2 q 0 0 2 2 > # O ",
"  # ; 1 1 1 1 1 1 1 1 1 1 1 < 2 c.6 - 1 1 1 1 1 1 1 1 1 1 1 1 < 1 1 = > > k.G 4 2 2 ; 1 > v O.o.e =.t.d.t.t.0.0.G ~ 0.o.;.l #   ",
"O # ; 1 1 1 1 1 : 1 1 1 1 2 : : :.1 1 : : : 1 1 1 1 1 1 1 1 1 1 < 1 1 : - k.k.G v Q 3.O.! O.q.: ; : : , > : > > 2 0 4 0 j w # . ",
"O # * 1 1 1 1 1 1 ; 1 1 1 < : q j.6 1 1 1 1 1 1 1 1 1 1 1 1 1 ; 1 1 1 2 : O.i ; 2 > > 2 F t.d.0 1 1 1 1 1 < < 2 1 1 : : : : # O ",
"O O % : < 1 < ; ; < < < < ; : 2 J : ; ; < ; 1 1 : ; ; 1 : < < < : : = ; = 4 2 - ; = ; ; = = F W 2 1 < < ; ; ; < < 1 ; : = & + O ",
"X . + # # # # # # # # # # # # # % # # # # # # # # % + # # # # # # # # $ $ $ $ # $ # @ $ $ @ # # # # # # $ $ # $ # # # $ @ . O . ",
". X . + O O O O O O O + O O   O   O O   O O O O   O   O O O o O O O O o o   O o . O O O . . + O + O O o   . O O o o . .   X X X "
};
