/* XPM */
static char *_8666e725ef9478efd55cdcc54da2e50yZsaZtnbptgVky4W[] = {
/* columns rows colors chars-per-pixel */
"32 64 12 1 ",
"  c #556292",
". c #7891B0",
"X c #8EA4BF",
"o c #9AAFC7",
"O c #9FACC7",
"+ c #A1B5CB",
"@ c #ACB8D0",
"# c #ACBED2",
"$ c #B0BCD2",
"% c #B2C2D2",
"& c #B6C6D8",
"* c #BAC4D8",
/* pixels */
"%%%%%%%%%%%%%%%%%%%%%%%%%%%%%%%%",
"O.XXooooooo&#+oooo+#&oooooooXX.O",
"O.OOOOOOOOO@*$$**$$*$OOOOOOOOO.O",
"O.OOOOOOOOOOOOOOOOOOOOOOOOOOOO.O",
"O.OOOOOOOOOOOOOOOOOOOOOOOOOOOO.O",
"O.OOOOOOOOOOOOOOOOOOOOOOOOOOOO.O",
"                                ",
"%.. OOOOOOOOOOOOOOOOO% .OOOO ..%",
"%.. OOOOOOOOOOOOOOOOO% .OOOO ..%",
"%.. OOOOOOOOOOOOOOOOO% .OOOO ..%",
"%.. OOOOOOOOOOOOOOOOO% .OOOO ..%",
"%.. OOOOOOOOOOOOOOOOO% .OOOO ..%",
"%.. OOOOOOOOOOOOOOOOO% .OOOO ..%",
"%.. OOOOOOOOOOOOOOOOO% .OOOO ..%",
"%.. OOOOOOOOOOOOOOOOO% .OOOO ..%",
"%.. OOOOOOOOOOOOOOOOO% .OOOO ..%",
"%.. OOOOOOOOOOOOOOOOO% .OOOO ..%",
"%.. OOOOOOOOOOOOOOOOO% .OOOO ..%",
"%.. OOOOOOOOOOOOOOOOO% .OOOO ..%",
"%.. OOOOOOOOOOOOOOOOO% .OOOO ..%",
"%.. OOOOOOOOOOOOOOOOO% .OOOO ..%",
"%.. OOOOOOOOOOOOOOOOO% .OOOO ..%",
"%.. OOOOOOOOOOOOOOOOO% .OOOO ..%",
"%.. OOOOOOOOOOOOOOOOO% .OOOO ..%",
"%.. OOOOOOOOOOOOOOOOO% .OOOO ..%",
"%.. OOOOOOOOOOOOOOOOO% .OOOO ..%",
"%.. OOOOOOOOOOOOOOOOO% .OOOO ..%",
"%.. OOOOOOOOOOOOOOOOO% .OOOO ..%",
"%.. OOOOOOOOOOOOOOOOO% .OOOO ..%",
"%.. OOOOOOOOOOOOOOOOO% .OOOO ..%",
"%.. OOOOOOOOOOOOOOOO% .OOOOO ..%",
"%.. OOOOOOOOOOOOOOO% .OOOOOO ..%",
"%.. OOOOOOOOOOOOOO% .OOOOOOO ..%",
"%.. OOOOOOOOOOOOO% .OOOOOOOO ..%",
"%.. OOOOOOOOOOOO% .OOOOOOOOO ..%",
"%.. OOOOOOOOOOO% .OOOOOOOOOO ..%",
"%.. OOOOOOOOOO% .OOOOOOOOOOO ..%",
"%.. OOOOOOOOO% .OOOOOOOOOOOO ..%",
"%.. OOOOOOOO% .OOOOOOOOOOOOO ..%",
"%.. OOOOOOO% .OOOOOOOOOOOOOO ..%",
"%.. OOOOOO% .OOOOOOOOOOOOOOO ..%",
"%.. OOOOO% .OOOOOOOOOOOOOOOO ..%",
"%.. OOOO% .OOOOOOOOOOOOOOOOO ..%",
"%.. OOOO% .OOOOOOOOOOOOOOOOO ..%",
"%.. OOOO% .OOOOOOOOOOOOOOOOO ..%",
"%.. OOOO% .OOOOOOOOOOOOOOOOO ..%",
"%.. OOOO% .OOOOOOOOOOOOOOOOO ..%",
"%.. OOOO% .OOOOOOOOOOOOOOOOO ..%",
"%.. OOOO% .OOOOOOOOOOOOOOOOO ..%",
"%.. OOOO% .OOOOOOOOOOOOOOOOO ..%",
"%.. OOOO% .OOOOOOOOOOOOOOOOO ..%",
"%.. OOOO% .OOOOOOOOOOOOOOOOO ..%",
"%.. OOOO% .OOOOOOOOOOOOOOOOO ..%",
"%.. OOOO% .OOOOOOOOOOOOOOOOO ..%",
"%.. OOOO% .OOOOOOOOOOOOOOOOO ..%",
"%.. OOOO% .OOOOOOOOOOOOOOOOO ..%",
"%.. OOOO% .OOOOOOOOOOOOOOOOO ..%",
"%.. OOOO% .OOOOOOOOOOOOOOOOO ..%",
"%.. OOOO% .OOOOOOOOOOOOOOOOO ..%",
"%.. OOOO% .OOOOOOOOOOOOOOOOO ..%",
"%.. OOOO% .OOOOOOOOOOOOOOOOO ..%",
"%.. OOOO% .OOOOOOOOOOOOOOOOO ..%",
"%.. OOOO% .OOOOOOOOOOOOOOOOO ..%",
"%.. OOOO% .OOOOOOOOOOOOOOOOO ..%"
};
