/* XPM */
static char *_8cf6c901bed4d91d2360e6a599be39akwO0IM7kKCMkMfzY[] = {
/* columns rows colors chars-per-pixel */
"64 64 107 2 ",
"   c #342B7E",
".  c #423B77",
"X  c #433B7E",
"o  c #6F6F6E",
"O  c #706F6B",
"+  c #6F706D",
"@  c #71716F",
"#  c #6F6F72",
"$  c #716F71",
"%  c #6F7171",
"&  c #737373",
"*  c #787775",
"=  c #777875",
"-  c #7A7976",
";  c #757579",
":  c #7D7D7D",
">  c #81817F",
",  c #322785",
"<  c #352A84",
"1  c #382B87",
"2  c #352788",
"3  c #352A8A",
"4  c #382B8B",
"5  c #3A3184",
"6  c #443C83",
"7  c #483E85",
"8  c #453C88",
"9  c #4A3F8D",
"0  c #474084",
"q  c #484187",
"w  c #484089",
"e  c #6F6D83",
"r  c #6F6C89",
"t  c #716E85",
"y  c #716E8B",
"u  c #727086",
"i  c #7E7F81",
"p  c #747189",
"a  c #78758A",
"s  c #716B97",
"d  c #736D99",
"f  c #767291",
"g  c #817F80",
"h  c #7F8181",
"j  c #838383",
"k  c #888687",
"l  c #868887",
"z  c #888886",
"x  c #858688",
"c  c #898788",
"v  c #878989",
"b  c #8A8A8A",
"n  c #91908C",
"m  c #8B889D",
"M  c #959594",
"N  c #989697",
"B  c #969897",
"V  c #989896",
"C  c #969799",
"Z  c #999798",
"A  c #999998",
"S  c #A7A6A6",
"D  c #A8A8A6",
"F  c #A6A6AA",
"G  c #A7A9A8",
"H  c #ADADAC",
"J  c #B0AEAF",
"K  c #AFAFB1",
"L  c #A6A4BD",
"P  c #AFB0B2",
"I  c #B5B4B4",
"U  c #B8B6B7",
"Y  c #B9B9B7",
"T  c #B6B6B8",
"R  c #B9B7B8",
"E  c #B7B9B9",
"W  c #B9B9B9",
"Q  c #BBBBC3",
"!  c #B7B5CD",
"~  c #C2C2C3",
"^  c #C5C3C8",
"/  c #CECECD",
"(  c #D2D2CE",
")  c #CFCDD0",
"_  c #D0CED1",
"`  c #D6D6D6",
"'  c #D8D6D7",
"]  c #D8D8D6",
"[  c #D3D3DB",
"{  c #D9D7D8",
"}  c #D7D8DA",
"|  c #DADADA",
" . c #E1E2DE",
".. c #E2E2E1",
"X. c #EEEEED",
"o. c #F0EEEF",
"O. c #EFF0ED",
"+. c #F0F0EE",
"@. c #EEEFF1",
"#. c #EFF0F2",
"$. c #F4F4F4",
"%. c #F8F6F7",
"&. c #F8F8F6",
"*. c #F3F4F9",
"=. c #F9F7F8",
"-. c #F7F8FA",
";. c #F9F9F9",
/* pixels */
"< < < 3 2 4 2 1 2 4 2 2 2 3 3 1 , 3 3 3 3 3 < 3 3 < 4 < 3 3 , 3 3 3 < 3 3 3 3 3 3 3 3 3 < 3 3 3 3 5 4 3 < 3 3 3 3 3 2 4 3 4 2 < ",
"< < 5 8 7 6 7 7 8 6 6 7 6 6 6 6 7 7 6 6 0 6 0 0 5 q 6 6 0 6 0 0 q 5 6 q 6 0 0 5 6 6 6 6 0 6 6 0   q 8 q 0 6 6 8 6 7 7 8 9     < ",
", 5 . s s u t t L f y y f r p p u u u u t u u u u u a u p u u u u u u u u u u a u u u u u u u u p p p r e u s y m u u y d X   3 ",
"3 8 s u $ O * * F $ $ & & # * @ @ @ & @ % + % & = % % + + % & @ & = + + = % & + & @ & @ % % % & % & & ; ; ; & v z b @ & ; d w 3 ",
"3 8 a ; & * O S F F * @ ; ; @ @ & ; ; ; ; & ; & % = & ; & & ; & & & & = % = = % & ; ; & ; & ; & = @ O ; O ; O n I n @ @ ; y 8 3 ",
"2 7 u @ @ @ & S ~ D $ @ & @ @ = & & & @ & & & & % = & & & & % & ; & & & = & = % & & & & & & & & @ = & & = & b I / J n @ & t 7 2 ",
"2 X u @ & * F ^ ..~ D & @ & = & & @ & & & & & & % % = % & @ = + & + & + & % % % & & & & & & & & = $ * @ b b J ( ( ' J b z t 6 2 ",
"1 7 u @ D S ^ .. . .~ D S & & & = @ & @ & & & & & = % & ; & I I I I I I & = % = & @ & & & & & & $ & b b b J ( ( _ _ / I b m 7 2 ",
", 8 L F S ~  . . . ...Q G S S & & $ & $ ; & $ & & & K I I I I I I I I P I I T P I & ; & & & & & & = % % v n H ` / ( I b n r 9 3 ",
"3 6 p ; S S ~  .....^ F G & & % ; & & & ; & ; I T K T I # ; & & & & % & $ & K I I K P & $ & ; & % ; & % ; % b H ( J n O $ p 8 , ",
"3 6 t & @ @ D ~ ..^ F ; & & & ; * $ & * & I I P K ; & & & & & & & ; ; & ; = ; & & T T P I ; & $ & & % ; ; ; % n J b @ & ; u X 3 ",
"< 0 t & $ = & D ~ G ; ; & & & & & & & $ P I I & & & & M M M Z M j j i i j g & & & $ & I R P R & & & ; # ; ; ; v n b * & & e 0 < ",
", 7 p ; & * $ D G G & & & @ & & $ $ I I I & $ $ & & M M M { ` ` ` ` k i j g g j & & & ; & I I J & = & @ & & & & z = @ ; ; y 8 3 ",
"3 8 r % & @ & & F & % & & + & & $ I I I & & * $ M C M ` ` X.X.@.` { ` { ` ` ` g g j & & & & I I P & @ & ; & & & b ; & # % p 8 3 ",
"3 8 p ; @ * & & F ; & & = @ & @ I I I $ $ * $ M M M { { { X.X.` ` ] ] { ` { | ' ] g g g $ * $ J I J = & & & & * & & = O & p 8 , ",
"3 X p & @ @ & & ; @ & & @ = @ I I I $ * ; $ N M ' ` { ` ] ` ] { ] { ` ' ' ] ' ' ] ` k g j * $ * J I I & & & $ & $ & = @ & u 7 4 ",
"4 6 u = % & % = = M M M C M M M I ; & & & M M ` X.X.X.` ` ` ` ` ` } | ` ` ` ` ` ` ` { j j ; & & = J J Y & & & & & & & & & u 6 3 ",
", 7 p % & & & M n B C M M B M Z M M M M M Z ` X.X.X.} ` ` ` ` ] ` ` ` { ] } ] | ` ` ` H & o & & @ & I J & % & & & & & & & u 6 3 ",
"3 6 e & ; % M M M ` ( ` ` ( ` ` ] ` ` ` j ` { X.X.{ ` { ` | } ` ] } ] ` } ` ` ` { ` ` I I $ & & & @ @ Y P + & @ & & & & % u 6 3 ",
"3 7 p & & B M B ( } ` ` | ` ` ] ` ` ] ` j j { X.X.` ` ` | ` ` ` ] ` ` } ] ` ` | ` { ` T I & o & & - @ J I ; = @ & & & & = u 6 3 ",
"< 5 u & = M M ` ] ` M M M g k I T I I I j h ` X.O.` } ` ` ` | ` ` | ` ` ` ` ` ` | ` ` I I I & o @ O & O T I o = & & & & % p 0 3 ",
"4 6 u & n M ` ` ` n B M o.j g g I I Y T I j h X.X.X.` } ` | ` { { ` } ] | ` | ` } | I I H I & & * & * & K I ; & & & & & % p 5 3 ",
"3 0 p & M ` ` ` I V o.o.%.$.$.g j Y Y T Y j j ` O.X.` | ` ` ` ` ] ` ` ` ` ` ` ` ` ` P I I I I & $ $ & O & P T + & & & & % u q 3 ",
"3 0 e ; M ` ` T I j O.$.$.$.%.j j I I I T T : j ` | ` ` ` ` | ` } ` } ] | ` ] ` ` ` ` I K I K & & * & * & I I & & & & % = u 0 3 ",
"3 6 u B M ` ` E I > -.$.$.+.%.j j I I T T T T > j ] ` { ` ` ` } ` | ` ` ` ` ` | ` ` I I I I & O & & + = & I I @ & = & & & t 0 3 ",
"3 6 t M M ` ` E I j h $.&.j > j I T Y I T R I T j > { ` ` } { { ` | ` | ` | ` ` I I I H I o & = $ & & @ % + T & & % & & & u 6 3 ",
"3 6 u B M ( ` E I P h l > > > k Y I I M M j i T I j j j j { ` ` | ` ` ` ` ` ` I I J T @ % ; & @ & & @ @ & & & o & ; & & = u 6 3 ",
"3 q t % M E E I Y E O.E R I R T T T M A n j j j I I T j : : j j > j j ` ` P I I I & @ * o v j b c k l v v % @ * % ; = & = u 5 3 ",
"3 5 p & B B E E I I #.E I I I I I Y M X.$.&.i j W T I T I W j j x > j > j & & % @ & & x k z k b R k b k v b b @ & + % % % u 0 3 ",
"3 X p % % M ( ` P Y ;.I Y Y I Y T T M X.&.X.&.j I T T Y Y I j j > v v l z b v b x x x b x R R I I c k k v x v v v & ; = % a 5 3 ",
"3 0 u & % B B ` I Y O.W I I Y T I Y M &.&.&.i j I I I I I M M j j j j I W I I I j j j g j j R I Y I z b x l z z v ; + % % u q 3 ",
"3 0 u % & B M ` I I +.O.$.Y I Y &.$.j j i j j k Y T I Y M B O.&.$.j > T I Y I j j j X.&.j > > Y I I k > x h j > z z = % = e q 3 ",
"3 q e & = @ j T Y Y -.I o.o.o.o.X.I Y > j g v T I T T I M X.+.$.&.&.j I T T I M M X.=.$.&.j j X.%.o.> g j $.$.j j h & @ & e 0 3 ",
"3 5 p & O ; j : P I -.T R U U U $.I T T Y T I Y %.&.+.X.C X.$.$.$.i j z I I M M X.$.$.&.&.#.j T T R V > $.$.-.$.j > & & & p 6 4 ",
"3 0 u & & & ; j > Y O.W J Y U I $.T I T I Y I Y ;.T T I j j $.&.: x x k I R M M @.&.&.$.$.j j v R R : +.$.$.&.$.h j & & = u 6 , ",
"3 0 u ; & & @ & > > j I Y I I U &.I I T Y I I T X.I I W T j j j j : k T I I Y j j @.&.&.$.i g c I Y j $.*.&.o.&.j j x & % a 5 3 ",
"3 0 t % + = ; & > j j j I Y J U &.I Y I I I Y I +.Y I T I I T X.x b T I Y I T > j j > j > j b v I W : > $.$.&.> h j b % = u 5 4 ",
"3 0 u = ; & + = @ > h Y R k j j j T R T T W I T &.T Y I I Y I &.I I T I $.$.T I X.j x j b x k j I R Y > j > j j j l v % = e q < ",
"< 0 u % & & & % & j h E b & k g j j X.X.O.+.X.+.X.T I T R I T &.+.X.X.X.X.$.| X.+.b ..x b v T T I U I X.b b z v l z v ; = t 6 4 ",
"3 5 u = & & & = @ j j + & O $ & & j > j T I R T ;.I Y I I T T T T T X.$.T &.&.| I I o.Y R Y I Y U I I o.c v z z b v % % % t w 3 ",
"3 q u % = % = % @ j j % & & $ & & o j g j T I I X.T Y I R I I Y R Y X.$.$.$.$.| Y T +.I T I Y X.o.&.+.X.E I l z l ; o & & e 8 3 ",
"3 6 p % % = = % j j h l I P * @ & = = ; : j > T +.I T T I I Y I I $.&.Y $.I $.&.| T +.I T T I &.Y I I X.I l l z ; @ & ; & u 0 , ",
"3 6 p = & & % & > j h & I P @ = ; o & $ & x > j j T R I Y E T I I &.$.I T T &.$.] T $.+.o.X.o.%.I I b  .b v b l + @ = & % e 6 3 ",
"3 6 p % & & & & & & & % & P I @ & & = o ; O & j j > g j > > T I T I T E T R K T R I  .v z b z v k c x  .x v % @ @ ; & @ & p 6 3 ",
"3 5 p % & & & & & O & & & & I I & & & & & = & & & ; = @ j j j j j I T I I j j & o v ..x z j x x c c c & & % = & & & % & = u 6 3 ",
"3 0 p = & & & & @ = & & O $ I I I & & & & & & & & & o ; & ; $ j j j j j j j j @ & b | ; = & & & & O & @ % % % & & & & = & u 5 4 ",
"3 0 p % & & & & @ & ; @ & & & I I I = O & & & & & ; & & & & * & & O $ ; o ; & @ & x ..& O $ o & $ & @ * % = & & & & & & % u q 3 ",
"3 0 p % & & & & = & @ ; & & & $ I H I ; & $ & & & O & & & & $ $ & = & & = o @ ; & c ..$ & T I I * @ & & & ; + & & & % & = p 0 3 ",
"< 0 p & @ @ @ & & | + & & & & @ & I I I $ & * O * $ ; ; $ & $ * & $ * $ * ; $ & * & $ & I J I = O * & & = % % Q ; = @ @ = t 7 4 ",
"4 6 u % * @ * & $  .& ; & & * @ $ & J I I I $ & $ * $ $ & & ; & $ * $ & $ $ * O $ $ $ O I I & @ * O @ & + ; = W $ & & @ = t 7 2 ",
"3 6 y & & & & @ | | | ; O = @ & & & & & I I I I $ * O * & & & & * $ & & & $ * & & $ ; T O $ ; & & * & & % = E E W & & ; # f 7 2 ",
"3 q s # ; = @ = | $.| ; & o & = = & & ; & $ I I U J U $ & & & $ & & & & & R H T I & & & $ & @ & & O @ & ; % W ( Y * & & ; r 7 , ",
"< X u ; % & = ] @.*.*.} & & ; & & & o % & & % & P I I I K I I I I I I J T I I P & & & * ; & & ; * & = & & Q _ X.] P & ; & p 0 < ",
"< 0 p % & | ` O.*.*.*.*.{ | % & & ; & & % & = & & $ & * I I K I I P I P ; & @ & & & ; $ & % ; @ & $ ; W Q [ X.X.O.` ~ W # r 6 < ",
"3 5 u | | | $.&.#.;.$.#.$.{ |  .; & ; & & & & & $ & ; $ & & ; & & ; & ; # ; $ & & ; $ ; ; & % ; & W W W [ #.X.X.X.O.` E W ! 8 3 ",
"3 6 p = ; | ] O.&.$.$.$.] | & & & & & & ; & & % ; & ; $ ; $ & & & & $ * & & & * & & ; & & & & & & & & W E ` X.X.O.( W W & p 6 3 ",
"8 X u & $ ; $ ..O.$.+.| = @ & & % & & & & @ & & & & & & & + & & & & & & & & & @ & & & & & & & & $ & @ = & Y ` X.` Y & & & t 7 1 ",
"2 X a O * $ ; $ | +.` & = + & & = % & & & & & & & & & & & & & % & & & & & @ & & & & & & & @ & & * @ & & = @ Y ` W & * O @ u X 1 ",
"2 6 e & & @ O & | } | & & & @ * % % & % & % & & % & % & = % = % & & & & & @ & & % & & & & & & & & @ @ & & @ W W R & & * $ u 6 1 ",
"2 8 y ; * @ = @ &  .& & * @ * @ = = = & = = ; & = & ; = & = = = & ; ; & & = ; ; & = = & = & ; & & & & & ; $ & Q * O - & $ f 7 4 ",
"2 8 d ; ; & o & ; } % ; & ; & & + % % = & & & + % & % & % + & % + = + = & & & @ % % % & & @ & & @ & * $ $ ; ; W @ * o ; t d 7 4 ",
"2 1 X s y e a t p p p u y y e t u u u u u u u u u u u u u u u u u u u u t t u u u u u u u u t t t a y y y t p p u t y y d . < 2 ",
"< < , 8 8 7 7 8 8 6 8 X 8 8 7 7 6 6 0 6 6 6 0 0 5 0 0 6 6 6 6 6 0 6 0 5 6 6 6 6 0 6 6 6 6 6 6 6 6 6 9 7 6 7 6 6 6 X 6 6 9 < < < ",
"  2 4 2 2 2 3 4 3 4 < 2 , 2 3 2 3 3 3 3 3 < 3 3 < 3 3 3 3 3 3 3 3 < 3 3 3 3 3 3 3 3 < 3 3 3 3 3 2 3 3 , 2 , 3 4 4 1 3 1 2 2 <   "
};
