/* XPM */
static char *result[] = {
/* columns rows colors chars-per-pixel */
"32 32 199 2 ",
"   c #3D334E",
".  c #3E334E",
"X  c #3F364F",
"o  c #3C3050",
"O  c #413652",
"+  c #413654",
"@  c #413851",
"#  c #473D57",
"$  c #473E57",
"%  c #433758",
"&  c #463B58",
"*  c #473D58",
"=  c #473E58",
"-  c #483F58",
";  c #493E5A",
":  c #4B3F60",
">  c #494056",
",  c #494058",
"<  c #4A4059",
"1  c #4C4359",
"2  c #4D4459",
"3  c #4D455A",
"4  c #4F465B",
"5  c #4C415C",
"6  c #4C425C",
"7  c #4C435C",
"8  c #4D435E",
"9  c #4C425F",
"0  c #4D445C",
"q  c #4E445C",
"w  c #4E455D",
"e  c #4F475D",
"r  c #4E445E",
"t  c #4F455F",
"y  c #4F475E",
"u  c #50475E",
"i  c #50465F",
"p  c #50475F",
"a  c #50485D",
"s  c #50495D",
"d  c #51485E",
"f  c #514660",
"g  c #544B61",
"h  c #544C61",
"j  c #544C62",
"k  c #554D62",
"l  c #544C63",
"z  c #554E63",
"x  c #574F63",
"c  c #544A64",
"v  c #554B64",
"b  c #544B65",
"n  c #554B65",
"m  c #554B67",
"M  c #544C64",
"N  c #554D65",
"B  c #564D64",
"V  c #564E64",
"C  c #574F64",
"Z  c #574F65",
"A  c #554C66",
"S  c #574E66",
"D  c #574F67",
"F  c #584F64",
"G  c #584F67",
"H  c #584F68",
"J  c #575162",
"K  c #585163",
"L  c #585065",
"P  c #595364",
"I  c #5A5364",
"U  c #585166",
"Y  c #5B5566",
"T  c #5C5667",
"R  c #5E5767",
"E  c #585068",
"W  c #5A5268",
"Q  c #5A5368",
"!  c #59506A",
"~  c #59516A",
"^  c #5D5568",
"/  c #5D5669",
"(  c #5E5769",
")  c #5D576A",
"_  c #5F576A",
"`  c #5B536C",
"'  c #5F566F",
"]  c #5E586B",
"[  c #5F5A6A",
"{  c #5F596C",
"}  c #5F586E",
"|  c #60596B",
" . c #605A6A",
".. c #615C6B",
"X. c #625C6B",
"o. c #60586D",
"O. c #605A6D",
"+. c #615A6D",
"@. c #615B6D",
"#. c #60596E",
"$. c #60596F",
"%. c #61596F",
"&. c #615A6F",
"*. c #625C6C",
"=. c #625C6D",
"-. c #635C6E",
";. c #625D6E",
":. c #635C6F",
">. c #635D6F",
",. c #645D6E",
"<. c #655F6E",
"1. c #645F6F",
"2. c #625B70",
"3. c #635B70",
"4. c #635D71",
"5. c #645D71",
"6. c #655E70",
"7. c #655F70",
"8. c #64606E",
"9. c #65606E",
"0. c #656070",
"q. c #666171",
"w. c #676172",
"e. c #676272",
"r. c #696374",
"t. c #686276",
"y. c #696276",
"u. c #696474",
"i. c #6A6574",
"p. c #6B6774",
"a. c #6A6675",
"s. c #6B6577",
"d. c #6B6677",
"f. c #6C6676",
"g. c #6B6874",
"h. c #6D6877",
"j. c #6B6578",
"k. c #6D6778",
"l. c #6C6679",
"z. c #6D677A",
"x. c #6D6878",
"c. c #706B7B",
"v. c #716D79",
"b. c #726E79",
"n. c #716C7B",
"m. c #716E7A",
"M. c #726E7A",
"N. c #726F7A",
"B. c #726F7B",
"V. c #736F7B",
"C. c #726D7D",
"Z. c #726E7C",
"A. c #736F7C",
"S. c #746F7E",
"D. c #746F7F",
"F. c #73707B",
"G. c #73707C",
"H. c #74717C",
"J. c #74727D",
"K. c #75727D",
"L. c #75737D",
"P. c #74707E",
"I. c #75707E",
"U. c #75717E",
"Y. c #75707F",
"T. c #75727F",
"R. c #76737E",
"E. c #76727F",
"W. c #76737F",
"Q. c #76747E",
"!. c #76747F",
"~. c #757180",
"^. c #767380",
"/. c #777380",
"(. c #767281",
"). c #777281",
"_. c #777382",
"`. c #777480",
"'. c #777481",
"]. c #777482",
"[. c #787382",
"{. c #787480",
"}. c #787481",
"|. c #787581",
" X c #787482",
".X c #797582",
"XX c #787483",
"oX c #797483",
"OX c #787583",
"+X c #797583",
"@X c #797682",
"#X c #7A7683",
"$X c #7A7783",
"%X c #7B7783",
"&X c #797584",
"*X c #797684",
"=X c #7A7684",
"-X c #7B7784",
";X c #7B7884",
/* pixels */
": : : : : : : % : : : : : : : % : : : : : : : % : : : : : : : % ",
": 9 9 9 9 9 9 + : 9 9 S &.4.`.B.).`.4.&.b 9 9 + : 9 9 9 9 9 9 + ",
": 9 9 9 9 9 9 + : S d.@X;X;X;XQ.XX$X;X;X#X2.c + : 9 9 9 9 9 9 + ",
": 9 9 9 9 9 9 7 l.$X;X;X;X;X;XQ.+X;X;X;X;X$X#XW : 9 9 9 9 9 9 + ",
": 9 9 9 9 9 S N.=X;X;X;X;X;X;XQ.oX;X;X;X;X;X;XQ.D.c 9 9 9 9 9 + ",
": 9 9 9 9 H $XQ.=X;X;X;X;X;X;XQ.[.$X;X;X;X;X;XQ.=X.Xb 9 9 9 9 + ",
": 9 9 9 9 }.;XQ.=X;X;X;X;X;X$XH.XX$X;X;X;X;X;XQ.=X;XU.9 9 9 9 + ",
"% + + + V M.J.H.`.Q.Q.Q.Q.Q.K.H.^.R.Q.Q.Q.Q.Q.H.`.F.v.U + + + o ",
": : : : ' oXD.W.=X=X=X=X=X&X+X`.=X&X&X=X=X=X=X`.*XD.+X' : : : % ",
": 9 9 9 #.;XE.K.=X;X;X;X;X$X;XQ.=X;X;X;X;X;X;XQ.OX{.;X#.9 9 9 + ",
": 9 9 9 #.;X}.L.=X;X$X$X;X;X;XQ.=X;X;X-X$X$X;XQ.+X.X;X#.9 9 9 + ",
": 9 9 9 #.$XA.K.3.C k k 6.%X;XQ.=X$Xr.Z k z +.G.+XE.%X#.9 9 9 + ",
": 9 9 9 #.|./.*.& # * * < }.;XQ.=X@Xy # * * # T &XT.$X#.9 9 9 + ",
": 9 9 9 #.;X;XK & * # # w /.;XQ.=X.Xh # * * # @ (.;X;X#.9 9 9 + ",
": 9 9 9 n ;X;X[ 6 # , d _ `.;XH. X%Xw.0 # # q T ].;X;XD 9 9 9 + ",
"% + + + + K.Q.b.q.P 3  .m.Q.!.> u.R.K.v.T 4 Y g.`.Q.H.+ + + + o ",
": : : : : j.=X`.=X~.(.=X=X=XC.O 5. X=X=XoX).+X`.=X=Xy.: : : : % ",
": 9 9 9 9 $.;XQ.=X;X;X;X;X;X-.  l I.;X;X;X;X;XQ.=X;X9 9 9 9 9 + ",
": 9 9 9 9 o.%XQ.=X;X;X;X;XU., . ; e.$X;X;X;X;XQ.=X$X9 9 9 9 9 + ",
": 9 9 9 9 9 &.R.=XP.'.;X;X}.p a v 7.;X;X;X/.n.R.=X%.9 9 9 9 9 + ",
": 9 9 9 9 9 9 i.=X=.j `.;X;X}.B.S.}.;X;X`.L L R.t.9 9 9 9 9 9 + ",
": 9 9 9 9 9 9 { =Xf.= ) ;X;X;XQ.=X;X;X;X>.- / Q.! 9 9 9 9 9 9 + ",
": 9 9 9 9 9 9 { =XZ.$ Q ^.$X$XK.&X$X}.E.@.- O.Q.~ 9 9 9 9 9 9 + ",
"% + + + + + + U `.p.. 1 X.<.I J ( 9.8.R s X x H.M + + + + + + o ",
": : : : : : : } =XY.t r B W 8 $ r 5 B f r i C.`.` : : : : : : % ",
": 9 9 9 9 9 9 ] =X;X%X1.e u g 2 t ^ F | h.$X;XR.! 9 9 9 9 9 9 + ",
": 9 9 9 9 9 9 6 z.;X;X-X+.a.,...:.7.,.0./.;X;X;.: 9 9 9 9 9 9 + ",
": 9 9 9 9 9 9 + m c.;X;X.X@X@XR._..X.X$X;X;Xk.+ : 9 9 9 9 9 9 + ",
": 9 9 9 9 9 9 + : A @X;X;X;X;XQ.=X;X;X;X;X|.E + : 9 9 9 9 9 9 + ",
": 9 9 9 9 9 9 + : 9 b x.;X;X;XQ.=X;X;X;Xs.N 9 + : 9 9 9 9 9 9 + ",
": 9 9 9 9 9 9 + : 9 9 9 A }.`.V.).`.s.G 9 9 9 + : 9 9 9 9 9 9 + ",
"% + + + + + + o % + + + + + + o % + + + + + + o % + + + + + + o "
};
