/* XPM */
static char *a6fdb5825a25450cd0c6254c26ff8e3bJ2HRJmdTLrx464N7[] = {
/* columns rows colors chars-per-pixel */
"64 64 131 2 ",
"   c #322743",
".  c #352A45",
"X  c #382E47",
"o  c #372B4A",
"O  c #392F48",
"+  c #3D324E",
"@  c #3E3350",
"#  c #40364C",
"$  c #433A4F",
"%  c #423656",
"&  c #453B54",
"*  c #483E56",
"=  c #4C4557",
"-  c #4E455C",
";  c #50475F",
":  c #524A5D",
">  c #4E4362",
",  c #514663",
"<  c #534A61",
"1  c #564D69",
"2  c #594E69",
"3  c #575060",
"4  c #5A5365",
"5  c #5C5865",
"6  c #5D5569",
"7  c #5F5A69",
"8  c #625C6C",
"9  c #645C71",
"0  c #685F76",
"q  c #66636E",
"w  c #666271",
"e  c #6A6574",
"r  c #6E6A76",
"t  c #6B6478",
"y  c #6F6B78",
"u  c #6D6878",
"i  c #6F6B79",
"p  c #706D77",
"a  c #706979",
"s  c #716A7A",
"d  c #716B7A",
"f  c #726B7B",
"g  c #706D78",
"h  c #706C79",
"j  c #716F78",
"k  c #726F79",
"l  c #706C7A",
"z  c #716D7A",
"x  c #706C7B",
"c  c #716C7B",
"v  c #716D7B",
"b  c #716E7A",
"n  c #726E7B",
"m  c #726F7B",
"M  c #746D7A",
"N  c #716B7E",
"B  c #716D7C",
"V  c #726D7C",
"C  c #726E7C",
"Z  c #736F7C",
"A  c #726E7D",
"S  c #716C7F",
"D  c #716D7B",
"F  c #727079",
"G  c #72707A",
"H  c #73717A",
"J  c #74717B",
"K  c #74707D",
"L  c #74717D",
"P  c #75717E",
"I  c #75707F",
"U  c #75717F",
"Y  c #76717F",
"T  c #75727E",
"R  c #76737F",
"E  c #77737F",
"W  c #76737E",
"Q  c #736D80",
"!  c #736E80",
"~  c #746E80",
"^  c #746F81",
"/  c #756F81",
"(  c #767280",
")  c #767183",
"_  c #777480",
"`  c #777481",
"'  c #767381",
"]  c #797381",
"[  c #787480",
"{  c #787481",
"}  c #787581",
"|  c #797581",
" . c #787482",
".. c #797583",
"X. c #7A7683",
"o. c #787284",
"O. c #787384",
"+. c #787385",
"@. c #797385",
"#. c #797485",
"$. c #7A7684",
"%. c #7B7784",
"&. c #797486",
"*. c #7A7586",
"=. c #7A7687",
"-. c #797583",
";. c #7B7885",
":. c #7C7885",
">. c #7C7985",
",. c #7D7986",
"<. c #7E7A87",
"1. c #7E7B87",
"2. c #7D7986",
"3. c #7C7788",
"4. c #7D7889",
"5. c #7E7989",
"6. c #7F7B88",
"7. c #7E798A",
"8. c #7E7A8A",
"9. c #7F7A8A",
"0. c #7F7B8B",
"q. c #7F7C88",
"w. c #7E7A8A",
"e. c #807B8B",
"r. c #807D89",
"t. c #817D8A",
"y. c #817E8A",
"u. c #827F8B",
"i. c #807C8C",
"p. c #807D89",
"a. c #83808B",
/* pixels */
"% , 1 1 1 1 1 1 , 1 1 1 1 , 1 % % 1 , 1 , 1 , , 1 1 1 , 1 , 1 % % 1 1 1 1 1 1 , 1 1 1 1 1 , 1 % % 1 , 1 1 1 1 > 1 1 1 1 > 1 1 % ",
"1 % % % % % % % % % % % % % % o 1 % % % % % % % % % % % % % % o 1 @ % % @ % % % % @ @ % % % % o 1 % % % % % % % % % % % % % % o ",
"1 % % 1 % 1 % 2 % 1 % 1 % 1 % o 1 % % 2 % 1 % 1 % 1 % 1 r ;.u r +.u i #.% 1 % 1 % 4 % 2 % 1 % o 1 % % 1 % 1 % 1 % 1 % 1 % 1 % o ",
"1 % 1 % 2 % 1 % 1 % 1 % 1 % 1 o 1 @ 2 % 1 % 1 Q +.+.7.+.r.R 1.F 7.) 7.) 7.Q 4.Q R % 1 % 1 % 1 o 1 % 1 % 1 % 1 % 1 % 1 % 1 % 1 o ",
", % % 1 % 1 % 1 % 1 % 1 % 1 % o 1 @ % 2 % ;.y r.) 7.` q.` q.` F 6.z T r.) r.( r.E ,.% 2 % 1 % o , % % 1 % 1 % 1 % 1 % 1 % 1 % o ",
"1 % 1 % 1 % 1 % 1 % 1 % 1 % Q o 1 @ 1 t >.` r.R 0.) q.` q.` q.F 6.T q.R i.( r.( r.E 1.z T % 2 o 1 % 1 % 1 % 1 % 1 % 1 % 1 % 1 o ",
", % % 1 % 1 % 2 % 1 % 1 % 1 o o 1 e R 1.R q.R r.) 0.) q.` q.` F =.( R r.T r.` r.R r.R 1.T ,.% o 1 % % 1 % Q o 1 % 1 % 1 % 1 % o ",
"1 % 1 % 1 % 1 % 1 % 1 % 1 % 1 1 q.R r.R q.R r.R 7.) 0.( q.R q.F 3.( r.R r.` r.T r.R r.R r.R r.p > % 1 % 1 % , % 1 % 1 % 1 % 1 o ",
"1 % % 1 % 1 & 1 % 1 % 2 % 1 w i 8.) T q.` q.R r.R r.R r.R r.R F 3.( ( r.R r.R r.R r.R r.R r.R F ^ e @ 2 % 2 % 2 % 1 % 1 % 1 % o ",
"1 % 1 & 1 % 1 % 1 % 2 % 1 Q 8.A 6.( q.` r.R r.R r.R r.R r.R r.F 7.T r.T r.R r.R r.R r.R r.R r.F 8.` $.@ 2 @ 2 % 1 > 1 % 1 % Q o ",
"1 @ % 1 & 1 % 1 % 1 % 1 T q.` G 6.( ` q.R r.R r.R r.R r.R r.R F 3.T T r.R r.R r.R r.R r.R r.R F 8.` ^ $.@ 6 @ 2 % 1 % 1 % 1 o o ",
"1 % 1 % 1 % 1 & 1 % 1 Q q.` q.G q.R q.` r.R r.R r.R r.R r.R r.F 3.T ,.` r.R r.R r.R r.R r.R r.F 8.T i.) =.% 2 % 1 % 1 % 1 % > o ",
"1 % % 1 % 1 % 1 @ 4 y r.R q.R F 6.( ( q.R r.R r.R r.R r.` q.R r 6.m F r.` r.R r.R r.R r.R r.R F 8.T T r.) ) @ 2 % 1 % > % 1 % o ",
"1 % 1 % 1 % 1 % 2 % ;.R q.` q.F 6.T q.` r.R r.R r.R r.R q.L 1.F 7.m 1.R r.R r.R r.R r.R r.R r.F 8.` 8.` =.t 1 @ 1 % 1 o 1 % 1 o ",
"1 % % 1 % 1 @ 1 % ) G >.` q.` F q.` R r.R r.R r.R r.R r.L 1.T F 7.T L r.R r.R r.R r.R r.R r.R F 8.T T r.Q ) Q 1 % 1 % Q % 1 % o ",
"% o o o o o o o o r r e r F F R R F F F F F F F F F F F y F F ` ( L z z F F F F F F F F F F F R T F G q 9 Q 0 o o o o o o o o % ",
"% 1 1 1 1 1 > 1 1 ) 7.#.@.3.6.T ( 6.6.6.7.6.8.8.6.6.7.6.=.7.6.( ( 6.6.8.8.6.6.6.8.8.q.q.8.8.q.R E 8.$.) >.6.) 1 1 1 1 1 1 , 1 % ",
", % % % % % % % % y ( ( z u T F 6.( R R ` ( T ) R R ( ( L ( R F 6.( L ` L ` ( R T ) ` R ` T ` F 8.T r L T R y % % @ % % % % % o ",
", % % 1 % 1 % 1 % #.R r.T ( m F 7.` T q.R r.R q.R r.T q.( q.` F 8.) R q.) q.R r.T q.` q.T q.R F 8.L r q.R r.r 1 % 1 % 1 % 1 % o ",
"1 % 1 % 1 % 1 % 4 r r.R ,.h 6.z 7.` q.` r.R q.` r.R r.] q.` q.F q.T q.` q.R r.R q.` q.R q.` r.F 8.L >.` r.R ..% 1 % 1 % 1 % 1 o ",
"1 % % 1 % Q o > % ..R r.F ;.T F 6.R ` q.R r.R r.] r.T r.R r.R F 8.) T q.R q.R r.R r.R r.R r.R F 8.L F q.` q.y 2 % 1 % 2 % 1 % o ",
"1 % 1 % 1 % 1 % 1 y r.R r.G 1.F 6.` q.( q.T q.T r.E r.T r.R r.F 8.` r.R q.` r.R q.T q.R r.R r.F 8.L >.` q.` ..% 2 % 1 % 1 % 1 o ",
", % % 1 % 1 % 1 % ..` q.T T H H 0.w w e 7 e 7 e w r.E r.R r.R F q.R R r...` w e 7 e 7 y w 1.T G 6.L e q.R r.y 2 % 1 % 1 % 1 % o ",
"1 % 1 % 1 % 1 % 2 y q.m ` r q.H 0 @ ; + ; + > + : 6 1.E r.R r.F 8.R r.T i * > + - + > + - ; 1.r 7.L $.A q.R ..% 1 % 2 % 1 % 1 o ",
"1 % % 1 % 1 % 1 % Q Q Q r 1.E = > @ @ , + : @ < + < z r.R r.R F 8.` ( >.< - @ > @ < + : @ ; = q 8.T j ` L r.G 1 % 2 % 2 @ 2 @ @ ",
"> % 1 % 1 % 1 % Q Q &.Q 1.E a.@ > @ < + , @ , + < & ..( r.R r.F 8.T q.L 8 + < + : @ > @ < + : r $.` 8.j r.` =.@ 1 % 2 % 2 % 1 o ",
"1 % % 1 % 1 % 1 @ ) Q 7.E r.r + > @ + , @ ; + : @ 4 z r.E r.E F 8.` R >.3 : + < @ > @ > @ > @ . =.L R r.` r.b 1 % 2 % 2 % 2 @ o ",
"1 % 1 % 1 % 1 % 1 Q 0.Q a.E E + > + < + < + < + < : ..T r.T r.F 8.T q.F w & > + < @ : + < + 3 @ =.A r.` r.L 8.@ 1 % 2 % 2 % 2 o ",
"1 % % 1 % 1 % 1 % &.` q.T r.y $ , @ @ < + < & 1 & u h ,.E r.E F 6.T T r.w 6 & < + > @ < @ 3 - 3 =.L T r.` q.y 1 % 1 % 2 % 2 % o ",
"1 % 1 % 1 % 1 % 2 @ r.` r.` 1.= 1 = - + - * 4 - 4 u ,.T r.T r.q @.T r.R a.4 4 & > @ : @ 3 ; 7 w =.` r.T q.` 1 @ 1 % 2 % 2 @ 2 o ",
"> % % 1 % 1 % 1 % 2 &.i.R r.R e ) & * 4 - 1 q : w ,.T r.R r.4 = t T R r.R >.y N = 1 = 4 = , q q 8.T ` r.) i.@ 1 @ 2 % 2 % 2 % o ",
"% o o o % o o o o o t A F F F R T e q 7   7 q 8 z F F F F F $ % 5 u z F F F F z y 7 o 5 r q G R R F F F ! w + o o + o o o o o % ",
"% 1 1 1 1 1 1 1 1 1 $.q.8.8.q.R ( 6.Q ( ^ #.6.6.6.6.7.6.e.,.1 + - ] 3.e.6.6.7.7.6.#.^ #.=.6.6.( ` 6.6.8.q.) 1 1 1 1 1 1 1 , 1 % ",
", % % % % % % @ @ % @ R T T ` F 6.T ` ..` T ( R ( ( ` T ..< + . 4 y z E ( T ( ( R E ..T ] ( R F 6.( ( ( A % @ % % @ % % % % % o ",
"1 % % 1 % 1 % 2 % 1 % >.` q.R F 6.( R r.T r.R r.( q.T r.T 6 + . 1 5 u r.R r.( r.R r.R r.T r.R F 6.R ( q.& 1 % 1 % 1 % 1 % 1 % o ",
"1 % 1 % 1 % 2 % 1 % 1 y q.R r.F 6.( r.R r.R r.R q.` r.] z * ; . , , a T r.R r.R r.R r.R r.( r.F 8.` q.` 1 % 1 & 1 % 1 % 1 % 1 o ",
"> % % Q % 2 @ 2 % 1 % 7.` q.R F 7.) T q.R r.R r.` q.` ( * : @ . > & 5 :.T r.R r.R r.R r.R r.( F 8.) ` q.% 1 % 1 % 2 % 1 % 1 % o ",
"1 % > o 2 @ 6 % 1 % 2 t 8.` r.F 7.` q.R r.R r.R q.` r.w ; + , . > % 8 w 6.T r.R r.E r.R r.R r.F q.T q.y 1 % 1 % 2 % 2 % 1 % 1 o ",
"> % % 1 % 2 @ 2 % 2 % 2 @ 0.E p 6.R ` q.R r.R r.R r...z + ; + + , & * y R r.R r.T r.T r.T q.T F 8.` y 2 % 4 % 1 % 2 % 1 % 1 % o ",
"1 % 1 % 2 % 2 % 2 @ 2 % 4 r q.G 6.R 1.7 T T r.R r.R 1...z & < F i.O w ..r.R r.R r.T ,.u 8 u q.F 8.L >.% 1 % 1 % 2 % 1 % 1 % 1 o ",
"1 % % 1 % 1 % 1 % 1 % 1 % 1 p G 8.) e 6 : m ( q.R r.R r...h w F i.6 w r.R r.R r.R 1.q 9 - w Z F 0.! % 1 % 1 % 1 % 1 @ 2 % 2 % o ",
"> % 1 % 1 % 1 % 1 & 1 & 1 % 1 G q.T ` = - @ m ( r.R r.R r...r.F 7.] r.] r.R r.R r.e < % > 7 6.F ! % 1 % 1 % 1 % 1 % 2 % 2 % 2 o ",
"1 % % 1 % > % 1 % 1 & 1 % 1 % H 8.) z 6 + > & ` T r...r.T r.T F 6.R ( r.R r.R r.L 4 # < @ m R F ! @ % 2 % 6 % 1 % 1 % 2 @ 2 % o ",
"1 % 1 % 1 o Q % 1 % 1 % 1 & 1 H 8.` 1.8 ; & > e r.T r.T r.T r.F 6.R r.R r.R r.R ,.& : % 3 r a.j ) @ 2 @ 1 % 2 % 1 % 1 % 2 % 2 o ",
"1 % % 1 % 1 % 1 % 1 & 1 % 1 % F 8.` ) y + < + ` E r.R r.R r.R F 7.( R r.R r.R r.L < @ < & >.R j ^ % % 1 % 1 % 6 % 1 % 1 % 2 % + ",
"> % 1 % 1 % 1 % 1 % 1 % 1 % 1 F 8.T q.q ; @ ; r z F r.T 1.T 1.p 6.T 1.T r.e z p #.& < + 1 y a.j ! @ 1 % 1 % 1 @ 1 % 2 % 2 % 1 o ",
"1 % o 1 o Q % 1 % 1 % 1 % 1 % F 8.T R L + : + u 6 p q E 6 e q 4 ^ 8 q ..T u 3 u 8 < & : & ..R j ^ % % 1 % 1 @ 1 % 1 % 1 % 2 @ o ",
"% o o o o o o o o o o o o O o R R F y 3   X . - 8 3 7 5 = : = : < - 3 7 8 : 3 4 : O X X   e j R t o o o o o o o o + o o o o o % ",
"% > 1 1 1 1 1 1 1 1 1 1 > 1 1 +.` 8.8.N , > > > t w Q 9 , 9 1 : , 2 6 2 t 9 6 w 1 , > < t ;.;.` w 1 1 1 1 1 1 1 1 1 1 1 1 > Q o ",
"1 % % % % % % % % % % % % % % Q 6.T T y 3 * - - % & - * @ % % . , @ @ @ & & @ @ - & * 3 r ` ` G ! @ % % % % % % % % % % % % %   ",
"1 % % 1 % 1 % 1 % 1 % 1 % 1 % Q 6.) ` q.` ,.3 w & < @ 1 & 4 $ + , & > w @ w e < w ` ! 1.` 1.` G ! % % 1 % 1 % 1 % 1 % 1 o Q % o ",
"1 % 1 % 1 % 1 % 1 % 1 % 1 % > Q 6.` q.` q.` y w 6 = 1 : 6 : 5 3 9 * 7 6 7 6 L > u e 1.` 1.` y.G ! % 1 % 1 % 1 % 1 % 1 % > % > o ",
"> % % 1 % 1 % 1 % 1 % 1 % 1 % Q ^ ) ) q.R q.` 1.4 u w L 6 9 - q t 7 6 t 7 u 8 8 q 1.` q.) 0.^ q , % % 1 % 1 % 1 o Q % > % Q o   ",
"1 % 1 % 1 % 1 % 1 % 1 % 1 % > o 1 L q.L r.` q.R ,.@ z 8 e 8 e e 9 6 w w y < u q y.` q.` 0.) ` o 1 % 1 % 1 % 1 % > % > o > % > o ",
"1 % % 1 % 1 % 1 % 1 % 1 % 1 % o 1 e ` q.R r.` q.T ..z ,.F ,.T F #.z z 6.L ;.G r.T q.` q.) 8.% o 1 % % 1 % 1 % 1 % > % Q o Q % o ",
"1 % 1 % 1 % 1 % 1 % 1 % 1 % > o 1 % 1 L r.R q.` r.( r.R r.R r.F 6.T r.( r.` r.` q.` q.` 8.% 1 o , % 1 % 1 % 1 % Q % > % > % 1 o ",
"> % % > o Q % > % 1 % 1 % 1 % o , % % 7.) 0.` q.R r.R r.` q.` F 7.( R q.` q.` q.) 0.) 7.Q 1 % o > o % > % > o Q o > % > % > % o ",
"> o Q % > % > o 1 % 1 % 1 % Q o 1 % 1 % =.^ q.` r.R r.R q.R q.F 6.( q.` q.R r.R 7.) =.Q 1 % 1 o 1 o Q % Q % > % > % > o Q o > o ",
"> % % 1 % > % Q % > % 1 % 1 o o 1 % % 2 @ &.Q 8.R r.R r.R q.T F 7.` T q.R r.R r.) &.Q 1 % 1 % o > % o > o > % > % > % Q % > % o ",
"1 % > o Q % > % Q o 1 % 1 % > o 1 % 1 % 1 % 1 u r.R r.R q.` q.F 7.` q.` r.R r.R Q % > % 1 % 1 o 1 % Q % > % > o Q o > % Q o Q o ",
"1 % % 1 % 1 % > o Q % > % 1 % o 1 @ % 2 @ 2 @ 2 % ,.E r.( q.( F 6.( ` q...>.y 4 % 1 % > % 1 % o 1 % % 1 % 1 % Q % > % 1 o > % o ",
"1 % 1 % 1 % Q o > % > o 1 % 1 o 1 % 1 % 2 % 2 % 1 % >.r =.i #.r ) y $.y ..% 2 % 1 % Q o 1 % 1 o 1 % 1 % 1 % 1 % > o Q % > % Q o ",
"1 % % 1 % > o Q % > % Q % 1 % o 1 % @ 2 % 2 % 4 % 1 % 2 % 2 % o 1 @ % 2 % 2 @ 2 % 1 % 1 % 1 % o 1 % % 1 % 1 % > % Q % 1 % 1 o   ",
"% o o o o o   o o o o o o o o % % o o o o o o o o o o o o o o % % o o o o o o o o o o o o o o % % o o o o o o       o o o o o o "
};
