/* XPM */
static char *result[] = {
/* columns rows colors chars-per-pixel */
"48 63 88 1 ",
"  c #010001",
". c #0C0103",
"X c #0B0A0C",
"o c #140306",
"O c #1C0407",
"+ c #160509",
"@ c #1D0408",
"# c #18090E",
"$ c #100F14",
"% c #1F0D14",
"& c #161616",
"* c #1B1B1B",
"= c #23050A",
"- c #2D060D",
"; c #32070E",
": c #35080F",
"> c #370911",
", c #3B0A12",
"< c #3B0E18",
"1 c #3B111C",
"2 c #1D1721",
"3 c #1C1923",
"4 c #2A1E20",
"5 c #211D29",
"6 c #3C1622",
"7 c #3D1826",
"8 c #3E1C2A",
"9 c #2B2534",
"0 c #2F2A3B",
"q c #3E2232",
"w c #3F2739",
"e c #322B3C",
"r c #3F293B",
"t c #430A13",
"y c #4C0B15",
"u c #440D18",
"i c #4C0F1A",
"p c #510C17",
"a c #530D18",
"s c #5C0E1B",
"d c #43121E",
"f c #4D111D",
"g c #52101C",
"h c #5A121F",
"j c #640F1D",
"k c #680F1E",
"l c #64101F",
"z c #6B101F",
"x c #431623",
"c c #451927",
"v c #4E1827",
"b c #431C2C",
"n c #491F2E",
"m c #561220",
"M c #5B1221",
"N c #671220",
"B c #6D1121",
"V c #731222",
"C c #7C1324",
"Z c #412334",
"A c #422739",
"S c #402B3E",
"D c #342E41",
"F c #3F2D41",
"G c #3C344A",
"H c #402D42",
"J c #413146",
"K c #41364C",
"L c #41384F",
"P c #423A52",
"I c #4B4B4B",
"U c #5B4F51",
"Y c #565756",
"T c #821426",
"R c #871629",
"E c #8A1629",
"W c #91172B",
"Q c #95182C",
"! c #9C192F",
"~ c #9F1A30",
"^ c #A11B31",
"/ c #A5A5A5",
"( c #B8ABAD",
") c #BBBBBB",
"_ c #C0C0C0",
"` c #CEC1C3",
"' c #D6D6D6",
"] c #D8D8D8",
/* pixels */
"PPPPPPPPPPPPPPPPPPPPPPPPPPPPPPPPPPPPPPPPPPPPPPPP",
"PPPPPPPPPPPPPPPPPPPPPPPPPPPPPPPPPPPPPPPPPPPPPPPP",
"PPPPPPPPPPPPPPPPPPPPPPPPPPPPPPPPPPPPPPPPPPPPPPPP",
"PPPPPPPPPPPPPPPPPPPPPPPPPPPPPPPPPPPPPPPPPPPPPPPP",
"PPPPPPPPPPPPPPPPPPPPPPPPPPPPPPPPPPPPPPPPPPPPPPPP",
"PPPPPPPPPPPPPPPPPPPPPPPPPPPPPPPPPPPPPPPPPPPPPPPP",
"PPPPPPPPPPPPPPPPPPPPPPPPPPPPPPPPPPPPPPPPPPPPPPPP",
"PPPPPPPPPPPPPPPLPPPPPPPPPPPPPPPPPPPPPPPPPPPPPPPP",
"PPPPPPPPPPPPPPPLJrrSFrrrJHrFPPPPPPPPPPPPPPPPPPPP",
"PPPPPPPPPPPPPPPL1,<<<,<<,<,1GPPPPPPPPPPPPPPPPPPP",
"PPPPPPPPPPPPPPAbhlVBzVBVBVBBnAPPPPPPPPPPPPPPPPPP",
"PPPPPPPPPPPPLL8tVE^^^!~~~~~Qy1LPPPPPPPPPPPPPPPPP",
"PPPPPPPPPPPPH1MVQ!^^^lpppppaTC6wPPPPPPPPPPPPPPPP",
"PPPPPPPPPPLJZtBE!^^QEt-----:TCynJGPPPPPPPPPPPPPP",
"PPPPPPPPPPJ1aCW~^^^V,o     .;s!N<FPPPPPPPPPPPPPP",
"PPPPPPPPPPJ<aTQ^^QVy=.      O>VBknrLPPPPPPPPPPPP",
"PPPPPPPPPLJ,aTW^^R,@         .:B^a<KPPPPPPPPPPPP",
"PPPPPPPPLZxkVTQ^^E,@         .,B~a1LPPPPPPPPPPPP",
"PPPPPPPPL6tCTTW~^R,@ **     *4:B^a<KPPPPPPPPPPPP",
"PPPPPPPPL6tCTTTR!E,@$/_&   &)(<B~p<KPPPPPPPPPPPP",
"PPPPPPPPL6tCVkVT~R,@X)]*   &]`<z^p<LPPPPPPPPPPPP",
"PPPPPPPPL6tCk,kR~R,@X)'*   &'`<z^a1LPPPPPPPPPPPP",
"PPPPPPPPL6tCj>jR~R,@XIYX   XYU,lEp<KPPPPPPPPPPPP",
"PPPPPPPPLxuVj,kTQRt=         .:sCy<LPPPPPPPPPPPP",
"PPPPPPPPPKSit:jTTREj-.       .:sTy<LPPPPPPPPPPPP",
"PPPPPPPPPPJ866MBCR!Vy=.     .=ysBf8GPPPPPPPPPPPP",
"PPPPPPPPPPPLLL7tVTTTCy-     -yCs<HPPPPPPPPPPPPPP",
"PPPPPPPPPPPPPPSbhjsBTja=@@@=pjsvqJPPPPPPPPPPPPPP",
"PPPPPPPPPPPPPPPK1:,sTTVtt,,tVV,bLPPPPPPPPPPPPPPP",
"PPPPPPPPPPPPPPZ1lVVVTW!EEEEE!EVm6JPPPPPPPPPPPPPP",
"PPPPPPPPPPPPKHxyCEEER!^^^^^^~!EjuZJPPPPPPPPPPPPP",
"PPPPPPPPPPPPr<jT!~~!~^^^^^^^^^^ECy6LPPPPPPPPPPPP",
"PPPPPPPPPPPPr>lR!^^^^^^^^^^^^^^WCy<LPPPPPPPPPPPP",
"PPPPPPPPPPPPr,jT!^^^^^^^^^^^^^^WCy<LPPPPPPPPPPPP",
"PPPPPPPPPPPPA>V!^^^^^^^^^^^^^^^!Wa<LPPPPPPPPPPPP",
"PPPPPPPPPPPJZtC^^^^^^^^^^^^^^^^^~p<LPPPPPPPPPPPP",
"PPPPPPPPPPJ6gCW^^^^^^^^^^^^^^^^^~p<GPPPPPPPPPPPP",
"PPPPPPPPPPJ<aTW^^^^^^^^^~Q!^^^^^~jiAJPPPPPPPPPPP",
"PPPPPPPPPPJ<pTQ^^^^^^^^^WTW^^^^^~EVt8PPPPPPPPPPP",
"PPPPPPPPPPJ<pTQ^^^^^^^^^QTQ^^^^^^EV,8PPPPPPPPPPP",
"PPPPPPPPPPJ<aTQ^^^^^^^~~WCW^^^^^~EVt8LPPPPPPPPPP",
"PPPPPPPPPPJ<aTQ^^^^^^^!EBtBE!^^WRTV,8PPPPPPPPPPP",
"PPPPPPPPPHAajCE~!~Q!~!QTj:jTW!^WCTVt8PPPPPPPPPPP",
"PPPPPPPPL7uVCTTT!!TW~RTTk,jTTE^ETTV,bPPPPPPPPPPP",
"PPPPPPPPL6tCTTTTEWWWWTVstOtjVEWETTV,8PPPPPPPPPPP",
"PPPPPPPPL6tCTCCTTR~WTTV,= =,VTTCCTVt8LPPPPPPPPPP",
"PPPPPPPPL6tCkyBTTTRTTsto. =tVRTjyVVt8PPPPPPPPPPP",
"PPPPPPPPL8dBj>jTVVTTCy;   @:zVTjtkBuZPPPPPPPPPPP",
"PPPPPPPPPLHu>>jCyyCTTy-    .;iTCCy<JLPPPPPPPPPPP",
"PPPPPPPPPPLq6,ajccjjjt:553$ ;tsjjcqLPPPPPPPPPPPP",
"PPPPPPPPPPPPA<><JH<:>,<LPP3 ;,,,<HPPPPPPPPPPPPPP",
"PPPPPPPPPPPPJSAHLDoo+8HLPGDD#%rFFGPPPPPPPPPPPPPP",
"PPPPPPPPPPPPPPPPPDXX DPPPPPGX$PPPPPPPPPPPPPPPPPP",
"PPPPPPPPPPPPPPPPGGG3 ePPPPPGX2GPPPPPPPPPPPPPPPPP",
"PPPPPPPPPPPPPPPPPPP5 ePPPPGGX$PPPPPPPPPPPPPPPPPP",
"PPPPPPPPPPPPPPPPPPP3X0PPPPPGX$GPPPPPPPPPPPPPPPPP",
"PPPPPPPPPPPPPPPPPPPG9GPPPPPG0DGPPPPPPPPPPPPPPPPP",
"PPPPPPPPPPPPPPPPPPPGPPPPPPPPPIGPPPPPPPPPPPPPPPPP",
"PPPPPPPPPPPPPPPPPPPPPPPPPPPPPPPPPPPPPPPPPPPPPPPP",
"PPPPPPPPPPPPPPPPPPPPPPPPPPPPPPPPPPPPPPPPPPPPPPPP",
"PPPPPPPPPPPPPPPPPPPPPPPPPPPPPPPPPPPPPPPPPPPPPPPP",
"PPPPPPPPPPPPPPPPPPPPPPPPPPPPPPPPPPPPPPPPPPPPPPPP",
"PPPPPPPPPPPPPPPPPPPPPPPPPPPPPPPPPPPPPPPPPPPPPPPP"
};
