/* XPM */
static char *result[] = {
/* columns rows colors chars-per-pixel */
"32 32 256 2 ",
"   c #08070F",
".  c #0A0B0F",
"X  c #18130E",
"o  c #0A0B10",
"O  c #0A0B11",
"+  c #0B0C11",
"@  c #0B0C12",
"#  c #0C0C13",
"$  c #0F0E13",
"%  c #0C0C14",
"&  c #0C0C15",
"*  c #0D0D15",
"=  c #110D12",
"-  c #120F1C",
";  c #0E101A",
":  c #131314",
">  c #17151A",
",  c #14131F",
"<  c #12141D",
"1  c #13141E",
"2  c #1B141A",
"3  c #1E131F",
"4  c #25151E",
"5  c #130F20",
"6  c #131121",
"7  c #151021",
"8  c #171A26",
"9  c #1E1C21",
"0  c #1C1D22",
"q  c #1A1C27",
"w  c #191430",
"e  c #1A1434",
"r  c #1A1534",
"t  c #1E173D",
"y  c #201B22",
"u  c #21192B",
"i  c #331E29",
"p  c #381D29",
"a  c #381D2A",
"s  c #1D2130",
"d  c #1C223D",
"f  c #252525",
"g  c #222328",
"h  c #262628",
"j  c #26272B",
"k  c #27282C",
"l  c #29292B",
"z  c #2C2C2F",
"x  c #252531",
"c  c #312930",
"v  c #372539",
"b  c #313136",
"n  c #343437",
"m  c #32323A",
"M  c #38383B",
"N  c #3A3A3A",
"B  c #473A2D",
"V  c #432331",
"C  c #452533",
"Z  c #462533",
"A  c #402437",
"S  c #462B37",
"D  c #452538",
"F  c #4B2938",
"G  c #4B2A3B",
"H  c #512F3E",
"J  c #502E3F",
"K  c #201842",
"L  c #361F45",
"P  c #2D1F5E",
"I  c #1F2542",
"U  c #242842",
"Y  c #232A45",
"T  c #232B45",
"R  c #2A2E45",
"E  c #232B4C",
"W  c #32214F",
"Q  c #313A45",
"!  c #292459",
"~  c #3D2659",
"^  c #29335C",
"/  c #2B3562",
"(  c #2B3663",
")  c #372574",
"_  c #3E2E75",
"`  c #392678",
"'  c #3A317E",
"]  c #39387E",
"[  c #4A2D40",
"{  c #4D2D41",
"}  c #44254B",
"|  c #453042",
" . c #493148",
".. c #403D4E",
"X. c #573342",
"o. c #573443",
"O. c #593444",
"+. c #593545",
"@. c #5A3545",
"#. c #5A3547",
"$. c #5C3747",
"%. c #523049",
"&. c #5A364C",
"*. c #4B2F5D",
"=. c #472D60",
"-. c #4B2A6E",
";. c #4C2B6F",
":. c #403862",
">. c #5D3C68",
",. c #4E2D79",
"<. c #59367B",
"1. c #424245",
"2. c #454246",
"3. c #444547",
"4. c #454547",
"5. c #48484A",
"6. c #49494A",
"7. c #48494B",
"8. c #4A4A4C",
"9. c #4D4B4E",
"0. c #4D4E50",
"q. c #515255",
"w. c #545459",
"e. c #595A5B",
"r. c #5A5A5C",
"t. c #5A5960",
"y. c #5D4876",
"u. c #605D6D",
"i. c #626262",
"p. c #646465",
"a. c #646566",
"s. c #656566",
"d. c #686869",
"f. c DimGray",
"g. c #6A6A6B",
"h. c gray42",
"j. c #6D6E6F",
"k. c #6D6E70",
"l. c #797979",
"z. c #79797A",
"x. c gray48",
"c. c gray49",
"v. c #7E7E7E",
"b. c gray50",
"n. c #3C2882",
"m. c #3F3286",
"M. c #4D308A",
"N. c #463190",
"B. c #433693",
"V. c #473096",
"C. c #443B96",
"Z. c #5E3B95",
"A. c #4C32A4",
"S. c #4E36A8",
"D. c #5236B0",
"F. c #5336B4",
"G. c #3B4989",
"H. c #3C4C8C",
"J. c #43509B",
"K. c #605C9E",
"L. c #747680",
"P. c #495BAB",
"I. c #544FBD",
"U. c #4D5BB4",
"Y. c #624DAB",
"T. c #624CB3",
"R. c #624BBA",
"E. c #7473BF",
"W. c #5B3BC6",
"Q. c #5746C0",
"!. c #5E58D5",
"~. c #6140D1",
"^. c #6440D8",
"/. c #6446DB",
"(. c #6448DC",
"). c #6449DC",
"_. c #644EDF",
"`. c #654FDF",
"'. c #655BD6",
"]. c #6451DE",
"[. c #5267C0",
"{. c #5A6DCB",
"}. c #5E6EDC",
"|. c #6551E1",
" X c #6557E4",
".X c #6658E4",
"XX c #665AE5",
"oX c #665DE7",
"OX c #6764EC",
"+X c #6766EC",
"@X c #6867ED",
"#X c #6769ED",
"$X c #6F6CEB",
"%X c #686CEF",
"&X c #6874E5",
"*X c #6472EA",
"=X c #697EEB",
"-X c #686FF1",
";X c #6970F1",
":X c #6870F2",
">X c #6877F2",
",X c #6974F4",
"<X c #6976F5",
"1X c #6977F6",
"2X c #6A7FF8",
"3X c #A165BE",
"4X c #A17DBE",
"5X c #845ED0",
"6X c #6D83E4",
"7X c #6D87E6",
"8X c #6B84FD",
"9X c #6B85FD",
"0X c #6A86FC",
"qX c #6B86FE",
"wX c #6C88FF",
"eX c #728EFE",
"rX c #808080",
"tX c #848484",
"yX c #868686",
"uX c #898989",
"iX c #8D8D8D",
"pX c #8D8E8F",
"aX c #8E8E8E",
"sX c gray58",
"dX c #949596",
"fX c gray61",
"gX c #9D9D9D",
"hX c #A0A0A0",
"jX c #A4A4A5",
"kX c gray65",
"lX c #A8A8A9",
"zX c #AFAFAF",
"xX c gray74",
"cX c gray75",
"vX c #E5859B",
"bX c #D385AA",
"nX c #879FC9",
"mX c #829BCE",
"MX c #90A7CC",
"NX c #94AECE",
"BX c #909FF5",
"VX c #A2BCE6",
"CX c #BDB8E2",
"ZX c #C0C0C0",
"AX c #C1C1C1",
"SX c #C1C1C2",
"DX c gray76",
"FX c gray77",
"GX c #C6C6C6",
"HX c #C6C6C7",
"JX c gray78",
"KX c #C8C8C8",
"LX c gray79",
"PX c #CACACA",
"IX c #CBCBCB",
"UX c gray80",
/* pixels */
"UXUXrXrXrXkXUXUXUXrXrXrXrXUXUXUXUXrXrXrXrXUXUXUXJXrXrXrXxXUXUXUX",
"rXrXUXUXUXkXrXrXrXUXUXUXUXrXrXrXrXUXUXUXUXrXrXrXtXUXUXUXaXrXrXrX",
"rXrXUXUXUXkXrXrXrXUXUXUXUXrXrXrXrXUXUXUXUXrXrXrXtXUXUXUXaXrXrXrX",
"rXrXUXUXUXkXrXrXrXUXUXUXUXrXrXrXrXUXUXUXUXrXrXrXtXUXUXUXaXrXrXrX",
"rXrXUXUXUXkXrXrXrXUXUXUXUXrXrXrXrXUXUXUXUXrXrXrXtXUXUXUXaXrXrXrX",
"UXUXrXrXrXkXUXUXUXrXrXrXrXUXUXUXUXrXrXrXrXUXUXUXJXrXrXrXxXUXUXUX",
"UXUXrXrXrXkXUXUXUXM 0 b v.UXIXKXPXrXrXa.0 j cXLXJXrXrXrXxXUXUXUX",
"UXUXrXrXrXkXUXUXUXz 6XF...DXjXe u.x.d.P $XT X N JXrXrXrXxXUXUXUX",
"UXUXrXrXrXkXUXUXUXz VXoX` 0.1 OX] n # ).BXQ B yXJXrXrXrXxXUXUXUX",
"rXrXUXUXUXkXrXrXrX1.7X1XW.t ; wXG.O D.|.eXY p.rXtXUXUXUXaXrXrXrX",
"rXrXUXUXUXkXrXrXrX1.S.:X@X0X].wX#X>X8X.X!.r l.rXtXUXUXUXaXrXrXrX",
"rXrXUXUXUXkXv.7.5.k & C.wXwXqX+X<XwXwX}.K . 3.5.g.UXUXUXaXrXrXrX",
"UXUXrXrXrXkXJXw I.mXMXQ.%X_.bX^.3X5X`.*XE.NX{.n.k.rXrXrXxXUXUXUX",
"UXUXrXrXrXkXIXlXg N.6 d 4XCXU (.m.nXvXP.+ V.x q.GXrXrXrXxXUXUXUX",
"UXUXrXrXrXkXUXUXUXl 8 . W '.9XwXwX-XZ.. < o ZXUXJXrXrXrXxXUXUXUX",
"UXUXrXrXrXkXUXUXUXf R = a } y.|.Y.*.V 4 s @ ZXUXJXrXrXrXxXUXUXUX",
"rXrXUXUXUXkXrXrXrXcX: u [ H O.O.O.@.p  .  i.rXrXtXUXUXUXaXrXrXrX",
"rXrXUXUXUXkXrXrXf.h 3 T.H.=.;.-.-.<.* &X~ 2.c.rXtXUXUXUXaXrXrXrX",
"rXrXUXUXUXkXrXrX6.) %.>.' L ~.,XXX,.% R.X.M.m rXtXUXUXUXaXrXrXrX",
"fXfXzXzXzXkXfXfXr.U.=XJ G +.&.A { #.o.D K.2Xq fXgXzXzXzXhXfXfXfX",
"UXUXrXrXrXkXUXUXdX_ J.2 $.$.$.$.$.$.$.S ^ B.t.UXJXrXrXrXxXUXUXUX",
"UXUXrXrXrXkXUXUXUXs.e.9.i Z @.$.$.F C c e.pXKXUXJXrXrXrXxXUXUXUX",
"UXUXrXrXrXkXUXUXUXrXl.y v 5 $ 9 > - 7 | 8.UXUXUXJXrXrXrXxXUXUXUX",
"rXrXUXUXUXkXrXrXrXUXAXI ;X/., rX4.A. X[.j.rXrXrXtXUXUXUXaXrXrXrX",
"rXrXUXUXUXkXrXrXrXUXJXL.( ! w.rXh.:./ E j.rXrXrXtXUXUXUXaXrXrXrX",
"rXrXUXUXUXkXrXrXrXUXUXLXSXz.b.rXrXFXSXSXHXrXrXrXtXUXUXUXaXrXrXrX",
"rXrXUXUXUXkXrXrXrXUXUXUXUXrXrXrXrXUXUXUXUXrXrXrXtXUXUXUXaXrXrXrX",
"UXUXrXrXrXkXUXUXUXrXrXrXrXUXUXUXUXrXrXrXrXUXUXUXJXrXrXrXxXUXUXUX",
"UXUXrXrXrXkXUXUXUXrXrXrXrXUXUXUXUXrXrXrXrXUXUXUXJXrXrXrXxXUXUXUX",
"UXUXrXrXrXkXUXUXUXrXrXrXrXUXUXUXUXrXrXrXrXUXUXUXJXrXrXrXxXUXUXUX",
"uXuXDXDXDXkXuXuXuXDXDXDXDXuXuXuXuXDXDXDXDXuXuXuXiXDXDXDXsXuXuXuX",
"rXrXUXUXUXkXrXrXrXUXUXUXUXrXrXrXrXUXUXUXUXrXrXrXtXUXUXUXaXrXrXrX"
};
