/* XPM */
static char *_53b797b7f2f4c8eab9f4c51df0a5892Fu3WpBrL3iYlg95V[] = {
/* columns rows colors chars-per-pixel */
"64 64 51 1 ",
"  c #322787",
". c #352A86",
"X c #382E86",
"o c #352A8A",
"O c #382D8C",
"+ c #3D328E",
"@ c #3E3393",
"# c #403595",
"$ c #433896",
"% c #403598",
"& c #453A9B",
"* c #483C9E",
"= c #473DA0",
"- c #493EA3",
"; c #4B419D",
": c #4D42A4",
"> c #4E43A9",
", c #5146A6",
"< c #544AA6",
"1 c #5246AB",
"2 c #554AAD",
"3 c #594EAE",
"4 c #5951A7",
"5 c #5C52AD",
"6 c #5447B0",
"7 c #564AB1",
"8 c #594EB2",
"9 c #5D52B4",
"0 c #5E54B8",
"q c #6056AE",
"w c #6156B5",
"e c #645AB5",
"r c #685EB7",
"t c #6156B9",
"y c #655BBB",
"u c #695EBD",
"i c #6B61BD",
"p c #7066BF",
"a c #7268BF",
"s c #675CC0",
"d c #6A5EC1",
"f c #6D62C2",
"g c #6E63C9",
"h c #7166C4",
"j c #746AC5",
"k c #786EC6",
"l c #7166C9",
"z c #766BC9",
"x c #796ECA",
"c c #7B71CB",
"v c #7F74D0",
/* pixels */
"...XooooOoooooooOoooooooXoooOOooO.o.ooO.ooo oo ooooooooo....oo.o",
"X.o#@@@@@@@@%@@@@@@@++@@@@@@@@@@@@@@@@@@@@@@@%@@@@++@@+++@++@.oo",
" X&<711166616>661,,007221221111180822221122>>22280e0qweerrss5&oX",
"o#:8777777777776788f0227777778770f9727777777772242eiis0387780e@.",
"o%12677777287777228ff87722272277s0227277777772827>0e0317777229@o",
" #127777787221270fs000f0y0s08270f52227277722772779sy327876678,@o",
"o#122227122289yss9777170880700sfs98223227777880esss82777778271@O",
" #3ww89wyyyyyfi0777277777766727809fyy0sssyssffffiey22271622221@O",
"o+0fysssyysriiy42272677777727172<3<fgsfs009980ysirie0805000ys0@o",
"o+0fyy0yssseiie137777776776787223<1f8177771772235ehifiiifgssr8@X",
"o%008427w0ssfi0,3127777767777777<3u3>>:67677772125y0if0088883,@X",
".%72272223wwwssf082777777771221&<0>9f0>>777777277227i021727671@o",
"o@>477772242,89slieudyf0sy09555ih31fff2:7777277777710928777781@o",
"o%>77272222241>5jfiuyyyfsfhfiiixziiild11777772277280j0<1277177@o",
" @359990798584wsuyyt9775828850ihcchhy2;22127773350sffysi995009@ ",
"o@essfesssyihfse3212717277222<:0kakkh489909880ssfy8225000ysisy@o",
"o@efsssiiieieiw<77777777777222,:5hkkiwuuuduuruuu522277277>2747@o",
"o@2559eie09iei9<2777777777777772*ykhieuettuhuue327777777777771@o",
"o@2222222243yu>17767776777877772<uxzu3886768thr227717>7777778>@o",
"o@1272212172dd0031737787977<77725jxhw-8687666rhe97289377777171@o",
"X@2721290eisgffgi0ffyyy0eeeiii05icap3*36-762<eupiiiisiss0yfii5@.",
".@5fiiffggys0888880iyijiiii555ihkaaaeq5wdtwyeurriiye090shrsrie+.",
"o@ifsf0087274217772778eiiiqiiazzjkxckkieeuyuuprri3,28219880iiw+.",
"o@00776627712777777772,4ieeeeiffhphkckaiwerrrhre,,,,28722722yw$.",
".@17677777777777777772249yff0ffffdhhyuju<,3w9yu30hs>277771247y@ ",
"o@1277667778277176772222sifgfffft6ew*6uhw>,-<2uwffg1777778713y@o",
"@@27777776772777717748wijjiiiff2#**-$*tfy8uuupxiig9>22277713ee@o",
".@27166112272780800f0rifkckphhje--*---ulgugxxxkajjy0s0ysy89sfw@ ",
".@9e9e9e005iiihest0908wfhhkcckkke4q45ikkzjchaaaijcxyirighffii5@.",
".@9iifuiiiii559077712:9ifffjzkhkkeqqrkkjii335<;22fe2wweeefiysq+.",
" @0iuuuyi5e5ii,;77772>sgfggffsfgachhiwihi<:2,,71:::212222999s0+o",
".@<925uuii9ehii1221,=2gfffssgfgfuckhw9if00lf0:1777877722222288@o",
"o%18777730eijif9-----tfhdt1:tgffijkuhhhffgdgg66676777777772271%o",
"o@>77777<<3efffffdffu9ffd2@#=0ffjczhuufffffff11876767777772322@ ",
"o@2272222<39eihfhfiiuwjhhw,**2jxzcckljhhffffd1,128828718717238@O",
" @1727050yyiccvxzxcvvikkkueerpxkxxczzzzujkkku9du00yysysssssef0Oo",
"o@wssfgsii0jhihhuepiaaakiqqe5ikkxxxzzkckjhckyysshfyfiiierssrs5+X",
"o@szsy0821,iy081----*5jkiriq5uuhdfdfhhhzxf5<227750ijiriseessfe+.",
"o@wy822727::61>16999-&whxpq;thdffgdsfdfhcz,=92>77220iy441777e0@o",
"o@8427777171>>7786863-*thxppfutdldd8ffhucz9:27777274rw42232774@o",
"o@127227772777778-s-7---whhdutfudgftsffhkkq:47777211tr1<777771@O",
"O@,422,277277777-077-ss7qjprr28tfuig5rpkcje00277853yhuq9227782@o",
"o@9e988911211127s-7-69ssqkkke4uxhkjhkijkieqiiy0yfiyirfheyr00y0@.",
" +9iysigffff0fssssssyssyiaaaw3hkcckcg4w055reesisyerrihuffsfsi0@o",
"o@0hiffsfyssydyw0788652<wkaieeiclhzg711132273770fyi09w9tt80909@O",
"o@50952,237218811767665-$iaie<:<007:>777777277220i9<6616227182@o",
"o@1222777771776768678-8-:yfre<::2::1777727732228i0,22176762231@o",
"o@1222221667712662878009szxzu<:3222,7727772833yyie95800t999931@o",
"o@90twwww9t999ty99yyyiyyflzhhf59q389eywuutyuyrfreiiffyyuuuudy0+.",
"O@ygdyuryyudfdusiiiyiy<yffdfgf9ryeuhiuyyuuuudy92<290ifyuyuuuue@.",
"oO2989yyuuuuy98850iiy<&ygywdi<;iuuyw889883rde227221<8f85893387@.",
"o@,2223yu93-6866,23001:;-,,2,,,2u3688-36<,wu366778137f71717722%o",
"o%138<>dw,276133522s012:,1-16,70u63377666qtu912717210i05227122# ",
".@>3273fr3116331,28fi922277779ifhww99tywuuuuuuy00y0yiyiftst9y8#o",
"o@309sdddtyw82635iiiyiyy8989ufy0rruiiuiuirrreyiudfyf009eydufdw# ",
".@0fffyyyudyddtuiiffyihdhduuyyuieieuhuiwq43<519fy0322222223031#.",
"o+8s88872389800fyufy90w8777070009iyyuft67727271f82117<2227122,@o",
"O@7772722227712yz9136622777--0-666<euu317777777s8889988899889<@O",
" @26777777777718z9<3628277770--088663ft9877770yuyiffffdfyyddue@o",
"o@27677727777772i82666767777600-66636iit00ssyif21113338288w9y9@o",
"o+>7777776777760j96977777777877s8689<yw688780fh877776667662721@o",
"oo@2666116666119y--6-0--66666--7616-,wq->421,20y876721266222,&oo",
"X.O@@@@@@@@@@%@@##%%*%%#@#%##@##########@@+@@+@@@@@@#@@#@@@#+..o",
"XooOooooooooo...  oooooo oo o  oo  oo   .ooooooooooooo  ooX..XX."
};
