/* XPM */
static char *tile641680461054[] = {
/* columns rows colors chars-per-pixel */
"64 64 53 1 ",
"  c #0F0502",
". c #0F0802",
"X c #150402",
"o c #1C0402",
"O c #170805",
"+ c #1D0904",
"@ c #1E0A09",
"# c #240403",
"$ c #2C0504",
"% c #240905",
"& c #2C0905",
"* c #250608",
"= c #2B0608",
"- c #250A09",
"; c #2B0A09",
": c #340504",
"> c #3B0605",
", c #340905",
"< c #3B0A06",
"1 c #340609",
"2 c #3C0609",
"3 c #340A09",
"4 c #3D0B0A",
"5 c #3C110B",
"6 c #3F0D10",
"7 c #420606",
"8 c #4A0605",
"9 c #420A06",
"0 c #4A0A06",
"q c #43060A",
"w c #49070B",
"e c #430B0B",
"r c #4A0C0C",
"t c #520C0D",
"y c #4B1106",
"u c #44110D",
"i c #4B110E",
"p c #501007",
"a c #53110E",
"s c #58130E",
"d c #460D11",
"f c #4B0D11",
"g c #520E11",
"h c #5C0E12",
"j c #451211",
"k c #4D1212",
"l c #4F1815",
"z c #531212",
"x c #5A1213",
"c c #591814",
"v c #631517",
"b c #691417",
"n c #65161B",
/* pixels */
";41&:$####&$+#-o+$:<3,:::44>e4r334,#;34>&*&:23=Xo1-#######&,;$$X",
">gwjreereerr29e2:29e0rdr<ijdzif33ewrrfzdetvtzvh3=q44e9edddwrdeq:",
",tre4>>49<09<<2:$2q98rfr0traaig,dfki9rzgirzsppt1>re>rere9qeiu<r&",
"<iee8e4e0509444$;4r9uikestrrarg<,4rkrei4ukj44uz-3r4<4ue<e9rr09e&",
",re<9r9erre792q139drrtzzareiuer$,erzzareue4114k$,2:4irwwe8ttiwg,",
"4gte807re5u0uee$:9ee9rttr7euu9r&izrklkricu5e94k<17>ereqr9errerf3",
"$9e4<9<97<4riwe$32e44rrr9eeeu0j;3rrzlzjuixk9eiz:4te0rrr4rkirr9w#",
"$79<4e42e,27eee$,2994rre<eereez&19rjukl2uzdeuiz&4teetrtrrru8442o",
",20ee8e<r49>49e$:7edkkr2222rr9k,3k49rujjudjiazk:2ur88rkr9eee88<#",
"<rreurre0e989rr$&e9e94e2u94rikk;4rerkue444uekxk4342<4rr8errree9#",
"$4e4eeee<444499#$e4<:<79erre94d;;d4uzu2234e4rre=2r2>eirq2erree2#",
"$er4er0re97242q#$71<9erre927e9k%,92rtuer5erirre$4e::<9e7eeewrwe&",
"$er<<e0e4<213:4o&9>,<4re9e59<<4#,9<uaiijuuuuur4#4u2,:7<<<49899<&",
":ee44eee<<<4<<4#1wr9u0teekjke2e$&24wauikiire5e4#197<2272:<2ru09#",
"4wfr9wfweedwrrr,:ddre4q22qe4d6d=3fddzkirrwe2272$:244464322werre=",
"#$,&#$&#*#*$*$3-X*###%*X#**##$$XX-##,%#*&##o#$*#Xooooo#Xo%###$*X",
"#2<<<<,<<924494&*3$,243,4<,e4:>;$42,,e::$3,<<:<%&1$*$&3;%$::4$$X",
"*d42<442<ere5re$3434e2442424jjd$35r24erieeerzwe*9kr99ew422eer22$",
"#w<9494<<724492$3244r9<2eee9uik*199<<eiizg09uud%:e>:>72<<>7944e$",
"&ree9e<4:>>449e3>de7rree9ekiuef*19749rriir<><<e%&<:,,<:4<<<3<<<$",
"&ruue8<<<e944>4$:e24erur4ere<rd+3ee44ii0rrir0er$$214::72127:<2>$",
"$r49<>,<<924:>>$:9<<97<eere::24o,r24<8errtiratx:$err>9e>2eq:9e21",
"%e<044<<ee74>>4*3e4399errrrr4<1o:j9e4eiiu99riii$$re<<591:13:29::",
"#q<re8<>48ee<>,$:2427riige97u::o,d9e49ree74rrrr%:i08<<><,:<4rr<:",
"#de80ei9<4<9<,4#&q<<7ei4ezu99<i#$4e9980rr<e9u74#$re<94<<7e<,q74:",
"#duee29492<21$1#&72<79e9>0rttrk#$4:4e5eue442<8r%$ti87<:<74>>:,4$",
"oe4ee9994<<>:$2*#2332:44327rr>4+131:>:4kr2927eu#$giee92:2>7e13d1",
"o4e9e2rr8747<,e,#::<422><94e4:2o:224>:<444e9<0e#1gtrtkie<,2e2er2",
"o4<<:,9e4<e<<&2&$2,:<52<:>499:7#,3<,>,<,<<e2eee$&r00rir9<<,,99<<",
"#d927:99u4<e<:2$#2,$:,>13<47e94#:47e222>>27eeew*$riirrr8tr84rr,:",
"*d222342r22q<1q1#e4>2224,122422o$1422422=$22,,2*#7rrrwdwffkdre4<",
"X=##%Xo###%*%X*+X#oX#+oo#o+oXo$XXoo##o%Xoo##o#=X.##o*#,$$#,,#:1:",
"32<<:1,:<ee2$$2#&4<13::54::24:>X;###$&3##&#$,$:o#=3:11$<<:$::*94",
"<4eerj42eie0,,2#4r22<<<e4142<32o$:$>2ew2:1::94q*$er29e9r09ee4,e4",
"3999rr2eurrr9<2#:,,,<<eeu2><4<2#$=$>><q2,41:::2o#<<,4<<9rwite<9:",
"<4:2rr<7ereru<9#>2ee<eirr7<<<<q##3&$::13<><1::4o$2:9e><799itrer$",
"4e24e9,<<2>we9e*,>48970e94<:,,2#$>1>,:1,>248><d#*<<9u<41::<00ei3",
",442043<<44re9w&&3<uu9ue244:::>o$>:>>&:<<<4:::qo#1,3<3&$::39eee$",
"$44474<4er444<q#:2rtstk849941:3+*:14,&<,<<,::,r%:2r97e4>4<4eiew,",
"$<4<7447qr94,2e#$ersszk7<:44>:1X#:39>:7:>>:>44e#,4r0ee4484,8u9e:",
":49e4244<4<<,<9#1eeekj47<:ee4,2oo::27441,$::yer-19957r<,e449e05:",
":<<42222u444<4r#32<9e949ii9e9>2%#::>9<4<2>40e82o47>:qze28><<u95:",
",442<<u5u2272ew$:eurru4<9jee9<>o%1&:7<29re<:::3X#3:<2e<<treett0<",
"$442222249479ed**eeefde9ewkwrkq#=e>:7ertsr9<133Xoei4<41753erre4;",
"$4e442443>,244w#19qkge9fu29e972#1w<9iishr0<::<2@$kt84:<929eee9<4",
":<494490e72eeew$&<0ui93ee2<9<:e#:8790yppre:1:<2#,grr9>,<0tstp7,&",
":47eeduee2443<w*9kd9qdur2e44<ef#4erdpiir<71d,1:o$eriq1::9znbbr<$",
"X+oo*+####+#oo*Xo-*ooXo+ooOXX+* O+O**#######oo# X$$&$###o*3:,$*#",
"$3$:,$,,3>:24<9##:,5<,:o$4&:$$$X#1:$:1,,144:*$$#X4*$<$#&#%*&#$:#",
"1e92<<99weerirf3349ri8:&>94243:*$94<9929ee7><>2*$w22r49r944e4e2$",
":9799ere4e4u4er-8e9rz0>ee2>24>2#&24<49<97<<<<:2#%4<4<,ee4<44::2o",
":4144ue74ee80er;2<<rs<<94><2>22o#<:,9<<<<<9<,<2#%9>4,<tr948i74e&",
":424444eerrrrir$,,<rr<44,>44354+$772rr0e<<8e<99$$9778ets<:9e999#",
"1422>19e22ri9u9#<<29>4u92248<<qo&924er99<<99<<e#o41<uitri9425ed#",
"4<222249e:ei9reo,e2<12ree8ee9e4#&42<<4,<33ee59e&#244ts09sk072ee=",
"$1<,,1<<42er>edo,9::<480e4<4<42+&9e<97:42>9r0ei*#2:<hv078iu<:<2#",
",122<::2<eeeeek&17>48<4::2e9444#,e9er4<9<<7ai8u&o3<4rt08trr>:<4%",
"$3221,<1992q99f#3e4ereer<:,447f$1derr2u9e90ki9r$#e99wzirr991:<4#",
"#:1114,244dduek#3e49rrrzr0<<42d+$d949449e<984<4%#942eru499e2:>3#",
"$*$$::1192ewerg*$e97rrtxbz<9e8d%1e9re94eee8>,2r==274we48:4>>>>4#",
"1<1:1:>>5<2e90i&$q44y<9rre:,4ek#394984<0i0<:$<2$%<,<44<e<32444e%",
"1,::>1:<4<294<e%=2<<e<42293<4ef#399:44u0e0u<<42$X4<<4rye9<92479$",
"2q22qwq24eedred*=q24e2eq7qre79d*1e922eerrrre4ww:#e0rdrwfu2reeq9=",
"#%#o#--#+##$##*XX*X#=%-*-#;*##1+O#&$*%#:&*:%-3;o-,:3$&&3$#&*%:=+"
};
