/* XPM */
static char *tile1680460181[] = {
/* columns rows colors chars-per-pixel */
"32 32 35 1 ",
"  c #2E0201",
". c #260901",
"X c #2E0903",
"o c #350402",
"O c #3C0504",
"+ c #350A05",
"@ c #3C0906",
"# c #340608",
"$ c #3F0709",
"% c #370B0A",
"& c #3D0B09",
"* c #3E110B",
"= c #3C1011",
"- c #420605",
"; c #420907",
": c #490A06",
"> c #440708",
", c #4A050A",
"< c #440B0A",
"1 c #4A0D0D",
"2 c #510E0E",
"3 c #44110E",
"4 c #4A110F",
"5 c #51110F",
"6 c #420E10",
"7 c #4D0F11",
"8 c #530E11",
"9 c #461211",
"0 c #4C1312",
"q c #521313",
"w c #591415",
"e c #551718",
"r c #581618",
"t c #591C1B",
"y c #55201C",
/* pixels */
"5<<&%&@<@@<;<14t:<1w11w4&<&O<1<-",
"1-;O@&&&O11011101q1q>><1$&<&<111",
"q11;<1;-O<-12:1-180&0O<7<O<<;21;",
"OO--O;<1O<;11114<79361<01-14121o",
"<143<@;<@&1<;;<y<61<+0011-11-:,O",
"&;@<<&<&$o&;<<@41&01&0q@;o&&O:1-",
"<4;;-OOO<&O;13&&O<10<0<@7OO@;41&",
"-411><09O6<>-;<<*>3@8;o<;o&&O--o",
"<1-;q842Oo&<<<41@<<1-&30w-;1-&3 ",
"O13@-O;1<&@;O44q@O4;0<<&-OO&<Ooo",
"3:@o&<+<ooO<;1O;<&<<0144;O@@O&<O",
"&;3@<&o&%O<O4<-;<3<<;;144OOooo&O",
"O:O&1%oo&&&O11<3O&$&O;-<:1OO&%o@",
"o16&-oo< oO<<9@+oooO&<1<,44<%@@*",
"<>oO,<%$oo%&O<@@&&&#+&<3<;11O-<@",
"&$&%<6o&+o&OOo@+o&o% @@4o@;:15:;",
":@:O*1 $,<;<-+%#oo&#oO&&+&>,<oo<",
"<<<O31o<XX@<<<O; &&&oooO+@;<93&&",
"<3<&3<@<+&3*<Ooo#%o++&o@ooooo&31",
"o@OO<&O<<<1*@oo.o&ooo@o3339<O<41",
"@&o$<O<-o61&O;<o &<o@&&&@O@@@<:-",
"%<%<<O<Oo&1-;11-o O@3OooO@@O-:41",
"o<&&<@>&O99<-@*@6@3qqoo=&33&-11;",
"OO@OOO-@&&<;O+X@9<;;-OoX;3;o;w4;",
"@*o@:1:qOO3oOo<oOo;&&Oo=<o<o;+O@",
"<&<3;<<1<*+@@+ooOo<<-Oo%@Oo4O0+@",
"&Oo;&43&+<&++<O @@1<<<o&@O141<O&",
"<oo&-1<O<oO03<+3&<<OO<<<o@t-2@&+",
"o%+o$>>1@<;@O-<<<1<<<440@;3:@<oo",
" Xoo<<7r-O4ww-O<<&O&<O-1@&@1O@o+",
"&oo@<;<1O;;OO-<<&-&<1;<1-&1&<o&@",
"7$&3<O33@&&<<<O&o&&-;<11::O<@1;O"
};
