/* XPM */
static char *result[] = {
/* columns rows colors chars-per-pixel */
"64 64 59 1 ",
"  c #030404",
". c #060708",
"X c #07080A",
"o c #0A0B0D",
"O c #0D0E11",
"+ c #0F1113",
"@ c #111315",
"# c #13161A",
"$ c #16191D",
"% c #191B1E",
"& c #171B20",
"* c #1A1D22",
"= c #1E2125",
"- c #1E2329",
"; c #212326",
": c #22252A",
"> c #26292D",
", c #292B2E",
"< c #262B31",
"1 c #2A2E33",
"2 c #2D3035",
"3 c #2E3339",
"4 c #323336",
"5 c #32363B",
"6 c #35393D",
"7 c #3A3B3D",
"8 c #363A41",
"9 c #3A3E43",
"0 c #3D4146",
"q c #3E4349",
"w c #424345",
"e c #42464B",
"r c #45494E",
"t c #4A4B4C",
"y c #474B50",
"u c #4A4D52",
"i c #4E5155",
"p c #525355",
"a c #575857",
"s c #535559",
"d c #56595C",
"f c #5A5B5D",
"g c #5C5E61",
"h c #5E6063",
"j c #626465",
"k c #656668",
"l c #67686A",
"z c #6B6C6D",
"x c #6E6F70",
"c c #6F7070",
"v c #737373",
"b c #787777",
"n c #777877",
"m c #777778",
"M c #777879",
"N c #7B7B7B",
"B c #828282",
"V c gray54",
"C c None",
/* pixels */
"CCCC###$%#@CoOOOOO++@@OXCCCX.+@o   .+@X CCC..OO++++#+@++O.CCCCCC",
"CC30y99eew1#*--:<133333>*C$$>45%*:&#15,#OCC+=:1335555553>&CCCCCC",
"C3uxNxdyyr5*-135889qqqyy9**2tpe:9r0,9e91$XO-38qyuuuyyrr91*&#C@CC",
"#9zMmvlsre5;388qqyusggglf6,ilzf4skfwuue9,O#2qqyussiidduq2*&<1:$C",
"#rxvvvxgre5-3qqyudgjklzllt4fxvk4ugssgsue2%=0yifjllkjkkde1>wjd8:C",
"@ezxljgsy01>qyuidjhhxnvvkw4pfjjttssgsuur5-:udkzzvvvxxxju1;wcky<C",
"@5shgsiie2-5yuusgdsfkzvvzt:egkzkjfiyryur5=,ikcxzxvvvvvzt;#4ffe* ",
"o:9uuiu92%*8ruuiiidjkvnnxt%4gxxkjfggggi9<&<sxczzxzvvBba5;=:0e,$X",
"o$,0re7:%#=7rissaffznBBMl7$=wkckkkzzch0<**1dvvzvbbBNzt1,52:->**o",
"O@*4974:;-%2rihccchlvNMvp;##%wklvvvks8>$#&-evnvNNbla6%>8q05,-:<O",
"X#=19eiit0,:0yhNnvjklvMk4@$$@%wfvnli8---&#&1izczht,*%,wyuyyq851O",
" #=1wfzvMvf7,7iMVNckcNvw==342;=9ahi5-<331*#*=,73>,,*;9upiiiyq81O",
" #:55wjBVBnj7*5aBVVNNcw->50q04,2225233383<$$&-25666>6pjjhfsrq83O",
"o:8uiewfccjfi;$>tvNva3>250euw4riity858883<*,50qqw951avvvcki0qe8+",
"O1sxvjtrpsiir6$=*:22>28qqqye7wjlhuq888881-5eyyyur9<tzvvvldrruu0@",
"O9kzjgi0eiiriq%%%$=38qyyrruq7jbvjteq8qq3<3yyyyeyr61jvvvzsushgr9O",
"O9susu99euuuuq:>3::6qruutiie9cNcguurrye1<8yyyrrre39zvvlpypgjfr8O",
"X*16615eyuuuyq>-5>-8uiisfafapcbxsuuuise1<9uyreq095txvxjsuupyuy6o",
"X#:<17eyuuiye8--5<-0uiflxxclgzvluuusgla6<9yreeusjp7zvzgaglkffr;.",
"O#49eryuuyyeq<&<53=0udhlzcvzkvvkssdjzvhw1wssgxvbMztwkljjzxxjp5#C",
"O$:8eryreeq82--383>6ydkllcvclcNcjklxvvlt6tkzvbbbbvjtwwphlxvlt*CC",
"C&#*<588852<-29q8828ydlcvvvnchBcxxvxcvza9txxvvcvvvclpew44tt9;#CC",
"CC*&&&&*=:138eyye835rgcnnnBna7lBBNBmbbvp47zzzvzlzcvzzjt,%;-%###C",
"CCCC*&$*,50eriuyq885ejMNnvjt,=6dhkljfpw,%4lxzvcjzcvcvvp;#***-*%X",
"CCCCC--4euiuiuiyq8890uafpw4:<<-1445466,%$,fnvvvzzcvnvk7->131-<-o",
"CCCCC%,qpssdssse8qyy072:;;2708331159ija7:=wnBNNbvnBNj0,15533181O",
"CCCC-;6pghhlkjdrqyiure7;=50qyqqqrygxbNNzw;1pzNNNNNva4;188983383O",
"CCC:64wglccmvlduishsii0,3qyuyqiyujvmvkzblw>16tghft4*$,8qeq88883o",
"CC*398wkNBBMvlpigllggkw4ruuuyyiihvvxkphxna18521<,13>>8qqyq88qq8O",
"C#<9ye7aNBNvvjsjcmvvBNw6uuyyyrqijzxzlfjxnh5qeeq0073-3qyyyq0yyy8+",
" &3eusrtlvvvzkkccvNNBc06urqq080qifzvljjjzf5qiiiiye5:qyyuyqqiye8+",
"o:9yightuzvvclcccvNBNr;4q00550qiglxxsruacf5qshlhiy42qqyuqqeuye5+",
"O1eusjxatabvbzvzbNVv7*#:35888eilxxvzy9egva5edxxzgy<19ryuyriiue3O",
"+8errazxptvNzvvbBNf4*$+=389eeysjljgdyeyglt5ygvvlsr12eryyugjgs93O",
"#8eerfzvlttbNBBBjw;;97;*3eryyuudgghgiyrss88ikxzgy9119yyydzzgse3o",
"O3rrydlxvjpwaft74,;5sf4%1ruuuupjxvmvhiusw2rfzgdur95;6tuihvxjgy:C",
"o<qrrdlxccjapt4*15<1sa4&<wyuuuilvvvNxggr47pkjsspuy6%*6eikbbzu,#C",
"o*8eyfzvzzvzlgw:662>141655ruuuujxjlvcge<>ekxlkgfgy,&&=>27w991;#.",
"O$3qtacbxvzzbzw7sue3<19y9,19eerfjitpt6:&;6jbMMxji1%**>46542<11* ",
"C&-8tpzbvzlzNj7tzljssuuy8:*,2469w4474*&-%;tjvbjt9,%*10yyre9985> ",
"C-$<0uhNbzzvMp4alvvvzjsy6**>5697467002;*:wttpst008;>tggiyrre98>.",
"CC&*1qsvNxbNk97klxvvzgsy7>4wyyuuuuuupt6=7jzpeeryr6,tkxlgutrrq8>.",
"CC-&=3yhvbNze7avbbmvjduu77afsuuuuuuiflp7tvckdurye6:hvvzjguure9<.",
"CC--$,8slvg7>tvNNbvkgsuu9wzvlgsuyuidlcatjbbvhy00954lvvxjsiuye9<.",
"CCC:2116ew>+%aNNxjhgdiuu9wzvvxjsiyisklttvBBNcae9854lvvxjgiuree1X",
"CC-30q611<;#@4kxjhfssuyr6tvxxxxsyiislltabNNNvzae851jvxzlgiiyy9<.",
"C$18rruuyy94%@wjhdsutr914pvxkhgsuyiijatfzzbbbckpq6>pxxvlguuyr8*.",
"X=5euiissst94*#59e985,*&,pmxzjhsyiusliwfzzcvbvlpy917kmmlgsiur5$ ",
"O<0yihzvMzgy83*+&&#+ooO#*tvkjhguuuijbt7plxxvvvzsue5>avvzhpiu9<#C",
"+3eugxcmvxhsq81$&&#:<,*##9bzzzlsuusgvt4tsdgjjgsuy98>7zbvjpur8*$C",
"+8yigkjhhgssyq3>##>88533,7znvxlpuudkzt,,eyuuuyrq888:*wzvjst91#*C",
"O8yusiuyeeeuyq81@*89933epwaBvkguuuipt,@#;,389988888*%*wfgie5-&CC",
"X6rurq88888qyy83$>9ry839pe7gjpyrq82;1wtap7%#*>1538,#*>,2998-$CCC",
"X,eue88888qqyy83*>rsgdq8pp6,,>:;*$4tslNvki4#@$%&&&#>9e95<::*+$CC",
"o=0urqqequssuy83*<ygmvsqugt>#$%&#;pkklxksiw1#&&###;akjp8553<*#*C",
"C#5euuushczhiq83*>ujvvfugjs4#=:-=,ffssspiue5**&;:$wvbje8esuq1$#C",
"C#-8yyygvBMhuq81#*pjjzhgzkr,#=**$;6wuueeyqq8&#,e9;pbvs9tdgjs8:+C",
"CC#3qyyszvhsq08-@%ikkzxvvf5$@-:*;>:2tir088q8*#ege,abvgrigghjr<#C",
"CC#*8qyihhsq88<$$&9xvbmvg8*$1ep9ww5*6ur93<83*,sy9,ibmjuugggju1&C",
"CCC#-39qyuq03<$#**:avmzu5*;wxBNd983:=7rq8<<:*5y95>7vvhsusgjjq:*C",
"CCCC&-<89q83-##&*%*,9e5,&$7vcvxgq881$,90833*#3e92&*gcjfpugkjq-*C",
"CCCC@#*-<<-#+&--7%**$$$##*wjaiyreqq1@#>231-#@,5<:++9faptffss8-CC",
"CCCCC+O@@O+#*CC&4#CCCCCC&*<99999851-OoO@##@OCCO+++##;,,4ee3>*&CC",
"CCCCCC     XCCC   CCCCCCC.oOOo+OOO ..CCCCCCCCC   C      .X   CCC"
};
