/* XPM */
static char *result[] = {
/* columns rows colors chars-per-pixel */
"32 32 52 1 ",
"  c #050607",
". c #0A0B0D",
"X c #0D0E11",
"o c #0E1114",
"O c #111316",
"+ c #14161A",
"@ c #16191D",
"# c #191B1E",
"$ c #171A20",
"% c #1A1D22",
"& c #1E2125",
"* c #1E2229",
"= c #212326",
"- c #23262A",
"; c #26292E",
": c #292B2D",
"> c #262B32",
", c #2A2D32",
"< c #2D3136",
"1 c #2E3239",
"2 c #313335",
"3 c #32363C",
"4 c #34383E",
"5 c #3A3B3D",
"6 c #363B41",
"7 c #3A3E43",
"8 c #3D4146",
"9 c #3E4249",
"0 c #424345",
"q c #42464B",
"w c #45494E",
"e c #494A4C",
"r c #474B50",
"t c #494D52",
"y c #4E5155",
"u c #525355",
"i c #525559",
"p c #56595C",
"a c #5A5B5E",
"s c #5C5E61",
"d c #5F6163",
"f c #636465",
"g c #656768",
"h c #67686A",
"j c #6B6C6C",
"k c #6F6F70",
"l c #6F7071",
"z c #727373",
"x c #777778",
"c c #7B7B7B",
"v c #818181",
"b c None",
/* pixels */
"bb;-,+O+#%%#bX##o.&Xb.o%&&%#Obbb",
";gcpw-,67qti5,a5tqe6o#6wytyq-&%b",
";zjgq-7rigjkaejuyiat,4yhljjy&fp*",
"$uyt3,wiiidzj,gjfewy-8jhllxf+qeo",
"O:q-#;rfgscce$0jkjd>&4zjcv0-4-%#",
".-efd26hcfjx$-%5zi*,&%5y3==ttw6%",
"o38acj2<xvd;3q5585141$,65<ijgt8-",
"%ghqutq#$,2q9r0kp866*9rr85zzpyy-",
"#qq5rrr;<,wtuipzuet6<req6ukaepu=",
".,4err7%1,tgkzhktijt<rtdj0kphfuO",
"O&7q96-26>ykjzgcjzlf5jzzzg3uah:b",
"b*+O$4rt73ixxv,gvvcf#jlfjzke$+#X",
"bbb,tutt6q65;,1>->6:$jzljxj%11>%",
"bb,esjjyrpr22wqwtlxx0<axj0%6841&",
"b>qqvcjihhz;rtrtjlfjx6643<1ww8r-",
"o8yehzjjzcx-q76qpjppz6ipe,rr9wr-",
"#wuk0zzlcj=O179ajg0tj7gky;qttir&",
"&eykhazz0%t#9rrigfyt5wjs9,qrggy-",
"+qekkhu:4:i&<rrpjkgp2gapy;&8gj2o",
"O<uxzgz0gw6r2;8ei0:$#jcj2#*w733O",
"b$8hjxd0hzht:;eweqq%0uqq9;gswq7#",
"b*%txj3kczat2gprtyj0jkuq85zhir7#",
"b*4<5+:zgayt2jzdtij5ccje30ljirw#",
"O4eyy8#7yw8,5lgpttgehzza8<zzpt9o",
"#wszzp6%#o+O&jgptpj0fjjpq1azat2o",
"&rapyyq1O4613zzptpaO69q84<%jpq%b",
"#r9667r4&wt<a0w82-5zfO#><%,;2;$b",
"Oqrwisr3*ivwaq#&&jsgy7$%+ejq96$b",
"b*rrxg91Oagfz2$#+<tw97+w4hj8sf3X",
"b$1rpw3$%ecl7#aa7,3q,,-r2ajtsg6O",
"bb+>6-$%-&,-+agp94O43-&6=:jusg<b",
"bbb..Xbo+bbbo---=# X+bb...O+:#Xb"
};
