/* XPM */
static char *fd3726e7427440c59136d51cca13927b3Ykt8jHrTnHc1Tdj[] = {
/* columns rows colors chars-per-pixel */
"64 64 156 2 ",
"   c #362B8B",
".  c #392E8E",
"X  c #3B318E",
"o  c #372D90",
"O  c #3A2F92",
"+  c #3C2F98",
"@  c #3D3394",
"#  c #3F3499",
"$  c #413696",
"%  c #423996",
"&  c #41369B",
"*  c #43399B",
"=  c #493E9E",
"-  c #4437A0",
";  c #453BA1",
":  c #493EA4",
">  c #4C429E",
",  c #50469F",
"<  c #4D42A4",
"1  c #4E43A9",
"2  c #5045A6",
"3  c #5349A5",
"4  c #5146AC",
"5  c #554AAD",
"6  c #594EAD",
"7  c #5D52AE",
"8  c #5347B1",
"9  c #554AB2",
"0  c #594DB4",
"q  c #5D52B4",
"w  c #5C51B8",
"e  c #6156B5",
"r  c #645AB5",
"t  c #6156BA",
"y  c #655ABB",
"u  c #695EBD",
"i  c #6B63B7",
"p  c #6B61BD",
"a  c #7066BD",
"s  c #665BC1",
"d  c #695EC2",
"f  c #6D62C3",
"g  c #6F64C9",
"h  c #7166C6",
"j  c #7269C6",
"k  c #7266CB",
"l  c #756ACA",
"z  c #796ECD",
"x  c #7C72CD",
"c  c #796ED1",
"v  c #7D73D2",
"b  c #7E74D9",
"n  c #8076CE",
"m  c #8178CC",
"M  c #8176D4",
"N  c #8479D5",
"B  c #887ED7",
"V  c #8176D9",
"C  c #857ADA",
"Z  c #897EDB",
"A  c #8A7EE0",
"S  c #8981D7",
"D  c #8C82DD",
"F  c #9086DF",
"G  c #958CDD",
"H  c #9B93DC",
"J  c #8D83E2",
"K  c #9186E3",
"L  c #958BE5",
"P  c #998FE5",
"I  c #9084E8",
"U  c #978BED",
"Y  c #968BEA",
"T  c #988DE9",
"R  c #998EEB",
"E  c #9C94E4",
"W  c #9F98E5",
"Q  c #9B93E9",
"!  c #9D93E9",
"~  c #9B91EE",
"^  c #9D93EC",
"/  c #9C93EE",
"(  c #9F97ED",
")  c #9D93EC",
"_  c #9A8FF2",
"`  c #9F94F2",
"'  c #9F96F3",
"]  c #9E92F4",
"[  c #9E93F2",
"{  c #A094E6",
"}  c #A49CE5",
"|  c #A197ED",
" . c #A096EC",
".. c #A097ED",
"X. c #A098ED",
"o. c #A098EE",
"O. c #A49BED",
"+. c #A89FEE",
"@. c #A89FEE",
"#. c #A095F1",
"$. c #A095F3",
"%. c #A297F3",
"&. c #A297F5",
"*. c #A196F6",
"=. c #A196F2",
"-. c #A198F3",
";. c #A399F2",
":. c #A49AF1",
">. c #A59BF2",
",. c #A59DF3",
"<. c #A39AF5",
"1. c #A49BF6",
"2. c #A59AF6",
"3. c #A49AF4",
"4. c #A89FF0",
"5. c #A99FF6",
"6. c #A89EF5",
"7. c #A397F9",
"8. c #A298F8",
"9. c #A69BF9",
"0. c #A79CF8",
"q. c #A79CFA",
"w. c #A59BFC",
"e. c #A79DFE",
"r. c #A59BFA",
"t. c #A99FF8",
"y. c #A89DFD",
"u. c #A99EFE",
"i. c #A99EFC",
"p. c #A9A2EC",
"a. c #B3ADEB",
"s. c #ADA4F4",
"d. c #AFA6F9",
"f. c #AAA0FF",
"g. c #ACA1FF",
"h. c #ACA2FD",
"j. c #B0A7F6",
"k. c #B2ACF2",
"l. c #B2AAF4",
"z. c #B0A7FA",
"x. c #B5ABFF",
"c. c #B4ABFC",
"v. c #B7B0F4",
"b. c #BCB6F6",
"n. c #BEB6FF",
"m. c #BCB4FC",
"M. c #BFB8FE",
"N. c #C1B6FF",
"B. c #C3BBFE",
"V. c #C7C0FF",
"C. c #C9C0FF",
"Z. c #C9C1FF",
"A. c #C9C1FF",
"S. c #D2CBFF",
"D. c #D8D3FF",
"F. c #DAD4FF",
/* pixels */
"* $ * * # # ; - 8 8 9 9 9 8 9 9 9 9 9 0 8 c j 1 9 q I ' ' 0.s 8 0 8 4 w x x j w 8 9 9 < N 3. .*.7.u.r.z 5 5 9 9 9 5 9 9 9 9 9 9 ",
"* * $ * ; ; - 1 9 9 9 9 9 9 9 9 9 8 9 9 9 g j r 5 5 5 Y f.L w 8 9 4 6 j B i 2 9 0 0 8 k -.;.2.#.J k t 6 5 0 9 9 0 9 9 9 9 8 9 9 ",
"% * * * & # ; 8 8 9 9 9 9 9 9 9 9 9 9 9 4 f C v s 5 9 9 Y J 2 6 6 u l b M 0 9 9 5 5 0 ' u.R l = % # & ; < # < 4 4 9 9 9 0 8 9 9 ",
"* * & & # ; 1 0 9 9 9 8 8 9 0 9 9 9 9 9 4 f N z c 9 5 3 v ' i q l b b M t 0 0 9 5 < b f.C : @ $ * * * * # # # # - 1 9 9 0 8 9 9 ",
"* # - # ; 1 9 9 0 8 8 8 0 8 4 1 = 4 9 0 4 j m x v f 0 3 x ,.,.F n n M f 9 5 4 4 7 S ' f.p o < * * * & & = # % # & & < 4 9 9 8 9 ",
"* * # # < 8 9 9 9 8 0 8 4 < ; # % # ; ; 3 j v x c C w 4 D ,.Q ( z M j 5 2 t r M f.' 1.v # # # # * * & & * # # ; ; # # < 8 8 9 9 ",
"& & ; < 4 9 9 8 0 9 1 < > # # # & * * & = j x v b b w 3 S t.d.( A h 2 w B P @.j.Q ' ( % # # # ; # & & & * * * % & & # # ; 4 0 9 ",
"& # : 9 9 8 0 9 9 1 * # # # < # # ; & & = v b c g y 9 1 c c.V.( :.h : A t.4.B.N.( Q , % # % # < & & = # * * # % & & ; # # < 9 9 ",
"; : 4 9 9 9 9 9 < # ; # * > # # * % * @ q N f 1 9 4 9 4 b p.( ( 2.f 4 U 5.C.D.k.P > @ * # > # # & & * * * * * * ; # % ; # & 4 9 ",
"1 8 9 9 9 9 9 9 1 # # ; * # * * * * * 6 S q o 1 9 0 0 5 / ' <.P ~ f 4 t Q O.p.p.r # * % # # # # & # * # * % % # # * * # * # : 9 ",
"9 9 9 9 9 9 9 1 # & * # * * * # * # * b j * @ ; 1 9 4 j h./ p q M h 5 4 3 P E 5.f O = # > # # < ; & * * * * % * * % * * * # < 9 ",
"9 9 9 9 9 9 9 : # * * & * % # * # * z z # # > @ 4 9 w / J 0 2 5 q 6 5 4 @ % K u.c @ ; * # # - # * & * # * * # # * % * * # # < 5 ",
"8 8 9 9 9 9 4 & * * * * * * * % * j b 3 @ & * & ; 1 Y w.w 5 9 0 6 d w 2 & $ y u.Y # # ; * # # ; * * & * * * * * & * & & * % * 6 ",
"9 9 9 9 9 8 1 # & * * % * * # # p S f # * & * & # x w.y 1 8 9 5 w V f : $ & + k s & * * # * # * & * # * * * * * * & & ; % # 5 x ",
"9 9 9 9 9 9 : & & * % * * # # 5 N x 7 # * & * & z h.j ; 9 w 9 9 : M c : * % * ; f 4 @ % > % # # * * * * & * & & * * & @ * d v v ",
"9 9 9 9 9 0 ; & * # * * @ % 5 z v j # * * * o p h.~ > & * 1 0 9 9 s s : $ * $ : f.v X # # # > # * # * * * & * * & % * q j v v v ",
"9 9 4 9 9 9 < # * * @ @ 3 j M v M d $ * & $ : ] f.j X > # # 1 8 8 5 9 9 $ $ & % J ] @ % $ & ; $ # * % * * * # ; # < z N x x v x ",
"9 9 w 9 8 9 * % * # > u n N x x M 5 % % $ = Z u.Y < # # # * # < 0 5 9 k u 6 : . y M 3 $ ; ; # - * # * # & * # @ q b x x x x x v ",
"9 9 9 9 9 9 % * ; < C b x z x x M 3   = n ! :.:.Y # % # % # # * 4 0 5 y Z M z d 6 5 q $ @ # - & * * * * ; @ 5 r N x x x m x x x ",
"k c l l z v v l 1 # g v v N M x M 6 e ! 2.j.| 6.j o > % * > # # : 0 5 4 r z M M M x D D y 1 O $ # ; ; o q z z m x x m x x x x x ",
"Y Z v x z i 7 % X @ # @ @ < j v M P q.O.P B.B.@.p @ * # $ * & - - 4 9 1 @ % 4 z V z Z t.r.L l 3 : X % 3 j b x x x x x x z v S / ",
"1.( Q L G x m x N v b b C v J b n [ %.2.@.j.j.c.p . # * % # - & - 0 9 < * * O : c M M T *.-.5.>.( m S S m z x v x x z S H Q ' ' ",
"' ,.p.s.k.a.b.p.,.,.f.d.L S i # 6 Z u , a G O.| D # = # * % $ - : 9 0 1 % & $ 2 c z M z C D ' ,.W W ,.W Q m x x x z M K 1.;.' ' ",
"0.S v l.V.S.D.p.E ,./ x * . @ # $ f M =   3 L t.( < # * - & + - 1 9 8 9 ; $ @ y M M M z z j j Q k.m.S.p.o.o.L S D F ' -.( o.' ' ",
"b 2 2 n ( p.M.( ,.J < o * ; * - $ 6 V l ; @ % z g.u . % & & : 4 9 6 0 9 9 1 y b v l w 9 0 9 4 L B.S.A.V.M.s.,.f.5.t.3.3.3.%.3...",
"9 0 4 6 K ( Q s.x < & ; - # - * $ : M V d - $ . C >.3 @ % ; 5 5 3 4 4 9 9 w u w l q 0 9 9 < k s.E p.O.p.( S D J D J K K K J Y *.",
"8 5 0 2 v s.' v 1 9 0 1 ; ; # # & $ : V V A d : r s.F > r u e d c f 0 9 9 0 4 4 q 0 9 9 5 f Q 1.%.x e q 6 # @ # < 4 4 4 9 1 0 ] ",
"9 9 9 2 g f.~ 5 9 0 9 0 9 4 4 - & $ $ = 5 s b C z  .O.P M z M M g f 4 8 8 8 8 3 1 5 9 4 7 v v L z < 9 1 1 9 8 9 0 9 0 9 9 9 9 w ",
"9 5 9 9 w ' l 4 9 9 9 8 9 9 9 9 : : : : : : 0 c M D ..2.#.A M 7 = < 6 w t s s C v 5 9 6 3 3 < f w 9 4 0 9 9 9 9 5 4 5 4 9 9 4 9 ",
"5 9 w 1 t f.s 1 0 9 9 9 5 9 9 9 w 0 0 0 0 w 5 e z x B K R 2. .F Z S D ;.] ] w._ C 9 4 5 4 4 5 9 6 6 4 6 9 8 9 9 9 0 6 4 9 6 4 6 ",
"; ; 1 9 t g 9 9 8 9 9 8 9 9 0 9 9 9 9 9 8 0 8 5 7 c c c z M 2.2.6.O.l.s.Q s.c @ # # # # # # ; : ; 9 0 9 0 9 9 8 9 9 9 0 9 8 8 9 ",
"& & - 1 9 8 0 5 9 8 9 9 0 9 4 9 9 9 9 9 0 8 0 8 2 d M M M u 5 | { N.D.M.} x @ # - - ; ; % * - # * # & 1 1 8 0 9 0 9 0 8 9 9 9 9 ",
"* # & * 9 9 9 9 9 9 9 9 8 9 9 9 9 w 8 8 9 9 9 9 0 : k M M r $ 3 P B.F.m.G , X % * # * ; & & * & * & * # # > < 1 1 1 8 9 9 9 8 9 ",
"# * ; ; 9 9 9 0 9 8 9 9 9 9 9 9 9 : w 8 0 9 9 0 w : n M M : $ $ a s.l.@.P $ % * * * & & ; & % & & * * * # # # & - & # 1 1 8 9 9 ",
"* * * # 9 9 8 9 9 9 9 9 9 9 9 9 9 : 8 w 8 w 9 9 : w g M V u $ $ % T ! 2.Z $ % & * # & # # * # & * # * * # * # # # * * & # ; 8 8 ",
"* * * # 4 9 ; : 9 9 0 9 9 8 9 9 9 w 8 w w : 9 9 0 : f M n M : $ $ M q.3.u $ & * * & ; ; * * & & * * * & # > # > & # * * # # ; 4 ",
"* * & # 9 < # # : 1 1 8 9 0 0 5 9 9 w 8 9 9 9 9 0 5 M M k M k - $ N :.:.C $ $ $ & & ; & * & * & * & # * # % # # * % % % % # # 5 ",
"* # # t g : * ; & # # & : 8 9 9 9 9 9 8 9 9 9 9 5 h M n n n M n $ n 6.| 2.2 $ & & # ; # & % & $ # * # > % * # # % # % % # < 5 v ",
"* * @ s c.q # & * & ; # & ; 3 9 : w w 8 9 9 6 5 : l n n k M n V l P | | O.K * $ & - - & * * * * * # * # * # > > * % # # 5 v N v ",
"# * @ v f.t @ * * & # ; & * * ; w 8 8 8 9 8 8 8 y M M k n n n l A 2.| O.s.:.A & & ; & * % * * & * * * * # ; # # * * 6 l v v v v ",
"% * & L f.7 % * * * ; * & * * # - : 0 0 8 9 8 6 g M n M M l n n R 2.{ N.m.H 5.D * # * * * $ * * # * * # * # # < # q C b b v z z ",
"% @ 6 / w.v o % * # # * * & * # - - ; 9 0 4 9 5 M M M k n M M B 2.{ } S.b.H { 5.D < @ % $ - * * * * * * > # # # * * 6 q 6 4 < 6 ",
"= X r f.' Y * * # * * * * * # * - - - 8 5 9 2 f M k M V M M p A >.H B.F.D.k.{ ..;.3.v * $ O $ $ # > # # @ # > # * # # @ # 2 5 9 ",
"f X C <./ ,.i X & * & * & * * % - + # 8 5 4 f v M M n l t w : R | a.F.a.a.m.>.3.%.%.e.U M y 6 5 5 f j # > # * # * ; * * 2 9 5 5 ",
"z z -.,.o.o.~ < @ * # * * * % * * * # 3 6 y b b z u t 5 5 2 y *.! x.c.W O.Q L c Y _ $.7.y.t.) K S z 6 o # @ @ # # # ; 4 9 9 5 4 ",
"Y ' ( -./ o.s.v @ ; * & * # * & @ # < 9 c b c p q 4 : 0 2 t 2.*.t.%.P J p < $ @ $ $ d K #.2.2.%.' D v q 5 5 6 6 < < 9 0 5 5 9 w ",
"%.%.' ( ( ( Q f.j o & * * * # = 6 6 v b v v w 4 8 6 9 : y $.y.7.Z j w 3 ; # - * % % $ d M F R %.' f.s.' ' f.f.' 0 0 5 4 9 w f c ",
"%./ ( ,.W s.,.E ,.c < & @ y z z N m x v v y 3 5 5 8 q M 7.7.A d < 4 6 9 1 ; & * % % % & : h M M 7 S ' ( ' ' ' N 1 3 0 0 f c b b ",
"N x P O.H V.B.W ! d.V % = p N x z z M n l 2 5 e t I #.2.8.b 1 4 0 9 9 9 8 ; & & * $ * * $ : M M z , S s./ %.3.q 5 u l z M M z c ",
"z x B >.H V.m.H ( -.[ v x x x x n n n z Z B L 3. .2.{ >.C 1 9 0 9 9 0 9 8 : ; & - - * = * : h M v x M B ..3.#.c z n M M n M V M ",
"M z M >.H C.B.H O.%.*.7.M M M c z z x x K 2.O.P  .{ p.E > 3 0 9 9 8 8 9 0 9 : ; - $ : $ = $ 6 V z v x x N %.%./ M l h h u 6 5 e ",
"e = e 6.H B.F.l.! %.7.C h d z K [ / [ U {  .5.m.B.S.S.} 3 @ 1 0 9 0 9 5 5 8 9 9 : 4 : 7 : : y M C v v c k / %.;...L L L M h l K ",
"$ . y 3.E N.B.c.5.%.z O = = 4 d e.r.u.$.q. .@.m.m.m.D.m.i X - - - : 8 8 0 0 9 w w 6 0 0 5 5 d M f t q 5 3 g e.' 2. .*.u.h.z.9.7.",
". 6 [ *.;.O.W N r 2 $ & % % : 4 h u B [ K  .>.} { H B.m.i X * # - & $ - : 4 4 : : 0 5 5 q t M w 2 4 5 9 4 f -.1.2.q.q.K Z Z %.%.",
"B / r.e.L e > X $ $ & % = 5 0 0 4 2 4 M 5 = 5 x L s.E O.r @ * * - & & - & & & * $ - = f V V s 2 9 0 6 8 1 f f.K C r 4 $ % . t 2.",
"5.5.] c = X % * & & ; 5 5 8 9 9 9 5 = z q $ $ $ > K 6.S X % * * & & & & ; & & & & & $ c V g 4 0 6 4 9 6 q ' j # o @ $ % $ * $ A ",
"' z < X & & * & - : 8 8 9 6 8 9 8 9 $ c q o & ; # 4 f.j @ * # % & & & * ; & & & % $ 5 M V w 4 6 8 6 g ' e.z O % % * % $ * * * = ",
"J # # < < ; < 1 8 9 0 9 9 9 9 8 9 2 & z g 4 $ & ; + Y c X ; * * * * & = # & * % $ = c M c : 8 8 9 < J u.J : % * & % * * $ * & & ",
"f 5 q 8 8 9 9 9 9 9 8 8 9 9 9 9 0 - 2 M v h $ * - # Y c + # * * * % $ & & & = & % d M v z & w 6 3 y [ u.f . * * - & % * * # & - ",
"5 9 8 0 9 5 9 9 9 9 5 0 9 9 9 9 8 $ 4 M x n > $ ; O J K # ; * % % * # & = & * @ 5 M x M u $ 0 8 4 J 3.3.7 # * - & - * * * & - # ",
"8 9 8 0 8 9 9 4 9 9 9 9 9 8 9 w 4 + 0 M z n p $ # < [ 8.I # * * * * & & # = * # j n z M p 2 0 4 l t.[ [ % % & & ; & & * * # * * ",
"8 0 8 9 0 8 8 0 8 9 8 8 9 9 9 8 : $ h M n x n 0   q 0.' 8.3 @ # % * * & * & . 6 M x z n M y < e *.' r.K : % $ & # & ; & * * # * ",
"9 9 9 9 9 9 0 8 9 0 0 9 9 9 9 8 $ 9 M M z c M z = 5 ;.( e.C @ % * * & * ; $ % l M z m z M l < C 3./ r.C $ % * * & ; # & * % % % ",
"9 9 9 9 9 0 8 9 9 9 9 9 9 9 9 8 % z c c n M x M h M t.( ' -.u @ % # * $ * $ t M x x x x z M c _ 2.%.*.u.s @ % * # & ; & # * * % "
};
